<svg width="15" height="25" viewBox="0 0 15 25" fill="none" xmlns="http://www.w3.org/2000/svg">
<path d="M1.99072 24.65C1.76809 24.6502 1.55041 24.5843 1.36524 24.4607C1.18007 24.3371 1.03574 24.1613 0.950519 23.9556C0.865296 23.75 0.843018 23.5236 0.886499 23.3053C0.929981 23.0869 1.03727 22.8864 1.19478 22.7291L11.4238 12.5L1.19478 2.27094C1.00676 2.05572 0.9077 1.77702 0.917701 1.49141C0.927703 1.20581 1.04602 0.934717 1.24863 0.733179C1.45124 0.531641 1.72296 0.414764 2.00861 0.406281C2.29427 0.397797 2.57244 0.498343 2.78666 0.6875L13.8117 11.7125C13.9163 11.817 13.9992 11.9411 14.0558 12.0776C14.1125 12.2142 14.1416 12.3606 14.1416 12.5084C14.1416 12.6563 14.1125 12.8027 14.0558 12.9392C13.9992 13.0758 13.9163 13.1999 13.8117 13.3044L2.78666 24.3125C2.6828 24.4185 2.559 24.5028 2.4224 24.5608C2.2858 24.6187 2.13909 24.649 1.99072 24.65Z" fill="#173649"/>
</svg>
