<svg width="79" height="80" viewBox="0 0 79 80" fill="none" xmlns="http://www.w3.org/2000/svg">
<path d="M55.8437 55.2438H23.8904C21.9348 55.2438 20.0592 56.0062 18.6763 57.3632C17.2935 58.7203 16.5166 60.5609 16.5166 62.4801V75.7466H63.2175V62.4801C63.2175 60.5609 62.4407 58.7203 61.0578 57.3632C59.6749 56.0062 57.7994 55.2438 55.8437 55.2438ZM37.4091 58.8619H42.325V63.6861H37.4091V58.8619ZM44.783 72.1285H34.9512V67.3043H44.783V72.1285Z" fill="#EEECDB"/>
<path d="M41.9688 3.73749H37.0312V7.47499H41.9688V3.73749Z" fill="#EEECDB"/>
<path d="M60.4844 12.4583V7.47498H41.9688H37.0312H18.5156V12.4583H19.75H59.25H60.4844Z" fill="url(#paint0_linear_993_94)"/>
<path d="M67.8906 17.4416H60.0536L60.3807 13.7041H60.4844C60.8117 13.7041 61.1257 13.5729 61.3572 13.3392C61.5887 13.1056 61.7187 12.7887 61.7187 12.4583V7.47497C61.7187 7.14455 61.5887 6.82767 61.3572 6.59403C61.1257 6.36039 60.8117 6.22914 60.4844 6.22914H43.2031V3.73747C43.2031 3.40706 43.0731 3.09017 42.8416 2.85653C42.6101 2.6229 42.2961 2.49164 41.9687 2.49164H37.0312C36.7039 2.49164 36.3899 2.6229 36.1584 2.85653C35.9269 3.09017 35.7969 3.40706 35.7969 3.73747V6.22914H18.5156C18.1882 6.22914 17.8743 6.36039 17.6428 6.59403C17.4113 6.82767 17.2812 7.14455 17.2812 7.47497V12.4583C17.2812 12.7887 17.4113 13.1056 17.6428 13.3392C17.8743 13.5729 18.1882 13.7041 18.5156 13.7041H18.6193L22.1151 53.6866C20.082 54.0083 18.2294 55.0517 16.8907 56.6292C15.5519 58.2067 14.815 60.2146 14.8125 62.2916V75.9958C14.8125 76.3262 14.9426 76.6431 15.174 76.8767C15.4055 77.1104 15.7195 77.2416 16.0469 77.2416H62.9531C63.2805 77.2416 63.5945 77.1104 63.826 76.8767C64.0574 76.6431 64.1875 76.3262 64.1875 75.9958V62.2916C64.185 60.2146 63.4481 58.2067 62.1093 56.6292C60.7706 55.0517 58.918 54.0083 56.8849 53.6866L57.549 46.0958H67.8906C68.8727 46.0958 69.8147 45.702 70.5091 45.0011C71.2036 44.3002 71.5937 43.3495 71.5937 42.3583V21.1791C71.5937 20.1879 71.2036 19.2372 70.5091 18.5363C69.8147 17.8354 68.8727 17.4416 67.8906 17.4416ZM59.4006 24.9166H64.1875V38.6208H58.202L59.4006 24.9166ZM38.2656 4.9833H40.7344V6.22914H38.2656V4.9833ZM19.75 8.7208H59.25V11.2125H19.75V8.7208ZM57.9021 13.7041L54.4162 53.5708H24.5838L21.0979 13.7041H57.9021ZM61.7187 62.2916V67.2749H58.0156V69.7666H61.7187V71.0124H55.5469V73.5041H61.7187V74.7499H17.2812V62.2916C17.2832 60.6401 17.9341 59.0569 19.0911 57.8891C20.2481 56.7214 21.8168 56.0644 23.4531 56.0625H55.5469C57.1832 56.0644 58.7519 56.7214 59.9089 57.8891C61.0659 59.0569 61.7168 60.6401 61.7187 62.2916ZM69.125 42.3583C69.125 42.6887 68.9949 43.0056 68.7635 43.2392C68.532 43.4729 68.218 43.6041 67.8906 43.6041H57.7687L57.986 41.1125H65.4219C65.7492 41.1125 66.0632 40.9812 66.2947 40.7476C66.5262 40.5139 66.6562 40.197 66.6562 39.8666V23.6708C66.6562 23.3404 66.5262 23.0235 66.2947 22.7899C66.0632 22.5562 65.7492 22.425 65.4219 22.425H59.6203L59.8376 19.9333H67.8906C68.218 19.9333 68.532 20.0646 68.7635 20.2982C68.9949 20.5318 69.125 20.8487 69.125 21.1791V42.3583Z" fill="#173649"/>
<path d="M20.5029 13.099H58.661L54.9591 53.5352H24.4896L20.5029 13.099Z" fill="#EEECDB"/>
<path d="M38.2656 48.0179C38.2656 48.3325 38.5206 48.5875 38.8351 48.5875H40.1649C40.4794 48.5875 40.7344 48.3325 40.7344 48.0179V47.9111C40.7344 47.5966 40.9894 47.3416 41.3039 47.3416H42.6336C42.9481 47.3416 43.2031 47.0866 43.2031 46.7721V45.4195C43.2031 45.1049 42.9481 44.85 42.6336 44.85H41.3039C40.9894 44.85 40.7344 44.595 40.7344 44.2804V41.682C40.7344 41.3674 40.9894 41.1125 41.3039 41.1125H42.6336C42.9481 41.1125 43.2031 40.8575 43.2031 40.5429V39.1903C43.2031 38.8758 42.9481 38.6208 42.6336 38.6208H41.3039C40.9894 38.6208 40.7344 38.3658 40.7344 38.0513V35.4528C40.7344 35.1383 40.9894 34.8833 41.3039 34.8833H42.6336C42.9481 34.8833 43.2031 34.6283 43.2031 34.3138V32.9612C43.2031 32.6466 42.9481 32.3916 42.6336 32.3916H41.3039C40.9894 32.3916 40.7344 32.1366 40.7344 31.8221V29.2237C40.7344 28.9091 40.9894 28.6541 41.3039 28.6541H42.6336C42.9481 28.6541 43.2031 28.3991 43.2031 28.0846V26.732C43.2031 26.4174 42.9481 26.1625 42.6336 26.1625H41.3039C40.9894 26.1625 40.7344 25.9075 40.7344 25.5929V22.9945C40.7344 22.68 40.9894 22.425 41.3039 22.425H42.6336C42.9481 22.425 43.2031 22.17 43.2031 21.8554V20.5028C43.2031 20.1883 42.9481 19.9333 42.6336 19.9333H41.3039C40.9894 19.9333 40.7344 19.6783 40.7344 19.3638V19.257C40.7344 18.9425 40.4794 18.6875 40.1649 18.6875H38.8351C38.5206 18.6875 38.2656 18.9425 38.2656 19.257V19.3638C38.2656 19.6783 38.0106 19.9333 37.6961 19.9333H36.3664C36.0519 19.9333 35.7969 20.1883 35.7969 20.5028V21.8554C35.7969 22.17 36.0519 22.425 36.3664 22.425H37.6961C38.0106 22.425 38.2656 22.68 38.2656 22.9945V25.5929C38.2656 25.9075 38.0106 26.1625 37.6961 26.1625H36.3664C36.0519 26.1625 35.7969 26.4175 35.7969 26.732V28.0846C35.7969 28.3991 36.0519 28.6541 36.3664 28.6541H37.6961C38.0106 28.6541 38.2656 28.9091 38.2656 29.2237V31.8221C38.2656 32.1366 38.0106 32.3916 37.6961 32.3916H36.3664C36.0519 32.3916 35.7969 32.6466 35.7969 32.9612V34.3138C35.7969 34.6283 36.0519 34.8833 36.3664 34.8833H37.6961C38.0106 34.8833 38.2656 35.1383 38.2656 35.4528V38.0513C38.2656 38.3658 38.0106 38.6208 37.6961 38.6208H36.3664C36.0519 38.6208 35.7969 38.8758 35.7969 39.1903V40.5429C35.7969 40.8575 36.0519 41.1125 36.3664 41.1125H37.6961C38.0106 41.1125 38.2656 41.3674 38.2656 41.682V44.2804C38.2656 44.595 38.0106 44.85 37.6961 44.85H36.3664C36.0519 44.85 35.7969 45.1049 35.7969 45.4195V46.7721C35.7969 47.0866 36.0519 47.3416 36.3664 47.3416H37.6961C38.0106 47.3416 38.2656 47.5966 38.2656 47.9111V48.0179Z" fill="url(#paint1_linear_993_94)"/>
<path d="M38.2656 59.4337H37.8993V59.8V62.2917V62.658H38.2656H40.7344H41.1007V62.2917V59.8V59.4337H40.7344H38.2656ZM43.2031 71.3788H43.5695V71.0125V68.5208V68.1545H43.2031H35.7969H35.4305V68.5208V71.0125V71.3788H35.7969H43.2031ZM41.9687 64.417H37.0312C36.8021 64.417 36.5817 64.3252 36.4186 64.1606C36.2555 63.9959 36.1632 63.7718 36.1632 63.5375V58.5542C36.1632 58.3198 36.2555 58.0957 36.4186 57.931C36.5817 57.7665 36.8021 57.6746 37.0312 57.6746H41.9687C42.1979 57.6746 42.4183 57.7665 42.5814 57.931C42.7445 58.0957 42.8368 58.3198 42.8368 58.5542V63.5375C42.8368 63.7718 42.7445 63.9959 42.5814 64.1606C42.4183 64.3252 42.1979 64.417 41.9687 64.417ZM34.5625 66.3955H44.4375C44.6666 66.3955 44.8871 66.4873 45.0501 66.6519C45.2133 66.8166 45.3055 67.0406 45.3055 67.275V72.2583C45.3055 72.4927 45.2133 72.7167 45.0501 72.8814C44.8871 73.046 44.6666 73.1378 44.4375 73.1378H34.5625C34.3334 73.1378 34.1129 73.046 33.9499 72.8814C33.7867 72.7167 33.6945 72.4927 33.6945 72.2583V67.275C33.6945 67.0406 33.7867 66.8166 33.9499 66.6519C34.1129 66.4873 34.3334 66.3955 34.5625 66.3955Z" fill="url(#paint2_linear_993_94)" stroke="#173649" stroke-width="0.732658"/>
<path d="M55.5469 67.275H53.0781V69.7666H55.5469V67.275Z" fill="#173649"/>
<defs>
<linearGradient id="paint0_linear_993_94" x1="19.486" y1="6.78579" x2="47.1546" y2="30.3883" gradientUnits="userSpaceOnUse">
<stop stop-color="#8F845A"/>
<stop offset="0.16" stop-color="#C6BC84"/>
<stop offset="0.665" stop-color="#EFE7A3"/>
<stop offset="1" stop-color="#A59A6A"/>
</linearGradient>
<linearGradient id="paint1_linear_993_94" x1="35.9681" y1="14.5524" x2="44.3986" y2="14.7639" gradientUnits="userSpaceOnUse">
<stop stop-color="#8F845A"/>
<stop offset="0.16" stop-color="#C6BC84"/>
<stop offset="0.665" stop-color="#EFE7A3"/>
<stop offset="1" stop-color="#A59A6A"/>
</linearGradient>
<linearGradient id="paint2_linear_993_94" x1="33.6135" y1="55.0685" x2="47.5898" y2="56.1474" gradientUnits="userSpaceOnUse">
<stop stop-color="#8F845A"/>
<stop offset="0.16" stop-color="#C6BC84"/>
<stop offset="0.665" stop-color="#EFE7A3"/>
<stop offset="1" stop-color="#A59A6A"/>
</linearGradient>
</defs>
</svg>
