<svg width="95" height="19" viewBox="0 0 95 19" fill="none" xmlns="http://www.w3.org/2000/svg">
<path fill-rule="evenodd" clip-rule="evenodd" d="M90.5231 17.6514V11.5296H85.8216V17.6514H81.7554V2.12764H85.8216V7.83764H90.5231V2.12764H94.6126V17.6514H90.5231ZM74.1131 14.3041C75.5908 14.3041 76.2715 13.5696 76.9085 12.5149L80.064 14.6477C78.4753 16.9402 76.999 18.0184 73.9325 18.0184C69.5706 18.0184 66.7534 14.3961 66.7534 9.78704C66.7534 5.40704 69.2981 1.76154 73.9775 1.76154C76.5443 1.76154 78.3834 2.76954 79.9516 5.13154L76.8168 7.21764C76.1814 6.11704 75.3623 5.47514 73.9996 5.47514C72.2738 5.47514 70.6155 7.02004 70.6155 9.78664C70.615 12.8862 72.409 14.3041 74.1128 14.3041H74.1131ZM59.8831 8.11314L60.4295 8.22684C62.6404 8.69224 65.3132 9.37344 65.3132 12.9504C65.3132 16.3677 62.2232 18.0184 59.316 18.0184C55.9538 18.0184 54.2283 16.7344 52.866 15.1058L55.3404 12.6747C56.3871 14.0058 57.7497 14.6704 59.2712 14.6704C60.5201 14.6704 61.3612 14.0519 61.3612 13.1342C61.3612 12.1481 60.618 11.8417 58.5891 11.4142L58.0441 11.2996C55.6 10.7861 53.5917 9.39674 53.5917 6.62204C53.5917 3.57204 56.0678 1.73804 59.3383 1.73804C62.1104 1.73804 63.9045 2.92984 64.996 4.16804L62.586 6.55364C61.8368 5.75054 60.7017 5.10874 59.406 5.10874C58.5213 5.10874 57.52 5.52084 57.52 6.55364C57.52 7.49374 58.562 7.83454 59.8826 8.11314H59.8831ZM44.8579 18.0186C40.3605 18.0186 37.7255 14.4414 37.7255 9.87864C37.7255 5.33864 40.3605 1.73864 44.8579 1.73864C49.3789 1.73864 51.9921 5.33864 51.9921 9.87864C51.9921 14.4412 49.3789 18.0186 44.8579 18.0186ZM44.8579 5.47574C42.6544 5.47574 41.5642 7.44724 41.5642 9.87844C41.5642 12.3314 42.6542 14.3043 44.8579 14.3043C47.0616 14.3043 48.1751 12.3314 48.1751 9.87844C48.1751 7.44704 47.0616 5.47554 44.8579 5.47554V5.47574ZM31.4687 17.6514H23.542V2.12764H30.81C33.6039 2.12764 35.6268 3.52584 35.6268 6.39244C35.6268 8.84614 33.4918 9.57984 33.4918 9.57984C33.4918 9.60324 36.3074 10.2451 36.3074 13.3174C36.3074 15.9322 33.8997 17.6514 31.4687 17.6514ZM30.1978 5.36034H27.3578V8.25034H30.1299C31.1299 8.25034 31.6747 7.51724 31.6747 6.82944C31.674 5.95694 31.0825 5.36034 30.1978 5.36034ZM30.1296 11.3686H27.3575V14.4186H30.1975C31.3548 14.4186 32.1738 14.0065 32.1738 12.8827C32.174 11.9875 31.5154 11.3686 30.1296 11.3686Z" fill="white"/>
<path fill-rule="evenodd" clip-rule="evenodd" d="M12.5381 14.6238V12.9093H5.88637V15.6521L4.88566 14.9664C4.13096 14.2965 3.49422 13.5045 3.00205 12.6235C2.57427 11.7116 2.35317 10.7165 2.35452 9.7093C2.35452 8.68077 2.58997 7.76647 3.00205 6.85218C3.47295 5.99505 4.12048 5.13792 4.88574 4.50937L5.88637 3.82373V6.90934H12.5381V3.70948L13.4799 4.3952C14.3284 5.04069 15.0306 5.85864 15.5401 6.79518C15.974 7.70497 16.1954 8.70147 16.1876 9.70938C16.1952 10.7356 15.974 11.7507 15.5401 12.6808C15.0306 13.6172 14.3284 14.4352 13.4799 15.0807L12.5381 15.7664V14.6238ZM13.7153 6.16694V13.3096C13.9508 12.9667 14.2451 12.6239 14.4217 12.2239C14.8338 11.4807 15.0104 10.6239 15.0104 9.7097C15.0104 8.85257 14.8338 7.99544 14.4217 7.25256C14.2451 6.85258 13.9508 6.50936 13.7153 6.16694ZM5.88637 8.05261V11.7665H12.4203V8.05229H5.88637V8.05261ZM4.65021 13.0811V6.39519C4.47358 6.73801 4.23813 7.02375 4.06158 7.36657C3.76722 8.05229 3.53185 8.90942 3.53185 9.70938C3.53185 10.5665 3.7673 11.4236 4.06158 12.1093C4.23813 12.4522 4.47358 12.7378 4.65021 13.0807V13.0811ZM9.30049 0.738427C11.738 0.72873 14.0828 1.67201 15.8345 3.36698C17.4826 5.02407 18.5422 7.25256 18.5422 9.7097C18.5422 12.2239 17.4828 14.4524 15.8345 16.1095C14.0774 17.7962 11.7361 18.738 9.30053 18.738C6.86493 18.738 4.52367 17.7962 2.7666 16.1095C1.05945 14.4521 0 12.2236 0 9.70938C0 7.25224 1.05945 5.02376 2.7666 3.36666C4.51829 1.6717 6.86303 0.728426 9.30049 0.738111V0.738427ZM15.0104 4.16694C13.48 2.6865 11.4297 1.86578 9.30049 1.88129C7.15594 1.87652 5.09123 2.69447 3.53177 4.16663C2.11891 5.65231 1.17726 7.53798 1.17726 9.70938C1.17726 11.8808 2.11891 13.8235 3.53177 15.3092C5.09119 16.7815 7.15589 17.5996 9.30049 17.5949C11.4297 17.6104 13.48 16.7897 15.0104 15.3092C16.482 13.8235 17.3649 11.8807 17.3649 9.70938C17.3649 7.53806 16.482 5.65231 15.0104 4.16663V4.16694Z" fill="white"/>
</svg>
