<svg width="59" height="58" viewBox="0 0 59 58" fill="none" xmlns="http://www.w3.org/2000/svg">
<symbol id="deliveryicon" viewBox="0 0 59 58">
<g clip-path="url(#clip0_1200_6117)">
<path d="M42.0501 7.68935C42.0501 7.449 41.9546 7.2185 41.7846 7.04855C41.6147 6.8786 41.3842 6.78311 41.1438 6.7831H39.3384C38.8383 5.66143 37.966 4.74698 36.8691 4.19452C35.7723 3.64205 34.5182 3.48548 33.3192 3.75131C32.1202 4.01714 31.0498 4.68903 30.2892 5.6533C29.5287 6.61758 29.1246 7.815 29.1453 9.04296C29.1355 9.75087 29.2665 10.4537 29.5306 11.1105C29.7947 11.7674 30.1868 12.3652 30.6839 12.8693C31.181 13.3734 31.7734 13.7736 32.4265 14.0468C33.0797 14.32 33.7806 14.4607 34.4886 14.4607C35.1966 14.4607 35.8975 14.32 36.5506 14.0468C37.2038 13.7736 37.7961 13.3734 38.2932 12.8693C38.7904 12.3652 39.1824 11.7674 39.4465 11.1105C39.7107 10.4537 39.8416 9.75087 39.8318 9.04296C39.8318 8.89195 39.8215 8.74349 39.8095 8.59559H41.1438C41.3842 8.59557 41.6147 8.50009 41.7846 8.33014C41.9546 8.16019 42.0501 7.9297 42.0501 7.68935ZM34.4886 5.43744C35.0185 5.43894 35.5412 5.56085 36.0171 5.79397C36.493 6.02709 36.9097 6.36531 37.2358 6.7831H31.7414C32.0674 6.36532 32.4841 6.02709 32.96 5.79397C33.436 5.56085 33.9586 5.43894 34.4886 5.43744ZM38.0193 9.04296C38.0291 9.51283 37.9451 9.97993 37.772 10.4169C37.599 10.8539 37.3405 11.2519 37.0117 11.5877C36.6828 11.9234 36.2903 12.1902 35.857 12.3723C35.4238 12.5544 34.9585 12.6482 34.4886 12.6482C34.0186 12.6482 33.5533 12.5544 33.1201 12.3723C32.6868 12.1902 32.2943 11.9234 31.9655 11.5877C31.6366 11.2519 31.3781 10.8539 31.2051 10.4169C31.0321 9.97993 30.948 9.51283 30.9578 9.04296C30.9588 8.89336 30.9688 8.74396 30.9879 8.59559H37.9892C38.0083 8.74396 38.0184 8.89336 38.0193 9.04296ZM56.6877 17.2187H45.8127C45.3322 17.2192 44.8714 17.4103 44.5316 17.7501C44.1918 18.0899 44.0007 18.5506 44.0002 19.0312V23.6284L43.2108 23.7217C43.0975 23.7314 42.9834 23.7183 42.8753 23.6832C42.7671 23.6481 42.6671 23.5917 42.5811 23.5173L41.0057 22.1625L41.1607 19.9343C41.162 19.9135 41.1629 19.8923 41.1629 19.8715C41.1694 18.6822 40.7039 17.5388 39.8686 16.6923C39.0332 15.8457 37.8961 15.365 36.7068 15.3557H32.2698C31.0806 15.3651 29.9436 15.8458 29.1084 16.6924C28.2731 17.539 27.8077 18.6823 27.8143 19.8715C27.8143 19.8923 27.8152 19.9135 27.8165 19.9343L28.6781 32.3307L27.4019 41.2259L21.7688 50.9676C21.6718 51.1369 21.6319 51.3329 21.6553 51.5266L20.5377 53.7023C20.4282 53.9156 20.4077 54.1637 20.4807 54.3921C20.5537 54.6205 20.7142 54.8107 20.9271 54.921L26.5168 57.8167C26.6227 57.8717 26.7385 57.9052 26.8573 57.9152C26.9762 57.9253 27.0959 57.9118 27.2096 57.8755C27.3232 57.8392 27.4286 57.7808 27.5196 57.7037C27.6106 57.6265 27.6855 57.5322 27.7399 57.426L27.9457 57.0251C28.2465 56.4371 28.381 55.7781 28.3346 55.1192C28.2883 54.4603 28.0628 53.8267 27.6827 53.2865L32.6095 47.2739L32.3782 54.1307C32.3754 54.2399 32.3925 54.3488 32.4287 54.4519V57.0937C32.4287 57.334 32.5242 57.5645 32.6941 57.7345C32.8641 57.9044 33.0946 57.9999 33.3349 57.9999H39.6243C39.8646 57.9999 40.0951 57.9044 40.2651 57.7345C40.435 57.5645 40.5305 57.334 40.5305 57.0937V56.6543C40.5296 55.9837 40.3427 55.3266 39.9907 54.7558C39.6387 54.1851 39.1353 53.7232 38.5365 53.4214L40.685 42.5034C40.6991 42.4328 40.7045 42.3607 40.7013 42.2888L40.2766 32.6478L40.5406 28.8514C40.9937 29.1791 41.5382 29.3566 42.0974 29.3588C42.1824 29.3588 42.2677 29.3548 42.3532 29.3469L44.0002 29.1537V29.9062C44.0007 30.3867 44.1918 30.8475 44.5316 31.1873C44.8714 31.5271 45.3322 31.7182 45.8127 31.7187H56.6877C57.1683 31.7182 57.629 31.5271 57.9688 31.1873C58.3086 30.8475 58.4997 30.3867 58.5002 29.9062V19.0312C58.4997 18.5506 58.3086 18.0899 57.9688 17.7501C57.629 17.4103 57.1683 17.2192 56.6877 17.2187ZM26.4903 55.7622L22.5626 53.7271L23.1764 52.5328L25.5628 53.7687C25.9151 53.9528 26.1969 54.2478 26.3646 54.6082C26.5322 54.9686 26.5764 55.3742 26.4903 55.7622ZM26.3026 52.1111L23.9162 50.8749L29.0586 41.9817C29.1165 41.8816 29.1547 41.7714 29.171 41.6569L30.3353 33.5427H30.5098L30.669 33.601L32.7548 42.9658L32.7101 44.2916L26.3026 52.1111ZM34.2412 56.1874V54.8418H36.9055C37.3048 54.8422 37.6928 54.9743 38.0094 55.2176C38.3261 55.4609 38.5537 55.8018 38.657 56.1874H34.2412ZM36.7668 53.0293H34.2289L34.5704 42.9119C34.5731 42.8354 34.566 42.759 34.5492 42.6844L32.5128 33.5427H38.5016L38.8857 42.26L36.7668 53.0293ZM42.1634 27.5445C42.0496 27.5555 41.9348 27.5431 41.8261 27.508C41.7173 27.4729 41.6169 27.4159 41.531 27.3405L34.6443 21.4176C34.462 21.2617 34.2252 21.1844 33.986 21.2027C33.7467 21.2211 33.5245 21.3336 33.3681 21.5156C33.2117 21.6975 33.1338 21.9341 33.1516 22.1734C33.1693 22.4127 33.2813 22.6352 33.4628 22.792L38.8244 27.4032L38.5233 31.7302H30.8303L30.4435 31.5887L29.6268 19.8423C29.6273 19.1386 29.905 18.4634 30.3996 17.9629C30.8943 17.4625 31.5662 17.177 32.2698 17.1682H36.7068C37.4106 17.1769 38.0826 17.4623 38.5773 17.9628C39.0721 18.4633 39.3498 19.1385 39.3504 19.8423L39.2915 20.6883L36.9339 18.6608C36.8437 18.5829 36.739 18.5235 36.6258 18.4861C36.5126 18.4487 36.3932 18.434 36.2743 18.4428C36.1555 18.4516 36.0395 18.4838 35.9331 18.5375C35.8267 18.5912 35.7319 18.6654 35.6542 18.7558C35.5765 18.8462 35.5174 18.951 35.4803 19.0643C35.4431 19.1775 35.4287 19.297 35.4378 19.4159C35.447 19.5347 35.4794 19.6506 35.5334 19.7569C35.5874 19.8632 35.6618 19.9577 35.7524 20.0352L41.3992 24.8917C41.6729 25.1257 41.9908 25.3023 42.3341 25.411C42.6774 25.5197 43.039 25.5583 43.3975 25.5245L48.454 24.9196L48.6045 26.7892L42.1634 27.5445ZM45.8127 29.9062V28.9412L48.8027 28.5906C49.2698 28.5377 49.6982 28.3057 49.9977 27.9434C50.2972 27.5811 50.4445 27.1167 50.4086 26.648L50.2612 24.7776C50.2433 24.5366 50.1771 24.3018 50.0665 24.087C49.9559 23.8722 49.8031 23.6819 49.6174 23.5275C49.4335 23.3728 49.2201 23.2571 48.9902 23.1875C48.7602 23.1179 48.5184 23.0958 48.2797 23.1226L45.8127 23.4142V19.0312H50.3984V21.3375C50.3984 21.5779 50.4939 21.8084 50.6638 21.9783C50.8338 22.1483 51.0643 22.2438 51.3046 22.2438C51.545 22.2438 51.7755 22.1483 51.9455 21.9783C52.1154 21.8084 52.2109 21.5779 52.2109 21.3375V19.0312H56.6877L56.689 29.9062H45.8127ZM10.1294 11.0536C10.169 11.1302 10.2194 11.2008 10.2791 11.263L12.2049 13.2114C12.3739 13.3824 12.6039 13.4792 12.8443 13.4806C13.0847 13.482 13.3159 13.3879 13.4868 13.2189C13.6578 13.0499 13.7547 12.8199 13.7561 12.5795C13.7575 12.3391 13.6634 12.1079 13.4944 11.937L11.9373 10.3616C11.9284 10.2094 11.8851 10.0612 11.8107 9.92809C11.8235 9.86694 11.83 9.80462 11.8301 9.74213V5.55072C11.8301 5.31037 11.7346 5.07986 11.5647 4.90991C11.3947 4.73995 11.1642 4.64447 10.9239 4.64447C10.6835 4.64447 10.453 4.73995 10.283 4.90991C10.1131 5.07986 10.0176 5.31037 10.0176 5.55072V9.74213C10.0177 9.8046 10.0242 9.8669 10.0371 9.92804C9.93628 10.1028 9.89113 10.3041 9.90762 10.5052C9.92411 10.7063 10.0015 10.8976 10.1294 11.0536Z" fill="#173649"/>
<path d="M10.9238 2.34015e-07C8.64611 -0.000482337 6.43097 0.745395 4.61744 2.12348C2.80391 3.50156 1.49189 5.43593 0.882192 7.63053C0.272491 9.82513 0.398697 12.1591 1.24149 14.2751C2.08429 16.3912 3.59724 18.1728 5.5488 19.3473L6.20293 17.6132C5.13865 16.9143 4.24254 15.9881 3.57909 14.9013C2.91565 13.8145 2.50135 12.5942 2.36604 11.3281H3.44727C3.68762 11.3281 3.91813 11.2326 4.08808 11.0627C4.25804 10.8927 4.35352 10.6622 4.35352 10.4219C4.35352 10.1815 4.25804 9.95101 4.08808 9.78106C3.91813 9.6111 3.68762 9.51562 3.44727 9.51562H2.36316C2.57329 7.55754 3.44726 5.73036 4.83979 4.33783C6.23231 2.94531 8.0595 2.07133 10.0176 1.8612V2.60547C10.0176 2.84582 10.1131 3.07633 10.283 3.24628C10.453 3.41624 10.6835 3.51172 10.9238 3.51172C11.1642 3.51172 11.3947 3.41624 11.5646 3.24628C11.7346 3.07633 11.8301 2.84582 11.8301 2.60547V1.8612C13.7882 2.07133 15.6153 2.94531 17.0079 4.33783C18.4004 5.73036 19.2744 7.55754 19.4845 9.51562H19.0801C18.8397 9.51562 18.6092 9.6111 18.4393 9.78106C18.2693 9.95101 18.1738 10.1815 18.1738 10.4219C18.1738 10.6622 18.2693 10.8927 18.4393 11.0627C18.6092 11.2326 18.8397 11.3281 19.0801 11.3281H19.4834C19.3621 12.4622 19.0166 13.5609 18.4669 14.5603C17.9171 15.5597 17.1742 16.4398 16.2813 17.1494C16.2897 17.4893 16.2343 17.8277 16.1179 18.1471L15.5231 19.771C17.6351 18.7326 19.3334 17.0099 20.3415 14.8832C21.3495 12.7566 21.608 10.3513 21.0747 8.05908C20.5415 5.76683 19.2479 3.7226 17.4048 2.25924C15.5616 0.79588 13.2773 -0.000418035 10.9238 2.34015e-07Z" fill="#173649"/>
<path d="M13.5653 22.2784H12.6741L14.4163 17.5232C14.4665 17.3863 14.4828 17.2392 14.464 17.0946C14.4452 16.95 14.3918 16.812 14.3082 16.6925C14.2247 16.573 14.1135 16.4753 13.9842 16.408C13.8549 16.3406 13.7112 16.3054 13.5653 16.3054H9.26066C9.07651 16.3055 8.89674 16.3616 8.74529 16.4663C8.59383 16.5711 8.47786 16.7195 8.41282 16.8917L5.39229 24.8989C5.34057 25.036 5.32288 25.1837 5.34074 25.3291C5.3586 25.4746 5.41148 25.6136 5.49484 25.7342C5.5782 25.8547 5.68956 25.9533 5.81937 26.0214C5.94917 26.0894 6.09355 26.125 6.24013 26.1251H7.48445L6.77467 32.0604C6.75048 32.2633 6.79555 32.4684 6.90258 32.6425C7.0096 32.8165 7.1723 32.9493 7.36428 33.0193C7.55626 33.0893 7.76626 33.0924 7.96021 33.028C8.15415 32.9637 8.32066 32.8357 8.43273 32.6648L14.3234 23.6815C14.4129 23.5448 14.4639 23.3865 14.4708 23.2232C14.4777 23.0599 14.4404 22.8978 14.3627 22.754C14.285 22.6102 14.1699 22.49 14.0295 22.4063C13.8892 22.3226 13.7288 22.2784 13.5653 22.2784ZM10.6342 23.7037C10.7178 23.8232 10.8289 23.9208 10.9583 23.9882C11.0876 24.0556 11.2313 24.0908 11.3772 24.0909H11.8874L9.03278 28.4442L9.40581 25.3263C9.42095 25.1991 9.40896 25.0702 9.37065 24.948C9.33233 24.8257 9.26855 24.713 9.18351 24.6173C9.09847 24.5215 8.99411 24.4448 8.87729 24.3923C8.76046 24.3398 8.63384 24.3126 8.50575 24.3125H7.55039L9.88726 18.1179H12.2684L10.5262 22.8731C10.4761 23.01 10.4597 23.157 10.4785 23.3016C10.4973 23.4462 10.5507 23.5841 10.6342 23.7037Z" fill="#173649"/>
</g>
<defs>
<clipPath id="clip0_1200_6117">
<rect width="58" height="58" fill="white" transform="translate(0.5)"/>
</clipPath>
</defs>
</symbol>
</svg>
