<svg width="59" height="53" viewBox="0 0 59 53" fill="none" xmlns="http://www.w3.org/2000/svg">
<symbol id="ensureicon" viewBox="0 0 59 53">
<path d="M46.9898 20.6422L45.2214 22.4138L46.194 24.7168C46.6361 25.6911 46.1056 26.8427 45.133 27.2856L42.8342 28.2599V30.7401C42.8342 31.803 41.95 32.6888 40.889 32.6888H38.4134L37.4408 34.9919C36.9987 35.9662 35.8493 36.4977 34.8767 36.0548H34.6999L32.4894 35.169L30.7211 36.9406C30.5443 37.1177 30.279 37.2949 30.0138 37.3835H28.7759C28.5107 37.2949 28.157 37.1177 27.9802 36.9406L26.2119 35.169L24.0014 36.0548L23.8246 36.1434C22.852 36.5863 21.7026 36.0548 21.2605 35.0804L20.2879 32.7774H17.9007C16.8397 32.7774 15.9555 31.8916 15.9555 30.8287V28.3485L13.6567 27.3741C12.6841 26.9312 12.1536 25.7797 12.5957 24.8054L13.5683 22.5023L11.7999 20.7308C11.0042 19.9336 11.0042 18.6935 11.7999 17.9849L13.5683 16.2133L12.5957 13.7331C12.1536 12.7587 12.6841 11.6072 13.6567 11.1643L15.9555 10.19V7.70979C15.9555 6.64686 16.8397 5.76107 17.9007 5.76107H20.3764L21.3489 3.45804C21.791 2.48368 22.9404 1.95221 23.913 2.39511L26.2119 3.36946L27.9802 1.5979C28.7759 0.800699 30.0138 0.800699 30.7211 1.5979L32.4894 3.36946L34.7883 2.39511C35.7608 1.95221 36.9103 2.48368 37.3524 3.45804L38.3249 5.76107H40.889C41.95 5.76107 42.8342 6.64686 42.8342 7.70979V10.2786L45.133 11.2529C46.1056 11.6958 46.6361 12.8473 46.194 13.8217L45.2214 16.1247L46.9898 17.8963C47.7855 18.6049 47.7855 19.845 46.9898 20.6422Z" stroke="#173649" stroke-width="1.79961" stroke-miterlimit="10" stroke-linecap="round" stroke-linejoin="round"/>
<path d="M29.0857 37.3838L21.7039 51.9372L20.1031 43.974L12.0098 46.72L19.2137 32.6242H20.6367L21.615 35.004C22.0597 36.0109 23.2159 36.5601 24.1942 36.1024L24.372 36.0109L26.5955 35.0956L28.3742 36.9262C28.5521 37.1092 28.8189 37.2923 29.0857 37.3838ZM47.5847 46.6284L39.4914 43.8825L37.8905 51.8457L30.3308 37.2923C30.5977 37.2008 30.7755 37.0177 31.0423 36.8347L32.8211 35.004L35.0445 35.9193L35.2224 36.0109C36.2007 36.4685 37.3569 35.9194 37.8016 34.9125L38.7799 32.5327H40.3808L47.5847 46.6284Z" stroke="#173649" stroke-width="1.79961" stroke-miterlimit="10" stroke-linecap="round" stroke-linejoin="round"/>
<path d="M51.6289 14.7444L55.6715 12.3188" stroke="#173649" stroke-width="1.79961" stroke-miterlimit="10" stroke-linecap="round" stroke-linejoin="round"/>
<path d="M51.6289 18.7874H57.2886" stroke="#173649" stroke-width="1.79961" stroke-miterlimit="10" stroke-linecap="round" stroke-linejoin="round"/>
<path d="M51.6289 23.6389L55.6715 26.0645" stroke="#173649" stroke-width="1.79961" stroke-miterlimit="10" stroke-linecap="round" stroke-linejoin="round"/>
<path d="M7.15881 23.6389L3.11621 26.0645" stroke="#173649" stroke-width="1.79961" stroke-miterlimit="10" stroke-linecap="round" stroke-linejoin="round"/>
<path d="M7.15965 18.7874H1.5" stroke="#173649" stroke-width="1.79961" stroke-miterlimit="10" stroke-linecap="round" stroke-linejoin="round"/>
<path d="M7.15881 14.7444L3.11621 12.3188" stroke="#173649" stroke-width="1.79961" stroke-miterlimit="10" stroke-linecap="round" stroke-linejoin="round"/>
<path d="M24.1377 19.8336L27.2033 22.8299L34.6485 15.5532" stroke="#173649" stroke-width="1.79961" stroke-miterlimit="10" stroke-linecap="round" stroke-linejoin="round"/>
<path d="M29.3944 30.9156C35.8692 30.9156 41.118 25.6668 41.118 19.1921C41.118 12.7173 35.8692 7.46851 29.3944 7.46851C22.9197 7.46851 17.6709 12.7173 17.6709 19.1921C17.6709 25.6668 22.9197 30.9156 29.3944 30.9156Z" stroke="#173649" stroke-width="1.79961" stroke-miterlimit="10" stroke-linecap="round" stroke-linejoin="round"/>
</symbol>
</svg>
