<svg width="79" height="79" viewBox="0 0 79 79" fill="none" xmlns="http://www.w3.org/2000/svg">
<path d="M30.9877 65.7305H21.1436V73.4453H30.9877V65.7305Z" fill="url(#paint0_linear_985_8)"/>
<path d="M22.635 67.2221H30.9877V65.7305H21.1436V73.4453H22.635V67.2221Z" fill="url(#paint1_linear_985_8)"/>
<path d="M62.4857 65.7305H52.6416V73.4453H62.4857V65.7305Z" fill="url(#paint2_linear_985_8)"/>
<path d="M53.9917 67.0999H62.4857V65.7305H52.6416V73.4453H53.9917V67.0999Z" fill="url(#paint3_linear_985_8)"/>
<path d="M63.416 48.7578C66.3986 48.7578 68.8164 46.3399 68.8164 43.3574C68.8164 40.3748 66.3986 37.957 63.416 37.957C60.4335 37.957 58.0156 40.3748 58.0156 43.3574C58.0156 46.3399 60.4335 48.7578 63.416 48.7578Z" fill="#EEECDB"/>
<path d="M59.2756 45.209C59.2756 42.2264 61.6934 39.8086 64.676 39.8086C66.1279 39.8086 67.4449 40.3827 68.4154 41.3148C67.61 39.3452 65.6757 37.957 63.416 37.957C60.4335 37.957 58.0156 40.3748 58.0156 43.3574C58.0156 44.888 58.6535 46.2688 59.6766 47.2515C59.4188 46.6212 59.2756 45.9318 59.2756 45.209Z" fill="url(#paint4_linear_985_8)"/>
<path d="M42.4671 48.7578L47.2148 54.9297H16.3555L21.1032 48.7578H28.7378H33.2895H42.4671Z" fill="url(#paint5_linear_985_8)"/>
<path d="M21.8361 50.1272H29.4707H34.0225H43.2L46.8944 54.9297H47.2148L42.4671 48.7578H33.2895H28.7378H21.1032L16.3555 54.9297H18.1418L21.8361 50.1272Z" fill="url(#paint6_linear_985_8)"/>
<path d="M24.0703 36.4141V31.7852H30.2422H37.957V34.8711V41.043V44.0903C37.957 46.6686 35.8679 48.7578 33.2896 48.7578H28.7378C26.1595 48.7578 24.0703 46.6686 24.0703 44.0903V36.4141Z" fill="#EEECDB"/>
<path d="M25.4011 45.479V37.8027V33.1738H31.573H37.957V31.7852H30.2422H24.0703V36.4141V44.0903C24.0703 45.6921 24.8771 47.1047 26.1061 47.9453C25.6597 47.2297 25.4011 46.3847 25.4011 45.479Z" fill="#EEECDB"/>
<path d="M13.2695 11.7266V9.7207C13.2695 7.42014 15.135 5.55469 17.4355 5.55469H51.8437H66.09H70.7189C73.0765 5.55469 74.9883 7.46643 74.9883 9.82408V65.7305H70.3594H62.4856H52.6415H51.8437H30.9874H21.1433H13.2695V54.9297H16.3555H47.2148H51.8437V19.4414H38.8612H21.1433H13.2695V11.7266ZM71.9023 33.3281V30.2422H68.8164V33.3281H71.9023ZM71.9023 28.6992V25.6133H68.8164V28.6992H71.9023ZM68.8164 43.3574C68.8164 40.3749 66.3986 37.957 63.416 37.957C60.4335 37.957 58.0156 40.3749 58.0156 43.3574C58.0156 46.34 60.4335 48.7578 63.416 48.7578C66.3986 48.7578 68.8164 46.34 68.8164 43.3574ZM67.2734 33.3281V30.2422H64.1875V33.3281H67.2734ZM67.2734 28.6992V25.6133H64.1875V28.6992H67.2734ZM62.6445 33.3281V30.2422H59.5586V33.3281H62.6445ZM62.6445 28.6992V25.6133H59.5586V28.6992H62.6445ZM58.0156 33.3281V30.2422H54.9297V33.3281H58.0156ZM58.0156 28.6992V25.6133H54.9297V28.6992H58.0156Z" fill="#EEECDB"/>
<path d="M14.7739 56.4726H17.8599H48.7192H53.3481V20.9843H51.8438V54.9297H47.2148H16.3555H13.2695V65.7304H14.7739V56.4726Z" fill="#EEECDB"/>
<path d="M14.7739 13.2695V11.2637C14.7739 8.96311 16.6394 7.09766 18.9399 7.09766H53.3481H67.5944H72.2233C73.0299 7.09766 73.7841 7.3217 74.4277 7.71052C73.6925 6.42322 72.3074 5.55469 70.7189 5.55469H66.09H51.8438H17.4355C15.135 5.55469 13.2695 7.42014 13.2695 9.7207V11.7266V19.4414H14.7739V13.2695ZM67.9551 40.4333C68.4993 41.2763 68.8164 42.2795 68.8164 43.3574C68.8164 46.34 66.3986 48.7578 63.416 48.7578C62.2909 48.7578 61.2461 48.4134 60.3813 47.8246C61.3427 49.3139 63.0158 50.3008 64.9204 50.3008C67.903 50.3008 70.3208 47.8829 70.3208 44.9004C70.3208 43.0431 69.383 41.4051 67.9551 40.4333Z" fill="#EEECDB"/>
<path d="M38.8615 19.4414V24.3804C38.8615 25.9435 37.5947 27.2087 36.0332 27.2087H30.2424H23.9734C22.4103 27.2087 21.1436 25.9435 21.1436 24.3804V19.4414H38.8615Z" fill="url(#paint7_linear_985_8)"/>
<path d="M22.4358 25.692V20.7529H38.8615V19.4414H21.1436V24.3804C21.1436 25.4908 21.7844 26.448 22.7149 26.9111C22.5378 26.5417 22.4358 26.1292 22.4358 25.692Z" fill="url(#paint8_linear_985_8)"/>
<path d="M10.1836 24.0703V25.6133L2.46875 27.1562V20.9843L10.1836 22.5273V24.0703Z" fill="url(#paint9_linear_985_8)"/>
<path d="M3.61317 22.4887L10.1836 23.8029V22.5273L2.46875 20.9843V27.1562L3.61317 26.9274V22.4887Z" fill="url(#paint10_linear_985_8)"/>
<path d="M71.9023 30.2422H68.8164V33.3281H71.9023V30.2422Z" fill="#173649"/>
<path d="M71.9023 25.6133H68.8164V28.6992H71.9023V25.6133Z" fill="#173649"/>
<path d="M67.2734 30.2422H64.1875V33.3281H67.2734V30.2422Z" fill="#173649"/>
<path d="M67.2734 25.6133H64.1875V28.6992H67.2734V25.6133Z" fill="#173649"/>
<path d="M62.6445 30.2422H59.5586V33.3281H62.6445V30.2422Z" fill="#173649"/>
<path d="M62.6445 25.6133H59.5586V28.6992H62.6445V25.6133Z" fill="#173649"/>
<path d="M58.0156 30.2422H54.9297V33.3281H58.0156V30.2422Z" fill="#173649"/>
<path d="M58.0156 25.6133H54.9297V28.6992H58.0156V25.6133Z" fill="#173649"/>
<path d="M52.6415 66.5019H30.9874C30.5614 66.5019 30.216 66.1566 30.216 65.7305C30.216 65.3043 30.5614 64.959 30.9874 64.959H52.6415C53.0676 64.959 53.4129 65.3043 53.4129 65.7305C53.4129 66.1566 53.0676 66.5019 52.6415 66.5019ZM21.1433 66.5019H13.2695C12.8435 66.5019 12.498 66.1566 12.498 65.7305V54.9297C12.498 54.5035 12.8435 54.1582 13.2695 54.1582H16.3555C16.7815 54.1582 17.127 54.5035 17.127 54.9297C17.127 55.3559 16.7815 55.7012 16.3555 55.7012H14.041V64.959H21.1433C21.5693 64.959 21.9148 65.3043 21.9148 65.7305C21.9148 66.1566 21.5693 66.5019 21.1433 66.5019ZM51.8437 55.7012H47.2148C46.7887 55.7012 46.4434 55.3559 46.4434 54.9297C46.4434 54.5035 46.7887 54.1582 47.2148 54.1582H51.0723V20.2129H38.8612C38.4352 20.2129 38.0897 19.8676 38.0897 19.4414C38.0897 19.0154 38.4352 18.6699 38.8612 18.6699H51.8437C52.2699 18.6699 52.6152 19.0154 52.6152 19.4414V54.9297C52.6152 55.3559 52.2699 55.7012 51.8437 55.7012Z" fill="#173649"/>
<path d="M74.9883 66.5019H62.4856C62.0594 66.5019 61.7141 66.1566 61.7141 65.7305C61.7141 65.3043 62.0594 64.959 62.4856 64.959H74.2168V9.82408C74.2168 7.89537 72.6476 6.32617 70.7189 6.32617H17.4355C15.5638 6.32617 14.041 7.84893 14.041 9.7207V18.6699H21.1433C21.5693 18.6699 21.9148 19.0154 21.9148 19.4414C21.9148 19.8676 21.5693 20.2129 21.1433 20.2129H13.2695C12.8435 20.2129 12.498 19.8676 12.498 19.4414V9.7207C12.498 6.99813 14.713 4.7832 17.4355 4.7832H70.7189C73.4985 4.7832 75.7598 7.04458 75.7598 9.82408V65.7305C75.7598 66.1566 75.4144 66.5019 74.9883 66.5019Z" fill="#173649"/>
<path d="M36.0332 27.9802H23.9734C21.9876 27.9802 20.3721 26.3653 20.3721 24.3804V19.4414C20.3721 19.0154 20.7175 18.6699 21.1436 18.6699H38.8615C39.2875 18.6699 39.6329 19.0154 39.6329 19.4414V24.3804C39.6329 26.3653 38.0181 27.9802 36.0332 27.9802ZM21.915 20.2129V24.3804C21.915 25.5147 22.8384 26.4372 23.9734 26.4372H36.0332C37.1673 26.4372 38.09 25.5147 38.09 24.3804V20.2129H21.915Z" fill="#173649"/>
<path d="M30.2424 32.5566C29.8164 32.5566 29.471 32.2113 29.471 31.7851V27.2087C29.471 26.7827 29.8164 26.4372 30.2424 26.4372C30.6685 26.4372 31.0139 26.7827 31.0139 27.2087V31.7851C31.0139 32.2113 30.6685 32.5566 30.2424 32.5566ZM30.9877 74.2168C30.5617 74.2168 30.2162 73.8714 30.2162 73.4453V66.5019H21.915V73.4453C21.915 73.8714 21.5696 74.2168 21.1436 74.2168C20.7175 74.2168 20.3721 73.8714 20.3721 73.4453V65.7304C20.3721 65.3043 20.7175 64.9589 21.1436 64.9589H30.9877C31.4137 64.9589 31.7592 65.3043 31.7592 65.7304V73.4453C31.7592 73.8714 31.4137 74.2168 30.9877 74.2168ZM62.4859 74.2168C62.0597 74.2168 61.7144 73.8714 61.7144 73.4453V66.5019H53.4132V73.4453C53.4132 73.8714 53.0679 74.2168 52.6417 74.2168C52.2156 74.2168 51.8702 73.8714 51.8702 73.4453V65.7304C51.8702 65.3043 52.2156 64.9589 52.6417 64.9589H62.4859C62.912 64.9589 63.2573 65.3043 63.2573 65.7304V73.4453C63.2573 73.8714 62.9119 74.2168 62.4859 74.2168ZM63.4163 49.5293C60.0131 49.5293 57.2444 46.7606 57.2444 43.3574C57.2444 39.9542 60.0131 37.1855 63.4163 37.1855C66.8194 37.1855 69.5881 39.9542 69.5881 43.3574C69.5881 46.7606 66.8194 49.5293 63.4163 49.5293ZM63.4163 38.7285C60.8639 38.7285 58.7874 40.805 58.7874 43.3574C58.7874 45.9098 60.8639 47.9863 63.4163 47.9863C65.9686 47.9863 68.0452 45.9098 68.0452 43.3574C68.0452 40.805 65.9686 38.7285 63.4163 38.7285Z" fill="#173649"/>
<path d="M76.5312 74.2168H7.09766C6.67164 74.2168 6.32617 73.8714 6.32617 73.4453C6.32617 73.0191 6.67164 72.6738 7.09766 72.6738H76.5312C76.9574 72.6738 77.3027 73.0191 77.3027 73.4453C77.3027 73.8714 76.9574 74.2168 76.5312 74.2168ZM68.8164 55.7011H58.0156C57.5895 55.7011 57.2441 55.3558 57.2441 54.9297C57.2441 54.5035 57.5895 54.1582 58.0156 54.1582H68.8164C69.2426 54.1582 69.5879 54.5035 69.5879 54.9297C69.5879 55.3558 69.2426 55.7011 68.8164 55.7011ZM68.8164 60.33H58.0156C57.5895 60.33 57.2441 59.9847 57.2441 59.5586C57.2441 59.1324 57.5895 58.7871 58.0156 58.7871H68.8164C69.2426 58.7871 69.5879 59.1324 69.5879 59.5586C69.5879 59.9847 69.2426 60.33 68.8164 60.33ZM33.2896 49.5293C32.8635 49.5293 32.5181 49.184 32.5181 48.7578C32.5181 48.3316 32.8635 47.9863 33.2896 47.9863C35.4378 47.9863 37.1855 46.2386 37.1855 44.0903V41.0429C37.1855 40.6168 37.531 40.2715 37.957 40.2715C38.383 40.2715 38.7285 40.6168 38.7285 41.0429V44.0903C38.7285 47.0892 36.2886 49.5293 33.2896 49.5293ZM28.7378 49.5293C25.7387 49.5293 23.2988 47.0892 23.2988 44.0903V31.7851C23.2988 31.3591 23.6443 31.0136 24.0703 31.0136H37.957C38.383 31.0136 38.7285 31.3591 38.7285 31.7851V34.8711C38.7285 35.2972 38.383 35.6425 37.957 35.6425C37.531 35.6425 37.1855 35.2972 37.1855 34.8711V32.5566H24.8418V44.0903C24.8418 46.2386 26.5895 47.9863 28.7378 47.9863C29.1638 47.9863 29.5093 48.3316 29.5093 48.7578C29.5093 49.184 29.1638 49.5293 28.7378 49.5293Z" fill="#173649"/>
<path d="M47.2148 55.7012H16.3555C16.0615 55.7012 15.7932 55.5342 15.6633 55.2705C15.5335 55.0068 15.5647 54.6922 15.744 54.4592L20.4917 48.2874C20.6377 48.0976 20.8637 47.9863 21.1032 47.9863H42.4671C42.7067 47.9863 42.9326 48.0976 43.0786 48.2874L47.8263 54.4592C48.0056 54.6922 48.0368 55.0068 47.9069 55.2705C47.7772 55.5342 47.5088 55.7012 47.2148 55.7012ZM17.9222 54.1582H45.648L42.0872 49.5293H21.4831L17.9222 54.1582ZM33.3281 37.1855H24.0703C23.6443 37.1855 23.2988 36.8402 23.2988 36.4141C23.2988 35.988 23.6443 35.6426 24.0703 35.6426H33.3281C33.7541 35.6426 34.0996 35.988 34.0996 36.4141C34.0996 36.8402 33.7541 37.1855 33.3281 37.1855ZM42.5859 41.8145H37.957C37.531 41.8145 37.1855 41.4691 37.1855 41.043V34.8711C37.1855 34.4451 37.531 34.0996 37.957 34.0996H42.5859C43.0121 34.0996 43.3574 34.4451 43.3574 34.8711V41.043C43.3574 41.4691 43.0121 41.8145 42.5859 41.8145ZM38.7285 40.2715H41.8144V35.6426H38.7285V40.2715ZM20.9844 24.8418H10.1836C9.75758 24.8418 9.41211 24.4965 9.41211 24.0703C9.41211 23.6443 9.75758 23.2988 10.1836 23.2988H20.9844C21.4104 23.2988 21.7559 23.6443 21.7559 24.0703C21.7559 24.4965 21.4104 24.8418 20.9844 24.8418Z" fill="#173649"/>
<path d="M2.46875 27.9277C2.29193 27.9277 2.11865 27.8669 1.97963 27.7529C1.8008 27.6063 1.69727 27.3874 1.69727 27.1562V20.9843C1.69727 20.7532 1.8008 20.5343 1.97963 20.3878C2.1583 20.2413 2.39345 20.1822 2.61996 20.228L10.3348 21.771C10.6954 21.843 10.9551 22.1598 10.9551 22.5273V25.6133C10.9551 25.9811 10.6955 26.2977 10.3348 26.3698L2.61996 27.9127C2.56981 27.9229 2.5192 27.9277 2.46875 27.9277ZM3.24023 21.9256V26.2153L9.41211 24.9809V23.1599L3.24023 21.9256ZM62.6445 12.498H13.2695C12.8435 12.498 12.498 12.1527 12.498 11.7265C12.498 11.3005 12.8435 10.955 13.2695 10.955H62.6445C63.0707 10.955 63.416 11.3005 63.416 11.7265C63.416 12.1527 63.0707 12.498 62.6445 12.498Z" fill="#173649"/>
<defs>
<linearGradient id="paint0_linear_985_8" x1="21.3712" y1="64.6635" x2="32.3995" y2="66.0889" gradientUnits="userSpaceOnUse">
<stop stop-color="#8F845A"/>
<stop offset="0.16" stop-color="#C6BC84"/>
<stop offset="0.665" stop-color="#EFE7A3"/>
<stop offset="1" stop-color="#A59A6A"/>
</linearGradient>
<linearGradient id="paint1_linear_985_8" x1="21.3712" y1="64.6635" x2="32.3995" y2="66.0889" gradientUnits="userSpaceOnUse">
<stop stop-color="#8F845A"/>
<stop offset="0.16" stop-color="#C6BC84"/>
<stop offset="0.665" stop-color="#EFE7A3"/>
<stop offset="1" stop-color="#A59A6A"/>
</linearGradient>
<linearGradient id="paint2_linear_985_8" x1="52.8692" y1="64.6635" x2="63.8975" y2="66.0889" gradientUnits="userSpaceOnUse">
<stop stop-color="#8F845A"/>
<stop offset="0.16" stop-color="#C6BC84"/>
<stop offset="0.665" stop-color="#EFE7A3"/>
<stop offset="1" stop-color="#A59A6A"/>
</linearGradient>
<linearGradient id="paint3_linear_985_8" x1="52.8692" y1="64.6635" x2="63.8975" y2="66.0889" gradientUnits="userSpaceOnUse">
<stop stop-color="#8F845A"/>
<stop offset="0.16" stop-color="#C6BC84"/>
<stop offset="0.665" stop-color="#EFE7A3"/>
<stop offset="1" stop-color="#A59A6A"/>
</linearGradient>
<linearGradient id="paint4_linear_985_8" x1="58.2561" y1="36.6716" x2="69.9512" y2="37.997" gradientUnits="userSpaceOnUse">
<stop stop-color="#8F845A"/>
<stop offset="0.16" stop-color="#C6BC84"/>
<stop offset="0.665" stop-color="#EFE7A3"/>
<stop offset="1" stop-color="#A59A6A"/>
</linearGradient>
<linearGradient id="paint5_linear_985_8" x1="17.069" y1="47.9043" x2="45.0429" y2="62.0716" gradientUnits="userSpaceOnUse">
<stop stop-color="#8F845A"/>
<stop offset="0.16" stop-color="#C6BC84"/>
<stop offset="0.665" stop-color="#EFE7A3"/>
<stop offset="1" stop-color="#A59A6A"/>
</linearGradient>
<linearGradient id="paint6_linear_985_8" x1="17.069" y1="47.9043" x2="45.0429" y2="62.0716" gradientUnits="userSpaceOnUse">
<stop stop-color="#8F845A"/>
<stop offset="0.16" stop-color="#C6BC84"/>
<stop offset="0.665" stop-color="#EFE7A3"/>
<stop offset="1" stop-color="#A59A6A"/>
</linearGradient>
<linearGradient id="paint7_linear_985_8" x1="21.5532" y1="18.3672" x2="40.7112" y2="22.7937" gradientUnits="userSpaceOnUse">
<stop stop-color="#8F845A"/>
<stop offset="0.16" stop-color="#C6BC84"/>
<stop offset="0.665" stop-color="#EFE7A3"/>
<stop offset="1" stop-color="#A59A6A"/>
</linearGradient>
<linearGradient id="paint8_linear_985_8" x1="21.5532" y1="18.4084" x2="40.6327" y2="22.9923" gradientUnits="userSpaceOnUse">
<stop stop-color="#8F845A"/>
<stop offset="0.16" stop-color="#C6BC84"/>
<stop offset="0.665" stop-color="#EFE7A3"/>
<stop offset="1" stop-color="#A59A6A"/>
</linearGradient>
<linearGradient id="paint9_linear_985_8" x1="2.64713" y1="20.1308" x2="11.2957" y2="21.2258" gradientUnits="userSpaceOnUse">
<stop stop-color="#8F845A"/>
<stop offset="0.16" stop-color="#C6BC84"/>
<stop offset="0.665" stop-color="#EFE7A3"/>
<stop offset="1" stop-color="#A59A6A"/>
</linearGradient>
<linearGradient id="paint10_linear_985_8" x1="2.64713" y1="20.1308" x2="11.2957" y2="21.2258" gradientUnits="userSpaceOnUse">
<stop stop-color="#8F845A"/>
<stop offset="0.16" stop-color="#C6BC84"/>
<stop offset="0.665" stop-color="#EFE7A3"/>
<stop offset="1" stop-color="#A59A6A"/>
</linearGradient>
</defs>
</svg>
