<svg width="79" height="79" viewBox="0 0 79 79" fill="none" xmlns="http://www.w3.org/2000/svg">
<path d="M36.9112 36.1206C36.9112 36.1206 15.3658 17.6927 31.4497 5.97899C38.7569 0.657294 48.3912 4.74678 52.6928 7.08345C53.7063 7.63398 53.7998 9.04395 52.8711 9.72625C48.9382 12.6156 41.1335 20.567 45.5131 36.1207M42.0889 42.8796C42.0889 42.8796 63.6343 61.3074 47.5504 73.0211C40.2432 78.3428 30.6089 74.2533 26.3073 71.9167C25.2939 71.3661 25.2004 69.9562 26.1291 69.2739C30.062 66.3845 37.8666 58.4331 33.487 42.8794" fill="#EEECDB"/>
<path d="M42.8982 36.9257C42.8982 36.9257 61.4295 15.5008 73.2093 31.4948C78.561 38.7611 74.4485 48.3415 72.0987 52.6191C71.5451 53.6268 70.1271 53.7198 69.4409 52.7964C66.5354 48.8856 58.5393 41.1244 42.898 45.4794M36.1011 42.0744C36.1011 42.0744 17.5697 63.4993 5.78994 47.5054C0.438307 40.2391 4.55078 30.6586 6.90057 26.381C7.45419 25.3733 8.87217 25.2803 9.55833 26.2038C12.4639 30.1146 20.46 37.8757 36.1013 33.5207" fill="#EEECDB"/>
<path d="M47.5559 39.4934C47.5559 43.9172 43.9421 47.5108 39.4932 47.5108C35.0444 47.5108 31.4443 43.9172 31.4443 39.4934C31.4443 35.0695 35.0444 31.4895 39.4932 31.4895C43.9421 31.4895 47.5559 35.0694 47.5559 39.4934Z" fill="url(#paint0_linear_985_41)"/>
<path d="M60.0395 22.8271C60.4368 23.3107 61.1482 23.3786 61.6288 22.9837C62.1107 22.5883 62.1809 21.8767 61.7854 21.3953C59.2906 18.3542 56.2503 15.8977 52.7484 14.0916C52.1938 13.8065 51.5131 14.0233 51.2275 14.5775C50.9416 15.1317 51.1591 15.8125 51.7134 16.0984C54.9399 17.7625 57.7413 20.0265 60.0395 22.8271ZM57.695 61.6671C60.7595 59.173 63.2305 56.1496 65.0395 52.6808C65.3276 52.128 65.1134 51.4458 64.5603 51.1577C64.0074 50.8697 63.3253 51.0843 63.0372 51.637C61.3716 54.8316 59.0946 57.6168 56.2697 59.9161C55.786 60.3094 55.7129 61.0209 56.1065 61.5046C56.499 61.9861 57.2096 62.0622 57.695 61.6671ZM18.9668 56.1767C18.5713 55.6953 17.8594 55.6239 17.3775 56.0193C16.8953 56.4148 16.8251 57.1264 17.2201 57.6086C19.675 60.6018 22.7964 63.1275 26.2476 64.9116C26.7973 65.1969 27.4812 64.9841 27.7693 64.4273C28.0556 63.8738 27.8387 63.1923 27.2849 62.9064C24.1041 61.2613 21.2278 58.9348 18.9668 56.1767ZM22.7256 19.0803C23.2101 18.6878 23.2843 17.977 22.8913 17.4926C22.498 17.0075 21.7872 16.9333 21.3031 17.3264C18.2927 19.7676 15.7526 22.8719 13.9578 26.3039C13.669 26.8568 13.8825 27.5389 14.4349 27.8277C14.9861 28.116 15.6695 27.9038 15.9588 27.3507C17.6124 24.1893 19.9521 21.3291 22.7256 19.0803ZM47.9842 19.9433C47.7089 20.5027 47.9389 21.1789 48.4983 21.4547C50.279 22.3317 51.9175 23.4681 53.3677 24.8338C53.8198 25.2607 54.5356 25.2408 54.9636 24.7859C55.3915 24.3317 55.3697 23.6171 54.9158 23.19C53.3015 21.6699 51.4782 20.4041 49.4957 19.4286C48.9365 19.1547 48.2594 19.384 47.9842 19.9433ZM59.1651 47.9329C58.608 47.6566 57.9298 47.8822 57.6509 48.4401C56.7687 50.211 55.6257 51.8399 54.2534 53.2806C53.8234 53.7319 53.841 54.4464 54.2923 54.8765C54.7444 55.3065 55.4581 55.2897 55.8889 54.8374C57.4165 53.2335 58.6893 51.4201 59.6725 49.4471C59.9502 48.8893 59.7234 48.2114 59.1651 47.9329ZM31.0212 59.0517C31.2965 58.4924 31.0664 57.8161 30.5071 57.5404C28.7194 56.6604 27.0772 55.5256 25.6262 54.1679C25.1709 53.7408 24.4567 53.7651 24.0303 54.2201C23.6043 54.6759 23.6279 55.3903 24.0833 55.816C25.6964 57.3265 27.5224 58.5879 29.5096 59.5663C30.0745 59.8428 30.7481 59.6072 31.0212 59.0517ZM19.837 31.0738C20.3894 31.3449 21.0703 31.1245 21.3484 30.5579C22.2129 28.7981 23.353 27.1647 24.7367 25.7034C25.1652 25.2505 25.1458 24.5361 24.693 24.1075C24.2399 23.6775 23.5247 23.698 23.0968 24.1508C21.5568 25.7776 20.2866 27.5983 19.3218 29.5625C19.0469 30.122 19.2777 30.799 19.837 31.0738Z" fill="url(#paint1_linear_985_41)"/>
<path d="M15.8431 54.5536C22.1021 54.807 28.489 50.7238 33.1737 46.5652C35.4481 59.3532 28.6831 65.9972 25.4612 68.3643C24.711 68.9148 24.3009 69.7969 24.3637 70.7231C24.4265 71.6478 24.9517 72.4653 25.7687 72.9092C32.8196 76.7386 41.6676 78.7031 48.215 73.9339C52.3068 70.954 54.4661 67.2814 54.6326 63.0188C54.8939 56.3285 50.1652 49.761 46.6093 45.7962C59.4702 43.5359 66.1539 50.2646 68.535 53.4686C69.0899 54.2168 69.978 54.6226 70.8995 54.5579C71.8249 54.4947 72.6435 53.9736 73.0889 53.1628C75.3346 49.075 79.93 38.7149 74.1192 30.8252C71.1249 26.7603 67.437 24.6139 63.1578 24.4463C56.4243 24.1917 49.8119 28.9008 45.8271 32.4349C43.5528 19.6469 50.3178 13.0027 53.5397 10.6356C54.2899 10.0851 54.7 9.20299 54.6372 8.27675C54.5744 7.35205 54.0492 6.53458 53.2322 6.09067C49.1246 3.85969 38.7125 -0.708109 30.7855 5.06599C26.6937 8.04592 24.5345 11.7185 24.368 15.9811C24.1065 22.6737 28.8367 29.2389 32.393 33.2029C19.5269 35.4634 12.8462 28.7347 10.4655 25.5304C9.91208 24.785 9.02626 24.3762 8.10048 24.4417C7.17532 24.5049 6.35723 25.0268 5.91209 25.8368C3.66645 29.9254 -0.929281 40.2847 4.88154 48.1744C7.87567 52.2396 11.5635 54.386 15.8431 54.5536ZM46.4271 39.4935C46.4271 43.2916 43.3166 46.3819 39.4934 46.3819C35.678 46.3819 32.5738 43.2916 32.5738 39.4935C32.5738 35.7027 35.6781 32.6183 39.4934 32.6183C43.3166 32.6183 46.4271 35.7027 46.4271 39.4935ZM46.8858 72.108C40 77.1249 30.5774 72.9518 26.8469 70.9245C26.661 70.8237 26.623 70.6591 26.6169 70.5695C26.611 70.4798 26.6261 70.3099 26.798 70.1843C30.237 67.6579 37.3198 60.7562 35.6445 47.7854C38.6223 49.164 42.029 48.8448 44.6725 47.0434C48.0033 50.7076 52.612 56.8983 52.3764 62.9305C52.2382 66.4678 50.3909 69.5559 46.8858 72.108ZM63.0737 26.7032C66.6311 26.8436 69.7353 28.6813 72.3008 32.1648C77.3397 39.0062 73.1468 48.3682 71.1104 52.0751C71.0082 52.2611 70.8384 52.2993 70.7466 52.3052C70.6529 52.3118 70.4775 52.2964 70.3485 52.123C67.8078 48.7039 60.8671 41.6633 47.8264 43.3301C49.2248 40.3353 48.873 36.9557 47.0894 34.3589C51.3294 30.5526 57.3878 26.4565 63.0737 26.7032ZM32.1148 6.89209C39.0021 1.8759 48.4232 6.04824 52.1541 8.07555C52.34 8.1763 52.378 8.34094 52.3841 8.43058C52.39 8.52023 52.3749 8.69011 52.203 8.81571C48.7636 11.3425 41.6749 18.242 43.3518 31.215C40.3798 29.8416 36.9754 30.1485 34.3269 31.951C30.9958 28.2835 26.3868 22.0889 26.6246 16.065C26.7638 12.5293 28.611 9.44354 32.1148 6.89209ZM7.8911 26.9243C7.99293 26.739 8.16235 26.7009 8.25416 26.695C8.35013 26.6891 8.52356 26.7038 8.65255 26.8772C11.1921 30.2958 18.1353 37.327 31.1733 35.6627C29.7658 38.6775 30.1424 42.0619 31.9164 44.645C28.228 47.961 22.0008 52.5417 15.9318 52.2976C12.3727 52.158 9.2665 50.3203 6.69993 46.8352C1.66136 39.9948 5.85423 30.632 7.8911 26.9243Z" fill="#173649"/>
<defs>
<linearGradient id="paint0_linear_985_41" x1="31.8169" y1="29.2738" x2="49.9795" y2="31.1239" gradientUnits="userSpaceOnUse">
<stop stop-color="#8F845A"/>
<stop offset="0.16" stop-color="#C6BC84"/>
<stop offset="0.665" stop-color="#EFE7A3"/>
<stop offset="1" stop-color="#A59A6A"/>
</linearGradient>
<linearGradient id="paint1_linear_985_41" x1="15.0161" y1="6.90292" x2="72.8909" y2="12.7956" gradientUnits="userSpaceOnUse">
<stop stop-color="#8F845A"/>
<stop offset="0.16" stop-color="#C6BC84"/>
<stop offset="0.665" stop-color="#EFE7A3"/>
<stop offset="1" stop-color="#A59A6A"/>
</linearGradient>
</defs>
</svg>
