<svg width="79" height="79" viewBox="0 0 79 79" fill="none" xmlns="http://www.w3.org/2000/svg">
<path d="M63.9073 35.7928C64.539 35.4461 65.0976 34.9727 65.5505 34.4002C66.0035 33.8278 66.3418 33.1677 66.5456 32.4586C66.7494 31.7495 66.8147 31.0054 66.7377 30.2699C66.6607 29.5344 66.443 28.8221 66.0971 28.1745C65.7512 27.527 65.2842 26.9572 64.7233 26.4984C64.1624 26.0395 63.5188 25.7009 62.83 25.5021C62.1412 25.3033 61.4211 25.2484 60.7117 25.3407C60.0022 25.4329 59.3176 25.6703 58.6977 26.0392L57.8709 24.4918C31.5008 24.0837 15.4425 29.9364 8.07461 51.7721C7.48775 53.5174 8.14034 55.7028 9.95992 55.7028H64.5139C65.554 49.2317 65.6304 42.9582 64.5139 36.9289L63.9073 35.7928ZM55.3683 45.8761H22.9479C20.8207 45.8761 19.7323 43.2483 21.1895 41.644C23.1796 39.4572 25.5188 37.6411 28.1044 36.2754C29.1735 35.707 30.273 35.2021 31.3976 34.7633C31.4464 34.2637 31.636 33.7901 31.9427 33.401C32.2494 33.012 32.6598 32.7247 33.123 32.5749C33.5861 32.4251 34.0816 32.4194 34.5479 32.5584C35.0141 32.6974 35.4307 32.9751 35.7458 33.3569C36.6602 33.1171 37.6105 32.8991 38.5969 32.7029C38.7019 32.1945 38.9538 31.7312 39.3192 31.3744C39.6846 31.0176 40.1463 30.7842 40.6429 30.7053C41.1395 30.6263 41.6476 30.7054 42.0997 30.9322C42.5518 31.159 42.9266 31.5227 43.1743 31.975C44.0267 31.8706 44.9035 31.7789 45.8049 31.7C45.903 31.134 46.1823 30.6185 46.5979 30.2366C47.0134 29.8546 47.541 29.6283 48.0959 29.5941C48.6507 29.5599 49.2006 29.7198 49.657 30.048C50.1134 30.3762 50.4499 30.8537 50.6123 31.4037C51.697 31.3626 52.8136 31.336 53.9621 31.3238L58.1938 39.2455C58.3502 40.2379 58.4704 41.2496 58.5546 42.2804C58.5926 42.7374 58.5385 43.1975 58.3957 43.6316C58.2529 44.0657 58.0244 44.4645 57.7249 44.8025C57.4254 45.1405 57.0612 45.4105 56.6556 45.5953C56.2499 45.7801 55.8116 45.8757 55.3683 45.8761Z" fill="#EEECDB"/>
<path d="M23.0109 47.1697H55.4314C56.0338 47.1693 56.6296 47.0395 57.181 46.7884C57.7324 46.5373 58.2274 46.1705 58.6346 45.7111C59.0419 45.2518 59.3525 44.7099 59.5467 44.1199C59.741 43.5299 59.8147 42.9046 59.7632 42.2835C59.6768 41.2264 59.5517 40.1751 59.3917 39.1576C59.3704 39.0228 59.3269 38.8927 59.263 38.7733L55.0312 30.8516C54.9317 30.6627 54.7842 30.5056 54.6046 30.3973C54.425 30.289 54.2201 30.2337 54.0123 30.2372C53.1349 30.2462 52.2586 30.2644 51.398 30.2913C51.0537 29.7122 50.564 29.2407 49.9811 28.927C49.3983 28.6132 48.744 28.469 48.0881 28.5097C47.4323 28.5504 46.7994 28.7746 46.2569 29.1582C45.7145 29.5418 45.2828 30.0705 45.0079 30.688C44.5867 30.7288 44.1714 30.773 43.7645 30.8184C43.3617 30.3594 42.8553 30.0109 42.2905 29.804C41.7257 29.5971 41.1201 29.5382 40.5279 29.6327C39.9358 29.7272 39.3755 29.9721 38.8971 30.3454C38.4188 30.7188 38.0374 31.209 37.787 31.7722C37.2248 31.8912 36.6729 32.018 36.1365 32.1508C35.6743 31.7828 35.1332 31.5354 34.559 31.4297C33.9848 31.324 33.3944 31.363 32.8379 31.5435C32.2813 31.724 31.7751 32.0407 31.3619 32.4666C30.9488 32.8926 30.641 33.4153 30.4646 33.9905C29.4736 34.4006 28.5254 34.8469 27.638 35.3212C24.9345 36.7462 22.4899 38.6446 20.4124 40.9324C19.9334 41.4577 19.6136 42.1166 19.4923 42.8278C19.371 43.5389 19.4536 44.2713 19.7298 44.9345C20.0061 45.5977 20.4639 46.1627 21.0468 46.5598C21.6298 46.957 22.3123 47.1689 23.0103 47.1694L23.0109 47.1697ZM22.0906 42.5617C23.9899 40.4715 26.2245 38.7372 28.6955 37.4356C29.7255 36.8886 30.7848 36.4026 31.8681 35.9799C32.0679 35.9014 32.2427 35.7668 32.3727 35.5912C32.5028 35.4157 32.583 35.2061 32.6043 34.986C32.6306 34.7184 32.7323 34.4648 32.8968 34.2565C33.0613 34.0482 33.2813 33.8945 33.5294 33.8145C33.7776 33.7345 34.0431 33.7317 34.2928 33.8064C34.5425 33.8812 34.7655 34.0302 34.934 34.235C35.0734 34.4035 35.2556 34.5283 35.4599 34.5954C35.6643 34.6625 35.8827 34.6692 36.0905 34.6147C36.9745 34.3829 37.9119 34.1678 38.8765 33.9755C39.0985 33.9313 39.3029 33.8204 39.4643 33.6567C39.6257 33.493 39.7369 33.2838 39.784 33.0551C39.8404 32.7827 39.9755 32.5345 40.1715 32.3435C40.3674 32.1525 40.6148 32.0277 40.881 31.9856C41.1471 31.9435 41.4193 31.9862 41.6614 32.108C41.9035 32.2298 42.1041 32.4249 42.2365 32.6674C42.3483 32.8708 42.5156 33.0356 42.7175 33.1411C42.9194 33.2467 43.1468 33.2883 43.3714 33.2608C44.1987 33.1597 45.0712 33.0685 45.9644 32.99C46.2168 32.9678 46.455 32.8602 46.6422 32.6836C46.8294 32.5071 46.9551 32.2716 46.9997 32.0136C47.0524 31.7105 47.2021 31.4345 47.4247 31.23C47.6473 31.0255 47.9299 30.9044 48.227 30.8862C48.5242 30.8679 48.8186 30.9536 49.063 31.1294C49.3074 31.3052 49.4876 31.5609 49.5746 31.8555C49.6486 32.1065 49.8007 32.3251 50.0073 32.4773C50.2139 32.6295 50.4633 32.7067 50.7168 32.697C51.5789 32.6643 52.4621 32.6409 53.3507 32.6269L57.1522 39.743C57.2879 40.6369 57.3951 41.5581 57.4708 42.4847C57.4955 42.7773 57.4611 43.0721 57.3698 43.3503C57.2786 43.6285 57.1325 43.884 56.9408 44.1007C56.749 44.3174 56.5159 44.4905 56.2561 44.6091C55.9964 44.7276 55.7156 44.7891 55.4317 44.7895H23.0109C22.7627 44.7928 22.5192 44.7192 22.3117 44.5784C22.1041 44.4376 21.9419 44.2358 21.8458 43.999C21.7435 43.7617 21.7122 43.4981 21.7557 43.2422C21.7992 42.9862 21.9156 42.7496 22.09 42.5625L22.0906 42.5617ZM78.8657 17.2329C78.185 13.8351 75.2853 11.6396 71.4786 11.6396H59.2436C55.5362 11.6396 53.8476 9.23949 53.8476 7.00962C53.8476 4.77975 55.5362 2.38052 59.2436 2.38052H77.2699C77.575 2.38052 77.8676 2.25512 78.0834 2.0319C78.2991 1.80869 78.4203 1.50594 78.4203 1.19026C78.4203 0.874584 78.2991 0.571836 78.0834 0.348619C77.8676 0.125402 77.575 0 77.2699 0H59.2436C56.9168 0 54.9426 0.744593 53.5342 2.15335C52.9024 2.78164 52.4005 3.53607 52.0588 4.37096C51.7171 5.20584 51.5427 6.10381 51.5462 7.01047C51.5462 10.4942 54.1899 14.0209 59.2429 14.0209H71.4773C74.7167 14.0209 76.2535 15.9303 76.6114 17.717C77.0058 19.6862 76.0901 22.2621 73.1419 23.5833L66.5998 26.6153C65.7362 25.5126 64.5586 24.7198 63.2345 24.3493C61.9104 23.9789 60.5071 24.0498 59.2242 24.5519L58.9399 24.0195C58.8418 23.836 58.6987 23.6825 58.5249 23.5747C58.3511 23.4668 58.1529 23.4084 57.9502 23.4053C43.5376 23.1824 33.1971 24.9035 25.406 28.8234C21.0482 31.0168 17.4608 33.8786 14.4391 37.575C11.3505 41.3531 8.93371 45.9026 7.0502 51.4841C6.56655 52.9226 6.7396 54.5588 7.49113 55.6527C7.53024 55.7094 7.57067 55.7645 7.61241 55.818C7.02762 56.4052 6.62559 57.1596 6.45782 57.9847C6.29005 58.8098 6.36418 59.6679 6.67072 60.4491C6.97726 61.2303 7.50224 61.899 8.17841 62.3695C8.85458 62.8401 9.65113 63.0911 10.466 63.0903H64.6057C65.5791 63.0904 66.5207 62.7317 67.2617 62.0785C68.0026 61.4253 68.4944 60.5203 68.6489 59.5259C68.8033 58.5315 68.6103 57.5127 68.1045 56.6522C67.5987 55.7916 66.8131 55.1457 65.8887 54.8302C66.8013 48.4523 66.7413 42.3947 65.7068 36.8085C65.6839 36.6852 65.6424 36.5665 65.5837 36.4567L65.481 36.2645C66.5745 35.4077 67.3792 34.2162 67.7809 32.8591C68.1826 31.5021 68.1608 30.0487 67.7186 28.7052L74.0699 25.762C78.1924 23.9144 79.4486 20.1474 78.865 17.2338L78.8657 17.2329ZM9.36642 54.2737C9.04299 53.8032 8.98416 52.9778 9.22295 52.2673C15.7509 32.9209 29.2396 25.4571 57.2496 25.7754L63.4809 37.44C64.441 42.7509 64.477 48.5232 63.5927 54.6138H10.466C10.3178 54.614 10.1697 54.6224 10.0223 54.6391V54.616C9.89356 54.6235 9.76518 54.5958 9.65005 54.5357C9.53492 54.4756 9.4371 54.3853 9.36642 54.2737ZM64.6057 60.7098H10.466C9.9901 60.7098 9.53368 60.5142 9.19716 60.166C8.86064 59.8178 8.67158 59.3455 8.67158 58.8531C8.67158 58.3607 8.86064 57.8885 9.19716 57.5403C9.53368 57.1921 9.9901 56.9965 10.466 56.9965H64.6057C65.0816 56.9965 65.538 57.1921 65.8745 57.5403C66.2111 57.8885 66.4001 58.3607 66.4001 58.8531C66.4001 59.3455 66.2111 59.8178 65.8745 60.166C65.538 60.5142 65.0816 60.7098 64.6057 60.7098ZM64.3501 34.1476L60.3549 26.6676C61.2772 26.3918 62.2628 26.4484 63.15 26.8281C64.0372 27.2079 64.7734 27.8882 65.2379 28.7577C65.7023 29.6271 65.8674 30.6341 65.7062 31.6134C65.545 32.5927 65.0669 33.4863 64.3505 34.1476H64.3501ZM9.73799 40.4276C10.2202 40.4285 10.6979 40.3309 11.1436 40.1402C13.162 39.275 14.0795 36.6964 13.3162 34.238C14.5624 33.2426 15.1604 31.6205 14.7816 30.1131C15.1016 30.007 15.4211 29.8856 15.74 29.7489C19.2061 28.2634 21.2019 25.6 20.3825 23.5527C20.2693 23.2712 20.1084 23.0129 19.9074 22.7899C20.6553 21.4747 20.8027 19.9707 20.2689 18.6364C19.7659 17.3804 18.7388 16.4525 17.3765 16.024C16.0389 15.6245 14.6089 15.7159 13.329 16.2826C12.8159 16.5022 12.3325 16.7896 11.8908 17.1377C11.3121 16.7508 10.6504 16.5167 9.96389 16.4562C9.27733 16.3956 8.5869 16.5104 7.95323 16.7904C7.31955 17.0704 6.762 17.507 6.32952 18.0621C5.89705 18.6171 5.60289 19.2735 5.47286 19.9736C5.22633 20.0302 4.98504 20.109 4.75173 20.2089C4.12174 20.4694 3.56374 20.8869 3.12738 21.4243C2.69103 21.9618 2.38984 22.6025 2.25064 23.2895C1.43193 23.7159 0.772119 24.41 0.37354 25.264C0.140462 25.7502 0.0132896 26.2835 0.00098678 26.8261C-0.011316 27.3687 0.09155 27.9075 0.302335 28.4045C0.51312 28.9016 0.826695 29.3447 1.22096 29.7028C1.61523 30.0608 2.08059 30.325 2.58425 30.4768C2.49768 31.121 2.5781 31.7775 2.81728 32.379C3.01491 32.8615 3.30776 33.296 3.67707 33.6546C4.04638 34.0132 4.48401 34.288 4.96193 34.4615C4.89607 35.3671 5.03803 36.276 5.37623 37.114C6.19185 39.1523 7.971 40.4276 9.73799 40.4276ZM4.9422 31.4681C4.86007 31.2447 4.83346 31.0034 4.86481 30.7666C4.89617 30.5297 4.98448 30.3048 5.12167 30.1124C5.23844 29.9334 5.30594 29.7249 5.31693 29.5092C5.32791 29.2935 5.28197 29.0788 5.18402 28.8881C5.08608 28.6973 4.93982 28.5378 4.76093 28.4265C4.58203 28.3152 4.37723 28.2564 4.16849 28.2563C4.12197 28.2563 4.07548 28.2592 4.02929 28.265C3.29206 28.3569 2.63585 28.017 2.39608 27.4178C2.32714 27.2365 2.29625 27.042 2.30545 26.8474C2.31466 26.6527 2.36376 26.4623 2.44949 26.2888C2.65764 25.8544 3.01396 25.5151 3.44967 25.3366C3.51868 25.3072 3.58918 25.2816 3.66084 25.2601C3.90812 25.1851 4.12391 25.0264 4.27362 24.8094C4.42333 24.5924 4.49829 24.3297 4.48649 24.0633C4.45658 23.3907 4.92741 22.71 5.63145 22.4084C5.91842 22.284 6.22958 22.2311 6.53992 22.2538C6.71769 22.2679 6.89618 22.239 7.06131 22.1694C7.22644 22.0999 7.37369 21.9916 7.49143 21.8531C7.60917 21.7146 7.69419 21.5496 7.73977 21.3713C7.78535 21.193 7.79025 21.0061 7.75407 20.8255C7.60978 20.104 8.09146 19.3069 8.87454 18.9721C9.64694 18.6415 10.5267 18.8451 10.9226 19.4456C11.0216 19.5959 11.1526 19.7206 11.3055 19.8103C11.4584 19.9 11.6291 19.9523 11.8046 19.9631C11.98 19.9739 12.1555 19.9429 12.3176 19.8726C12.4797 19.8023 12.6241 19.6945 12.7397 19.5575C13.1434 19.0875 13.6461 18.7198 14.209 18.4827C14.9968 18.1268 15.8791 18.0631 16.707 18.3023C17.3984 18.5198 17.9083 18.9622 18.1429 19.5482C18.4798 20.3895 18.2046 21.4264 17.4248 22.254C17.2896 22.3974 17.1916 22.5739 17.1399 22.7669C17.0881 22.96 17.0843 23.1635 17.1288 23.3585C17.1733 23.5535 17.2647 23.7337 17.3944 23.8825C17.5242 24.0312 17.6881 24.1437 17.871 24.2094C18.1156 24.2973 18.2326 24.4017 18.2569 24.4645C18.4 24.8215 17.4543 26.4384 14.8597 27.5505C14.2239 27.8264 13.5606 28.0289 12.8818 28.1541C12.6758 28.191 12.4834 28.2852 12.3253 28.4267C12.1671 28.5682 12.0493 28.7516 11.9843 28.9572C11.9194 29.1628 11.9098 29.3829 11.9567 29.5937C12.0035 29.8045 12.105 29.9981 12.2503 30.1537C12.3573 30.2678 12.4426 30.4019 12.5015 30.5487C12.8075 31.3129 12.3397 32.2423 11.4585 32.6257L11.4291 32.6376C11.2778 32.7008 11.1413 32.7964 11.0285 32.9183C10.9157 33.0401 10.8293 33.1854 10.7749 33.3445C10.7205 33.5035 10.6994 33.6727 10.713 33.8408C10.7266 34.009 10.7747 34.1722 10.8539 34.3196C10.9187 34.4401 10.9768 34.5642 11.0279 34.6915C11.5692 36.0437 11.219 37.532 10.2632 37.9416C9.30742 38.3512 8.04249 37.5551 7.50115 36.203C7.19587 35.4884 7.16143 34.6811 7.40468 33.9415C7.47049 33.7618 7.49326 33.5682 7.47105 33.3774C7.44883 33.1866 7.38228 33.0042 7.2771 32.8458C7.17191 32.6874 7.03122 32.5577 6.86704 32.4678C6.70286 32.3779 6.52008 32.3304 6.33433 32.3295C5.69686 32.3261 5.15026 31.9881 4.9422 31.4681ZM37.0435 70.1064C37.0435 70.5344 37.2042 70.7129 37.6688 71.1666C38.2052 71.6904 39.0156 72.482 39.0156 73.9581C39.0156 75.4342 38.2052 76.2258 37.6688 76.7496C37.2042 77.2032 37.0435 77.3819 37.0435 77.8097C37.0435 78.1254 36.9223 78.4282 36.7065 78.6514C36.4908 78.8746 36.1982 79 35.8931 79C35.588 79 35.2954 78.8746 35.0797 78.6514C34.8639 78.4282 34.7427 78.1254 34.7427 77.8097C34.7427 76.3336 35.5532 75.5421 36.0903 75.0182C36.5551 74.5646 36.7148 74.386 36.7148 73.9581C36.7148 73.5301 36.5542 73.3515 36.0903 72.8979C35.5541 72.374 34.7427 71.5826 34.7427 70.1064C34.7427 68.6301 35.5532 67.8389 36.0903 67.3152C36.5551 66.8616 36.7148 66.683 36.7148 66.2552C36.7148 65.9395 36.836 65.6368 37.0517 65.4136C37.2675 65.1903 37.5601 65.0649 37.8652 65.0649C38.1703 65.0649 38.4629 65.1903 38.6786 65.4136C38.8944 65.6368 39.0156 65.9395 39.0156 66.2552C39.0156 67.7313 38.205 68.5228 37.668 69.0465C37.2042 69.4997 37.0435 69.6782 37.0435 70.1064ZM46.153 70.1064C46.153 70.5344 46.3138 70.7129 46.7784 71.1666C47.3148 71.6904 48.1251 72.482 48.1251 73.9581C48.1251 75.4342 47.3148 76.2258 46.7784 76.7496C46.3138 77.2032 46.153 77.3819 46.153 77.8097C46.153 78.1254 46.0318 78.4282 45.8161 78.6514C45.6004 78.8746 45.3078 79 45.0027 79C44.6976 79 44.405 78.8746 44.1892 78.6514C43.9735 78.4282 43.8523 78.1254 43.8523 77.8097C43.8523 76.3336 44.6628 75.5421 45.1999 75.0182C45.6645 74.5646 45.8244 74.386 45.8244 73.9581C45.8244 73.5301 45.6638 73.3515 45.1999 72.8979C44.6635 72.374 43.8523 71.5826 43.8523 70.1064C43.8523 68.6301 44.6628 67.8389 45.1999 67.3152C45.6645 66.8616 45.8244 66.683 45.8244 66.2552C45.8244 65.9395 45.9456 65.6368 46.1613 65.4136C46.377 65.1903 46.6696 65.0649 46.9747 65.0649C47.2798 65.0649 47.5724 65.1903 47.7882 65.4136C48.0039 65.6368 48.1251 65.9395 48.1251 66.2552C48.1251 67.7313 47.3146 68.5228 46.7784 69.0465C46.3138 69.4997 46.153 69.6782 46.153 70.1064ZM55.2628 70.1064C55.2628 70.5344 55.4235 70.7129 55.8881 71.1666C56.4243 71.6904 57.2349 72.482 57.2349 73.9581C57.2349 75.4342 56.4243 76.2258 55.8881 76.7496C55.4235 77.2032 55.2628 77.3819 55.2628 77.8097C55.2628 78.1254 55.1416 78.4282 54.9258 78.6514C54.7101 78.8746 54.4175 79 54.1124 79C53.8073 79 53.5147 78.8746 53.2989 78.6514C53.0832 78.4282 52.962 78.1254 52.962 77.8097C52.962 76.3336 53.7725 75.5421 54.3088 75.0182C54.7734 74.5646 54.9341 74.386 54.9341 73.9581C54.9341 73.5301 54.7734 73.3515 54.3088 72.8979C53.7725 72.374 52.962 71.5826 52.962 70.1064C52.962 68.6301 53.7725 67.8389 54.3088 67.3152C54.7734 66.8616 54.9341 66.683 54.9341 66.2552C54.9341 65.9395 55.0553 65.6368 55.271 65.4136C55.4868 65.1903 55.7794 65.0649 56.0845 65.0649C56.3896 65.0649 56.6822 65.1903 56.8979 65.4136C57.1137 65.6368 57.2349 65.9395 57.2349 66.2552C57.2349 67.7313 56.4243 68.5228 55.8873 69.0465C55.4235 69.4997 55.2628 69.6782 55.2628 70.1064ZM18.3792 70.1064C18.3792 70.5344 18.5397 70.7129 19.0045 71.1666C19.5407 71.6904 20.3513 72.482 20.3513 73.9581C20.3513 75.4342 19.5407 76.2258 19.0045 76.7496C18.5397 77.2032 18.3792 77.3819 18.3792 77.8097C18.3792 78.1254 18.258 78.4282 18.0422 78.6514C17.8265 78.8746 17.5339 79 17.2288 79C16.9237 79 16.6311 78.8746 16.4153 78.6514C16.1996 78.4282 16.0784 78.1254 16.0784 77.8097C16.0784 76.3336 16.8889 75.5421 17.426 75.0182C17.8906 74.5646 18.0505 74.386 18.0505 73.9581C18.0505 73.5301 17.8898 73.3515 17.426 72.8979C16.8898 72.374 16.0784 71.5826 16.0784 70.1064C16.0784 68.6301 16.8889 67.8389 17.426 67.3152C17.8906 66.8616 18.0505 66.683 18.0505 66.2552C18.0505 65.9395 18.1717 65.6368 18.3874 65.4136C18.6032 65.1903 18.8958 65.0649 19.2009 65.0649C19.506 65.0649 19.7986 65.1903 20.0143 65.4136C20.2301 65.6368 20.3513 65.9395 20.3513 66.2552C20.3513 67.7313 19.5407 68.5228 19.0037 69.0465C18.5397 69.4997 18.3792 69.6782 18.3792 70.1064ZM27.4887 70.1064C27.4887 70.5344 27.6495 70.7129 28.114 71.1666C28.6503 71.6904 29.4608 72.482 29.4608 73.9581C29.4608 75.4342 28.6503 76.2258 28.114 76.7496C27.6495 77.2032 27.4887 77.3819 27.4887 77.8097C27.4887 78.1254 27.3675 78.4282 27.1518 78.6514C26.9361 78.8746 26.6434 79 26.3383 79C26.0332 79 25.7406 78.8746 25.5249 78.6514C25.3092 78.4282 25.188 78.1254 25.188 77.8097C25.188 76.3336 25.9985 75.5421 26.5347 75.0182C26.9995 74.5646 27.16 74.386 27.16 73.9581C27.16 73.5301 26.9995 73.3515 26.5347 72.8979C25.9985 72.374 25.188 71.5826 25.188 70.1064C25.188 68.6301 25.9985 67.8389 26.5347 67.3152C26.9995 66.8616 27.16 66.683 27.16 66.2552C27.16 65.9395 27.2812 65.6368 27.497 65.4136C27.7127 65.1903 28.0053 65.0649 28.3104 65.0649C28.6155 65.0649 28.9081 65.1903 29.1239 65.4136C29.3396 65.6368 29.4608 65.9395 29.4608 66.2552C29.4608 67.7313 28.6503 68.5228 28.1132 69.0465C27.6495 69.4997 27.4887 69.6782 27.4887 70.1064Z" fill="#173649"/>
<rect x="7.81055" y="56.4592" width="59.0089" height="4.52255" rx="2.26128" fill="url(#paint0_linear_985_3)"/>
<path d="M59.918 26.3207C61.81 25.2621 64.1578 25.9616 65.162 27.883L65.6923 28.8977C66.6965 30.8191 65.9768 33.2349 64.0848 34.2934L59.918 26.3207Z" fill="url(#paint1_linear_985_3)"/>
<defs>
<linearGradient id="paint0_linear_985_3" x1="9.17492" y1="55.8338" x2="33.6455" y2="88.174" gradientUnits="userSpaceOnUse">
<stop stop-color="#8F845A"/>
<stop offset="0.16" stop-color="#C6BC84"/>
<stop offset="0.665" stop-color="#EFE7A3"/>
<stop offset="1" stop-color="#A59A6A"/>
</linearGradient>
<linearGradient id="paint1_linear_985_3" x1="59.4209" y1="25.1737" x2="63.4603" y2="23.2844" gradientUnits="userSpaceOnUse">
<stop stop-color="#8F845A"/>
<stop offset="0.16" stop-color="#C6BC84"/>
<stop offset="0.665" stop-color="#EFE7A3"/>
<stop offset="1" stop-color="#A59A6A"/>
</linearGradient>
</defs>
</svg>
