<svg width="79" height="79" viewBox="0 0 79 79" fill="none" xmlns="http://www.w3.org/2000/svg">
<g clip-path="url(#clip0_986_47)">
<path fill-rule="evenodd" clip-rule="evenodd" d="M46.1412 39.662H36.8852C36.3761 39.662 35.9596 39.2454 35.9596 38.7364C35.9596 38.2273 36.3761 37.8108 36.8852 37.8108H46.1412C46.6503 37.8108 47.0668 38.2273 47.0668 38.7364C47.0668 39.2454 46.6503 39.662 46.1412 39.662ZM76.7323 66.1341H70.3456V71.734C70.3456 72.2431 69.9291 72.6596 69.42 72.6596H58.9608C58.4517 72.6596 58.0351 72.2431 58.0351 71.734V66.1341H20.9186V71.734C20.9186 72.2431 20.5021 72.6596 19.993 72.6596H9.57996C9.07088 72.6596 8.65436 72.2431 8.65436 71.734V66.1341H2.26772C1.01816 66.1341 0 65.116 0 63.8664V55.6286C0 54.4716 0.83304 53.546 1.94376 53.3609V12.4493C1.94376 10.5518 3.471 8.97831 5.36848 8.97831H24.2045C26.1019 8.97831 27.6292 10.5518 27.6292 12.4493V53.3609H39.7545V50.6766H36.1447C32.9514 50.6766 30.3134 48.0849 30.3134 44.8916V17.1236C30.3134 13.9303 32.9514 11.3386 36.1447 11.3386H43.4569C43.7346 8.51551 46.0949 6.29407 48.9643 6.29407C51.8799 6.29407 54.2402 8.51551 54.5179 11.3386H61.8301C65.0234 11.3386 67.6151 13.9303 67.6151 17.1699V18.512V18.6508H71.734C74.6497 18.6508 77.0562 21.0111 77.0562 23.973V38.0884C77.0562 41.0041 74.6497 43.3644 71.734 43.3644H67.6151V44.8916C67.6151 48.0849 65.0234 50.6766 61.8301 50.6766H59.4235V53.3609H76.7323C77.9818 53.3609 79 54.379 79 55.6286V63.8664C79 65.116 77.9818 66.1341 76.7323 66.1341ZM2.26772 55.2121C2.03632 55.2121 1.8512 55.3972 1.8512 55.6286V63.8664C1.8512 64.0978 2.03632 64.2829 2.26772 64.2829H19.993H69.42H76.7323C76.9174 64.2829 77.1488 64.0978 77.1488 63.8664V55.6286C77.1488 55.3972 76.9174 55.2121 76.7323 55.2121H58.4979H40.6801H26.7036H2.86936H2.26772ZM3.79496 53.3609H25.778V12.4493C25.778 11.57 25.0838 10.8295 24.2045 10.8295H5.36848C4.48916 10.8295 3.79496 11.57 3.79496 12.4493V53.3609ZM45.3081 11.3386H52.6667C52.389 9.53367 50.8617 8.14527 48.9643 8.14527C47.1131 8.14527 45.5858 9.53367 45.3081 11.3386ZM36.1447 13.1898C33.9695 13.1898 32.1646 14.9484 32.1646 17.1699V17.5864H65.7639V17.1236C65.7639 14.9484 64.0053 13.1898 61.8301 13.1898H53.6385H53.5923H53.546H36.1447ZM32.1646 19.4376V44.8916C32.1646 47.0668 33.9695 48.8254 36.1447 48.8254H40.6801H58.4979H61.8301C64.0053 48.8254 65.7639 47.0668 65.7639 44.8916V42.4388V19.5764V19.4376H32.1646ZM41.6057 53.3609H57.5723V50.6766H41.6057V53.3609ZM67.6151 41.5132H71.734C73.6315 41.5132 75.205 39.9859 75.205 38.0884V23.973C75.205 22.0756 73.6315 20.502 71.734 20.502H67.6151V41.5132ZM61.0896 40.495C60.5806 40.495 60.164 40.0785 60.164 39.5694V22.4458C60.164 21.9367 60.5806 21.5202 61.0896 21.5202C61.5987 21.5202 62.0152 21.9367 62.0152 22.4458V39.5694C62.0152 40.0785 61.5987 40.495 61.0896 40.495ZM14.8096 23.0012C12.4956 23.0012 10.5981 21.1037 10.5981 18.7897C10.5981 16.4757 12.4956 14.6245 14.8096 14.6245C17.1236 14.6245 18.9748 16.4757 18.9748 18.7897C18.9748 21.1037 17.1236 23.0012 14.8096 23.0012ZM14.8096 16.4757C13.5138 16.4757 12.4493 17.4938 12.4493 18.7897C12.4493 20.0855 13.5138 21.15 14.8096 21.15C16.1054 21.15 17.1236 20.0855 17.1236 18.7897C17.1236 17.4938 16.1054 16.4757 14.8096 16.4757ZM14.8096 33.4604C12.6344 33.4604 10.8758 31.7018 10.8758 29.5266C10.8758 27.3978 12.6344 25.6391 14.8096 25.6391C16.9385 25.6391 18.6971 27.3978 18.6971 29.5266C18.6971 31.7018 16.9385 33.4604 14.8096 33.4604ZM14.8096 27.4903C13.6526 27.4903 12.727 28.4159 12.727 29.5266C12.727 30.6836 13.6526 31.6092 14.8096 31.6092C15.9203 31.6092 16.8459 30.6836 16.8459 29.5266C16.8459 28.4159 15.9203 27.4903 14.8096 27.4903ZM14.8096 49.6122C10.8295 49.6122 7.58992 46.3726 7.58992 42.3925C7.58992 38.3661 10.8295 35.1265 14.8096 35.1265C18.7897 35.1265 22.0293 38.3661 22.0293 42.3925C22.0293 46.3726 18.7897 49.6122 14.8096 49.6122ZM14.8096 36.9777C11.8477 36.9777 9.39485 39.3843 9.39485 42.3925C9.39485 45.3544 11.8477 47.761 14.8096 47.761C17.7715 47.761 20.1781 45.3544 20.1781 42.3925C20.1781 39.3843 17.7715 36.9777 14.8096 36.9777ZM10.5056 70.8084H19.0674V66.1341H10.5056V70.8084ZM59.8863 70.8084H68.4944V66.1341H59.8863V70.8084ZM46.1412 24.2044H36.8852C36.3761 24.2044 35.9596 23.7879 35.9596 23.2788C35.9596 22.7698 36.3761 22.3532 36.8852 22.3532H46.1412C46.6503 22.3532 47.0668 22.7698 47.0668 23.2788C47.0668 23.7879 46.6503 24.2044 46.1412 24.2044ZM46.1412 28.092H36.8852C36.3761 28.092 35.9596 27.6754 35.9596 27.1664C35.9596 26.611 36.3761 26.2408 36.8852 26.2408H46.1412C46.6503 26.2408 47.0668 26.611 47.0668 27.1664C47.0668 27.6754 46.6503 28.092 46.1412 28.092ZM46.1412 31.9332H36.8852C36.3761 31.9332 35.9596 31.5167 35.9596 31.0076C35.9596 30.4985 36.3761 30.082 36.8852 30.082H46.1412C46.6503 30.082 47.0668 30.4985 47.0668 31.0076C47.0668 31.5167 46.6503 31.9332 46.1412 31.9332ZM46.1412 35.8207H36.8852C36.3761 35.8207 35.9596 35.4042 35.9596 34.8951C35.9596 34.3398 36.3761 33.9695 36.8852 33.9695H46.1412C46.6503 33.9695 47.0668 34.3398 47.0668 34.8951C47.0668 35.4042 46.6503 35.8207 46.1412 35.8207Z" fill="#173649"/>
<path fill-rule="evenodd" clip-rule="evenodd" d="M19.0677 66.1342H10.5059V70.8084H19.0677V66.1342Z" fill="url(#paint0_linear_986_47)"/>
<path fill-rule="evenodd" clip-rule="evenodd" d="M2.26808 64.2829H19.9933H69.4204H76.7327C76.9178 64.2829 77.1492 64.0978 77.1492 63.8664V55.6286C77.1492 55.3972 76.9178 55.212 76.7327 55.212H58.4983H40.6805H26.7039H2.86972H2.26808C2.03668 55.212 1.85156 55.3972 1.85156 55.6286V63.8664C1.85156 64.0978 2.03668 64.2829 2.26808 64.2829Z" fill="#EEECDB"/>
<path fill-rule="evenodd" clip-rule="evenodd" d="M3.79492 53.3609H25.7779V12.4493C25.7779 11.57 25.0837 10.8295 24.2044 10.8295H5.36844C4.48912 10.8295 3.79492 11.57 3.79492 12.4493V53.3609ZM22.0293 42.3925C22.0293 46.3726 18.7896 49.6122 14.8096 49.6122C10.8295 49.6122 7.58988 46.3726 7.58988 42.3925C7.58988 38.3661 10.8295 35.1265 14.8096 35.1265C18.7896 35.1265 22.0293 38.3661 22.0293 42.3925ZM14.8096 33.4605C12.6344 33.4605 10.8758 31.7018 10.8758 29.5267C10.8758 27.3978 12.6344 25.6391 14.8096 25.6391C16.9384 25.6391 18.6971 27.3978 18.6971 29.5267C18.6971 31.7018 16.9384 33.4605 14.8096 33.4605ZM14.8096 23.0012C12.4956 23.0012 10.5981 21.1037 10.5981 18.7897C10.5981 16.4757 12.4956 14.6245 14.8096 14.6245C17.1236 14.6245 18.9748 16.4757 18.9748 18.7897C18.9748 21.1037 17.1236 23.0012 14.8096 23.0012Z" fill="#EEECDB"/>
<path fill-rule="evenodd" clip-rule="evenodd" d="M9.39453 42.3925C9.39453 45.3544 11.8474 47.761 14.8093 47.761C17.7712 47.761 20.1778 45.3544 20.1778 42.3925C20.1778 39.3843 17.7712 36.9777 14.8093 36.9777C11.8474 36.9777 9.39453 39.3843 9.39453 42.3925ZM12.7267 29.5266C12.7267 30.6836 13.6523 31.6092 14.8093 31.6092C15.92 31.6092 16.8456 30.6836 16.8456 29.5266C16.8456 28.4159 15.92 27.4903 14.8093 27.4903C13.6523 27.4903 12.7267 28.4159 12.7267 29.5266ZM12.449 18.7897C12.449 20.0855 13.5135 21.15 14.8093 21.15C16.1051 21.15 17.1233 20.0855 17.1233 18.7897C17.1233 17.4938 16.1051 16.4757 14.8093 16.4757C13.5135 16.4757 12.449 17.4938 12.449 18.7897Z" fill="url(#paint1_linear_986_47)"/>
<path fill-rule="evenodd" clip-rule="evenodd" d="M68.4948 66.1342H59.8867V70.8084H68.4948V66.1342Z" fill="url(#paint2_linear_986_47)"/>
<path fill-rule="evenodd" clip-rule="evenodd" d="M41.6055 53.3609H57.5721V50.6766H41.6055V53.3609Z" fill="#EEECDB"/>
<path fill-rule="evenodd" clip-rule="evenodd" d="M67.6152 20.502V41.5132H71.7342C73.6316 41.5132 75.2052 39.9859 75.2052 38.0885V23.973C75.2052 22.0756 73.6316 20.502 71.7342 20.502H67.6152Z" fill="#EEECDB"/>
<path fill-rule="evenodd" clip-rule="evenodd" d="M32.165 17.5864H65.7643V17.1236C65.7643 14.9484 64.0057 13.1898 61.8305 13.1898H53.639H53.5927H53.5464H36.1451C33.97 13.1898 32.165 14.9484 32.165 17.1699V17.5864Z" fill="#EEECDB"/>
<path fill-rule="evenodd" clip-rule="evenodd" d="M45.3086 11.3386H52.6671C52.3894 9.5337 50.8622 8.14529 48.9647 8.14529C47.1135 8.14529 45.5863 9.5337 45.3086 11.3386Z" fill="url(#paint3_linear_986_47)"/>
</g>
<defs>
<linearGradient id="paint0_linear_986_47" x1="10.7038" y1="65.4877" x2="20.1312" y2="67.2368" gradientUnits="userSpaceOnUse">
<stop stop-color="#8F845A"/>
<stop offset="0.16" stop-color="#C6BC84"/>
<stop offset="0.665" stop-color="#EFE7A3"/>
<stop offset="1" stop-color="#A59A6A"/>
</linearGradient>
<linearGradient id="paint1_linear_986_47" x1="9.64386" y1="12.149" x2="21.9111" y2="12.5773" gradientUnits="userSpaceOnUse">
<stop stop-color="#8F845A"/>
<stop offset="0.16" stop-color="#C6BC84"/>
<stop offset="0.665" stop-color="#EFE7A3"/>
<stop offset="1" stop-color="#A59A6A"/>
</linearGradient>
<linearGradient id="paint2_linear_986_47" x1="60.0857" y1="65.4877" x2="69.5607" y2="67.2551" gradientUnits="userSpaceOnUse">
<stop stop-color="#8F845A"/>
<stop offset="0.16" stop-color="#C6BC84"/>
<stop offset="0.665" stop-color="#EFE7A3"/>
<stop offset="1" stop-color="#A59A6A"/>
</linearGradient>
<linearGradient id="paint3_linear_986_47" x1="45.4787" y1="7.70366" x2="53.4271" y2="9.55887" gradientUnits="userSpaceOnUse">
<stop stop-color="#8F845A"/>
<stop offset="0.16" stop-color="#C6BC84"/>
<stop offset="0.665" stop-color="#EFE7A3"/>
<stop offset="1" stop-color="#A59A6A"/>
</linearGradient>
<clipPath id="clip0_986_47">
<rect width="79" height="79" fill="white"/>
</clipPath>
</defs>
</svg>
