<svg width="79" height="79" viewBox="0 0 79 79" fill="none" xmlns="http://www.w3.org/2000/svg">
<path d="M62.7048 6.83475C71.0421 26.9626 71.4941 49.4434 64.0611 69.8263C63.2616 72.0184 61.3033 73.5791 58.9969 73.9321C45.9998 75.9213 33.0029 75.9213 20.0059 73.9321C17.6995 73.5791 15.741 72.0184 14.9417 69.8263C7.50862 49.4432 7.96071 26.9626 16.298 6.83459H62.7048V6.83475Z" fill="#EEECDB"/>
<path d="M9.74512 43.0922C10.0602 52.1512 11.7883 61.1728 14.9384 69.8171C15.7386 72.0129 17.6974 73.5789 20.0074 73.9324C33.0032 75.9213 45.9992 75.9213 58.995 73.9324C61.3051 73.5789 63.2639 72.0129 64.0639 69.8171C67.2139 61.1728 68.9422 52.1512 69.2573 43.0922C49.3874 47.9865 29.5499 48.0027 9.74512 43.0922Z" fill="#EEECDB"/>
<path opacity="0.15" d="M64.0581 69.8298C63.2608 72.0205 61.2998 73.5792 58.9943 73.9311C50.0016 75.3102 41.0019 75.7339 32.002 75.2025C36.0027 74.9655 40.0035 74.5417 43.997 73.9311C46.3026 73.5792 48.2635 72.0206 49.0607 69.8298C56.4947 49.4455 56.0422 26.9638 47.7103 6.83807H62.7076C71.0397 26.9639 71.4921 49.4455 64.0581 69.8298Z" fill="#EEECDB"/>
<path d="M43.3186 35.9756C48.4086 33.8673 50.8257 28.032 48.7174 22.9422C46.6091 17.8523 40.7738 15.4353 35.6839 17.5436C30.594 19.652 28.1769 25.4872 30.2852 30.5771C32.3934 35.6669 38.2287 38.0839 43.3186 35.9756Z" fill="url(#paint0_linear_986_59)"/>
<path d="M41.486 31.5519C44.1327 30.4556 45.3896 27.4213 44.2933 24.7746C43.197 22.1279 40.1627 20.871 37.5159 21.9673C34.8692 23.0636 33.6124 26.0979 34.7087 28.7447C35.805 31.3914 38.8393 32.6482 41.486 31.5519Z" fill="#EEECDB"/>
<path opacity="0.15" d="M49.4779 26.7628C49.4779 32.2647 45.0102 36.7322 39.5012 36.7322C38.1724 36.7322 36.9083 36.4736 35.752 36.0067C39.4008 34.5199 41.9792 30.943 41.9792 26.7626C41.9792 22.5823 39.4006 18.9983 35.752 17.5115C36.9084 17.0446 38.1726 16.7859 39.5012 16.7859C45.0102 16.7861 49.4779 21.2538 49.4779 26.7628Z" fill="url(#paint1_linear_986_59)"/>
<path d="M39.5832 9.59572C52.3668 9.59572 62.7299 8.25327 62.7299 6.59727C62.7299 4.94127 52.3668 3.59882 39.5832 3.59882C26.7997 3.59882 16.4365 4.94127 16.4365 6.59727C16.4365 8.25327 26.7997 9.59572 39.5832 9.59572Z" fill="#EEECDB"/>
<path opacity="0.15" d="M62.729 6.59403C62.729 8.25318 52.3645 9.59634 39.5794 9.59634C37.3528 9.59634 35.198 9.55329 33.1582 9.48138C42.8116 9.11508 49.8794 7.96588 49.8794 6.59403C49.8794 5.22927 42.8116 4.08007 33.1582 3.71377C35.1982 3.64202 37.3529 3.59882 39.5794 3.59882C52.3645 3.59882 62.729 4.94197 62.729 6.59403Z" fill="#EEECDB"/>
<path d="M45.2466 43.1838V64.954C45.2466 68.1273 42.6742 70.6999 39.5007 70.6999C36.3275 70.6999 33.7549 68.1275 33.7549 64.954V43.1838C33.7549 41.3327 35.2556 39.832 37.1067 39.832H41.8948C43.7461 39.8322 45.2466 41.3327 45.2466 43.1838Z" fill="url(#paint2_linear_986_59)"/>
<path opacity="0.15" d="M45.2471 43.1823V64.9528C45.2471 68.1275 42.6758 70.699 39.5009 70.699C38.4522 70.699 37.4682 70.4188 36.6279 69.9232C38.3446 68.9392 39.5009 67.0789 39.5009 64.9528V43.1823C39.5009 41.4945 38.2511 40.101 36.6279 39.8711C36.7859 39.8495 36.9439 39.8351 37.1092 39.8351H41.8928C43.746 39.8353 45.2471 41.3292 45.2471 43.1823Z" fill="#EEECDB"/>
<path d="M39.5006 15.8872C33.5047 15.8872 28.627 20.765 28.627 26.7608C28.627 32.7558 33.5047 37.6336 39.5006 37.6336C45.4964 37.6336 50.3742 32.7558 50.3742 26.7608C50.374 20.765 45.4962 15.8872 39.5006 15.8872ZM39.5006 35.8379C34.4952 35.8379 30.4227 31.7662 30.4227 26.7608C30.4227 21.7554 34.4952 17.6829 39.5006 17.6829C44.506 17.6829 48.5785 21.7554 48.5785 26.7608C48.5785 31.7662 44.506 35.8379 39.5006 35.8379Z" fill="#173649"/>
<path d="M15.565 6.32909C15.5293 6.38047 15.4926 6.43139 15.4679 6.4908C6.87977 27.2241 6.70789 49.857 14.0925 70.1185C14.0933 70.1205 14.0939 70.1225 14.0945 70.1244L14.0948 70.125C14.0959 70.1281 14.097 70.1311 14.0981 70.1342C15.0037 72.6173 17.2152 74.4129 19.8694 74.8198C26.3829 75.8165 32.9419 76.3152 39.5011 76.3152C46.0602 76.3152 52.6192 75.8165 59.1327 74.8198C61.7869 74.4129 63.9985 72.6173 64.9048 70.1342C72.1686 50.2156 72.2299 27.6488 63.6215 6.70866C63.624 6.67163 63.6282 6.63445 63.6282 6.59742C63.628 1.35688 16.4297 1.49389 15.565 6.32909ZM39.583 4.49666C51.7135 4.49666 59.6502 5.64633 61.5433 6.59742C56.0047 9.37692 23.1684 9.38031 17.6233 6.59742C19.5165 5.64633 27.4533 4.49666 39.583 4.49666ZM63.2197 69.5099C62.5379 71.3834 60.8664 72.738 58.859 73.0452C46.0144 75.0106 32.9876 75.0106 20.143 73.0452C18.1354 72.738 16.4639 71.3836 15.7822 69.5099C12.8703 61.5203 11.1166 53.0141 10.692 44.2458C18.0438 45.9967 25.4418 47.053 32.8572 47.4521V64.954C32.8572 68.6169 35.8376 71.5973 39.5011 71.5973C43.1645 71.5973 46.1449 68.6169 46.1449 64.954V47.4453C53.5424 47.0425 60.9403 45.9886 68.3108 44.2446C67.8915 52.8877 66.1754 61.3993 63.2197 69.5099ZM34.6527 64.9542V43.184C34.6527 41.8309 35.754 40.7297 37.107 40.7297H41.895C43.248 40.7297 44.3492 41.8309 44.3492 43.184V64.9542C44.3492 67.6274 42.1741 69.8017 39.5009 69.8017C36.8277 69.8017 34.6527 67.6274 34.6527 64.9542ZM68.4019 42.3698C61.002 44.1522 53.5734 45.2349 46.1449 45.6453V43.184C46.1449 40.8405 44.2384 38.934 41.895 38.934H37.107C34.7635 38.934 32.857 40.8405 32.857 43.184V45.6518C25.4102 45.2449 17.9813 44.1597 10.6002 42.371C10.287 30.7611 12.3417 19.122 16.7437 8.12928C20.7853 10.1839 35.024 10.4929 39.5832 10.4929C44.2227 10.4929 58.0855 10.1799 62.2855 8.19794C66.6681 19.1705 68.7141 30.7847 68.4019 42.3698Z" fill="#173649"/>
<path d="M39.5009 20.6751C36.146 20.6751 33.416 23.4051 33.416 26.7608C33.416 30.1156 36.146 32.8456 39.5009 32.8456C42.8557 32.8456 45.5857 30.1156 45.5857 26.7608C45.5857 23.4051 42.8557 20.6751 39.5009 20.6751ZM39.5009 31.0499C37.1357 31.0499 35.2116 29.1258 35.2116 26.7606C35.2116 24.3954 37.1357 22.4707 39.5009 22.4707C41.8661 22.4707 43.7902 24.3954 43.7902 26.7606C43.7902 29.1258 41.8661 31.0499 39.5009 31.0499Z" fill="#173649"/>
<defs>
<linearGradient id="paint0_linear_986_59" x1="25.8381" y1="18.6355" x2="47.4911" y2="12.1326" gradientUnits="userSpaceOnUse">
<stop stop-color="#8F845A"/>
<stop offset="0.16" stop-color="#C6BC84"/>
<stop offset="0.665" stop-color="#EFE7A3"/>
<stop offset="1" stop-color="#A59A6A"/>
</linearGradient>
<linearGradient id="paint1_linear_986_59" x1="36.0693" y1="14.0274" x2="51.6276" y2="15.1119" gradientUnits="userSpaceOnUse">
<stop stop-color="#8F845A"/>
<stop offset="0.16" stop-color="#C6BC84"/>
<stop offset="0.665" stop-color="#EFE7A3"/>
<stop offset="1" stop-color="#A59A6A"/>
</linearGradient>
<linearGradient id="paint2_linear_986_59" x1="34.0206" y1="35.5631" x2="47.0911" y2="36.0559" gradientUnits="userSpaceOnUse">
<stop stop-color="#8F845A"/>
<stop offset="0.16" stop-color="#C6BC84"/>
<stop offset="0.665" stop-color="#EFE7A3"/>
<stop offset="1" stop-color="#A59A6A"/>
</linearGradient>
</defs>
</svg>
