<svg width="1222" height="424" viewBox="0 0 1222 424" fill="none" xmlns="http://www.w3.org/2000/svg">
<g opacity="0.3">
<path d="M1215.34 402.461H1221.02V396.776H1215.34V402.461Z" fill="#EEECDB"/>
<path d="M1194.63 402.461H1200.31V396.776H1194.63V402.461Z" fill="#EEECDB"/>
<path d="M1173.89 402.461H1179.58V396.776H1173.89V402.461Z" fill="#EEECDB"/>
<path d="M1215.31 375.955V381.64H1221V375.955H1215.31Z" fill="#EEECDB"/>
<path d="M1215.31 355.243V360.928H1220.99V355.243H1215.31Z" fill="#EEECDB"/>
<path d="M1215.33 334.531V340.215H1221.02V334.531H1215.33Z" fill="#EEECDB"/>
<path d="M1215.33 313.819V319.503H1221.01V313.819H1215.33Z" fill="#EEECDB"/>
<path d="M1215.32 293.106V298.791H1221.01V293.106H1215.32Z" fill="#EEECDB"/>
<path d="M1194.6 375.959V381.644H1200.29V375.959H1194.6Z" fill="#EEECDB"/>
<path d="M1194.6 355.247V360.932H1200.28V355.247H1194.6Z" fill="#EEECDB"/>
<path d="M1194.62 334.535V340.219H1200.3V334.535H1194.62Z" fill="#EEECDB"/>
<path d="M1194.62 313.822V319.507H1200.3V313.822H1194.62Z" fill="#EEECDB"/>
<path d="M1194.61 293.111V298.795H1200.3V293.111H1194.61Z" fill="#EEECDB"/>
<path d="M1173.89 375.937V381.622H1179.57V375.937H1173.89Z" fill="#EEECDB"/>
<path d="M1173.89 355.225V360.91H1179.57V355.225H1173.89Z" fill="#EEECDB"/>
<path d="M1173.91 334.513V340.198H1179.59V334.513H1173.91Z" fill="#EEECDB"/>
<path d="M1173.9 313.801V319.486H1179.59V313.801H1173.9Z" fill="#EEECDB"/>
<path d="M1173.9 293.089V298.774H1179.58V293.089H1173.9Z" fill="#EEECDB"/>
<path d="M1215.32 272.394V278.079H1221V272.394H1215.32Z" fill="#EEECDB"/>
<path d="M1215.32 251.682V257.367H1221V251.682H1215.32Z" fill="#EEECDB"/>
<path d="M1215.31 230.97V236.655H1221V230.97H1215.31Z" fill="#EEECDB"/>
<path d="M1215.33 210.258V215.943H1221.02V210.258H1215.33Z" fill="#EEECDB"/>
<path d="M1194.61 272.398V278.083H1200.29V272.398H1194.61Z" fill="#EEECDB"/>
<path d="M1194.6 251.686V257.371H1200.29V251.686H1194.6Z" fill="#EEECDB"/>
<path d="M1194.6 230.974V236.659H1200.28V230.974H1194.6Z" fill="#EEECDB"/>
<path d="M1173.9 272.377V278.062H1179.58V272.377H1173.9Z" fill="#EEECDB"/>
<path d="M1173.89 251.665V257.35H1179.58V251.665H1173.89Z" fill="#EEECDB"/>
<path d="M1173.89 230.953V236.638H1179.57V230.953H1173.89Z" fill="#EEECDB"/>
<path d="M1215.33 417.498V423.183H1221.01V417.498H1215.33Z" fill="#EEECDB"/>
<path d="M1194.62 417.502V423.187H1200.3V417.502H1194.62Z" fill="#EEECDB"/>
<path d="M1173.91 417.481V423.166H1179.59V417.481H1173.91Z" fill="#EEECDB"/>
<path d="M1153.19 402.461H1158.87V396.776H1153.19V402.461Z" fill="#EEECDB"/>
<path d="M1132.48 402.461H1138.16V396.776H1132.48V402.461Z" fill="#EEECDB"/>
<path d="M1153.18 375.941V381.626H1158.86V375.941H1153.18Z" fill="#EEECDB"/>
<path d="M1153.17 355.229V360.914H1158.86V355.229H1153.17Z" fill="#EEECDB"/>
<path d="M1153.2 334.517V340.202H1158.88V334.517H1153.2Z" fill="#EEECDB"/>
<path d="M1153.19 313.805V319.49H1158.88V313.805H1153.19Z" fill="#EEECDB"/>
<path d="M1153.19 293.093V298.778H1158.87V293.093H1153.19Z" fill="#EEECDB"/>
<path d="M1132.47 375.945V381.63H1138.15V375.945H1132.47Z" fill="#EEECDB"/>
<path d="M1132.46 355.233V360.918H1138.15V355.233H1132.46Z" fill="#EEECDB"/>
<path d="M1132.48 334.521V340.206H1138.17V334.521H1132.48Z" fill="#EEECDB"/>
<path d="M1132.48 313.809V319.493H1138.16V313.809H1132.48Z" fill="#EEECDB"/>
<path d="M1132.48 293.097V298.781H1138.16V293.097H1132.48Z" fill="#EEECDB"/>
<path d="M1153.18 272.381V278.066H1158.87V272.381H1153.18Z" fill="#EEECDB"/>
<path d="M1153.18 251.669V257.354H1158.86V251.669H1153.18Z" fill="#EEECDB"/>
<path d="M1153.19 417.485V423.17H1158.88V417.485H1153.19Z" fill="#EEECDB"/>
<path d="M1132.48 417.489V423.174H1138.17V417.489H1132.48Z" fill="#EEECDB"/>
<path d="M1111.77 402.461H1117.45V396.776H1111.77V402.461Z" fill="#EEECDB"/>
<path d="M1091.06 402.461H1096.75V396.776H1091.06V402.461Z" fill="#EEECDB"/>
<path d="M1111.75 375.949V381.633H1117.44V375.949H1111.75Z" fill="#EEECDB"/>
<path d="M1111.75 355.237V360.922H1117.43V355.237H1111.75Z" fill="#EEECDB"/>
<path d="M1111.77 334.525V340.209H1117.46V334.525H1111.77Z" fill="#EEECDB"/>
<path d="M1111.77 313.812V319.497H1117.45V313.812H1111.77Z" fill="#EEECDB"/>
<path d="M1111.76 293.101V298.785H1117.45V293.101H1111.76Z" fill="#EEECDB"/>
<path d="M1091.04 375.953V381.637H1096.73V375.953H1091.04Z" fill="#EEECDB"/>
<path d="M1091.04 355.241V360.925H1096.72V355.241H1091.04Z" fill="#EEECDB"/>
<path d="M1091.06 334.528V340.213H1096.74V334.528H1091.06Z" fill="#EEECDB"/>
<path d="M1091.05 313.816V319.501H1096.74V313.816H1091.05Z" fill="#EEECDB"/>
<path d="M1111.77 417.493V423.177H1117.45V417.493H1111.77Z" fill="#EEECDB"/>
<path d="M1091.06 417.496V423.181H1096.74V417.496H1091.06Z" fill="#EEECDB"/>
<path d="M1070.35 402.461H1076.04V396.776H1070.35V402.461Z" fill="#EEECDB"/>
<path d="M1049.64 402.461H1055.33V396.776H1049.64V402.461Z" fill="#EEECDB"/>
<path d="M1070.33 375.956V381.641H1076.01V375.956H1070.33Z" fill="#EEECDB"/>
<path d="M1070.33 355.245V360.929H1076.01V355.245H1070.33Z" fill="#EEECDB"/>
<path d="M1070.35 334.532V340.217H1076.03V334.532H1070.35Z" fill="#EEECDB"/>
<path d="M1049.62 375.961V381.645H1055.3V375.961H1049.62Z" fill="#EEECDB"/>
<path d="M1049.61 355.248V360.933H1055.3V355.248H1049.61Z" fill="#EEECDB"/>
<path d="M1049.63 334.536V340.221H1055.32V334.536H1049.63Z" fill="#EEECDB"/>
<path d="M1070.35 417.5V423.185H1076.03V417.5H1070.35Z" fill="#EEECDB"/>
<path d="M1049.63 417.504V423.189H1055.32V417.504H1049.63Z" fill="#EEECDB"/>
<path d="M1028.91 402.461H1034.6V396.776H1028.91V402.461Z" fill="#EEECDB"/>
<path d="M1008.2 402.461H1013.89V396.776H1008.2V402.461Z" fill="#EEECDB"/>
<path d="M1028.91 375.939V381.623H1034.59V375.939H1028.91Z" fill="#EEECDB"/>
<path d="M1008.19 375.943V381.627H1013.88V375.943H1008.19Z" fill="#EEECDB"/>
<path d="M1028.92 417.482V423.167H1034.61V417.482H1028.92Z" fill="#EEECDB"/>
<path d="M1008.21 417.486V423.171H1013.89V417.486H1008.21Z" fill="#EEECDB"/>
<path d="M987.494 402.461H993.179V396.776H987.494V402.461Z" fill="#EEECDB"/>
<path d="M966.786 402.461H972.471V396.776H966.786V402.461Z" fill="#EEECDB"/>
<path d="M987.48 375.946V381.631H993.165V375.946H987.48Z" fill="#EEECDB"/>
<path d="M966.769 375.95V381.635H972.453V375.95H966.769Z" fill="#EEECDB"/>
<path d="M987.497 417.49V423.175H993.182V417.49H987.497Z" fill="#EEECDB"/>
<path d="M966.785 417.494V423.179H972.47V417.494H966.785Z" fill="#EEECDB"/>
<path d="M946.077 402.461H951.762V396.776H946.077V402.461Z" fill="#EEECDB"/>
<path d="M925.369 402.461H931.054V396.776H925.369V402.461Z" fill="#EEECDB"/>
<path d="M946.056 375.954V381.639H951.74V375.954H946.056Z" fill="#EEECDB"/>
<path d="M925.344 375.958V381.643H931.028V375.958H925.344Z" fill="#EEECDB"/>
<path d="M946.072 417.498V423.183H951.757V417.498H946.072Z" fill="#EEECDB"/>
<path d="M925.36 417.502V423.187H931.045V417.502H925.36Z" fill="#EEECDB"/>
<path d="M904.636 402.461H910.32V396.776H904.636V402.461Z" fill="#EEECDB"/>
<path d="M883.928 402.461H889.612V396.776H883.928V402.461Z" fill="#EEECDB"/>
<path d="M904.632 375.936V381.621H910.317V375.936H904.632Z" fill="#EEECDB"/>
<path d="M883.92 375.941V381.625H889.605V375.941H883.92Z" fill="#EEECDB"/>
<path d="M904.648 417.48V423.165H910.333V417.48H904.648Z" fill="#EEECDB"/>
<path d="M883.937 417.484V423.169H889.621V417.484H883.937Z" fill="#EEECDB"/>
</g>
<g opacity="0.3">
<path d="M5.6945 20.7194H0.00976562V26.4041H5.6945V20.7194Z" fill="#8F845A"/>
<path d="M26.4103 20.7194H20.7256V26.4041H26.4103V20.7194Z" fill="#8F845A"/>
<path d="M47.1008 20.7194H41.416V26.4041H47.1008V20.7194Z" fill="#8F845A"/>
<path d="M5.68848 47.2448L5.68848 41.5601H0.00373363L0.00373363 47.2448H5.68848Z" fill="#8F845A"/>
<path d="M5.68457 67.9569L5.68457 62.2722H-0.000172615L-0.000172615 67.9569H5.68457Z" fill="#8F845A"/>
<path d="M5.70605 88.6686L5.70605 82.9839H0.0213118L0.0213118 88.6686H5.70605Z" fill="#8F845A"/>
<path d="M5.70215 109.381L5.70215 103.696H0.0174251L0.0174251 109.381H5.70215Z" fill="#8F845A"/>
<path d="M5.69824 130.093L5.69824 124.408H0.0134993L0.0134993 130.093H5.69824Z" fill="#8F845A"/>
<path d="M26.4014 47.2486V41.5639H20.7166V47.2486H26.4014Z" fill="#8F845A"/>
<path d="M26.3965 67.9608V62.2761H20.7117V67.9608H26.3965Z" fill="#8F845A"/>
<path d="M26.418 88.6727V82.988H20.7332V88.6727H26.418Z" fill="#8F845A"/>
<path d="M26.415 109.385V103.7H20.7303V109.385H26.415Z" fill="#8F845A"/>
<path d="M26.4102 130.097V124.412H20.7254V130.097H26.4102Z" fill="#8F845A"/>
<path d="M47.1123 47.2527V41.568H41.4276V47.2527H47.1123Z" fill="#8F845A"/>
<path d="M47.1094 67.939V62.2543H41.4246V67.939H47.1094Z" fill="#8F845A"/>
<path d="M47.1309 88.651V82.9662H41.4461V88.651H47.1309Z" fill="#8F845A"/>
<path d="M47.127 109.389V103.704H41.4422V109.389H47.127Z" fill="#8F845A"/>
<path d="M47.123 130.101V124.416H41.4383V130.101H47.123Z" fill="#8F845A"/>
<path d="M5.69434 150.805L5.69434 145.12H0.00961256L0.00961256 150.805H5.69434Z" fill="#8F845A"/>
<path d="M5.69043 171.517L5.69043 165.832H0.00572538L0.00572538 171.517H5.69043Z" fill="#8F845A"/>
<path d="M5.68652 192.229L5.68652 186.544H0.00178051L0.00178051 192.229H5.68652Z" fill="#8F845A"/>
<path d="M5.70801 212.941L5.70801 207.256H0.0232649L0.0232649 212.941H5.70801Z" fill="#8F845A"/>
<path d="M26.4072 150.809V145.125H20.7225V150.809H26.4072Z" fill="#8F845A"/>
<path d="M26.4023 171.521V165.836H20.7176V171.521H26.4023Z" fill="#8F845A"/>
<path d="M26.3984 192.233V186.548H20.7137V192.233H26.3984Z" fill="#8F845A"/>
<path d="M5.7041 233.653L5.7041 227.969H0.0193586L0.0193586 233.653H5.7041Z" fill="#8F845A"/>
<path d="M47.1191 150.813V145.128H41.4344V150.813H47.1191Z" fill="#8F845A"/>
<path d="M5.70508 5.70091L5.70508 0.0161743L0.0203352 0.0161743L0.0203352 5.70091L5.70508 5.70091Z" fill="#8F845A"/>
<path d="M26.417 5.70463V0.0198975L20.7322 0.0198975V5.70463L26.417 5.70463Z" fill="#8F845A"/>
<path d="M47.1289 5.70878V0.0240479L41.4442 0.0240479V5.70878L47.1289 5.70878Z" fill="#8F845A"/>
<path d="M67.8166 20.7194H62.1318V26.4041H67.8166V20.7194Z" fill="#8F845A"/>
<path d="M88.5324 20.7194H82.8477V26.4041H88.5324V20.7194Z" fill="#8F845A"/>
<path d="M67.8252 47.231V41.5463H62.1405V47.231H67.8252Z" fill="#8F845A"/>
<path d="M67.8213 67.9429V62.2581H62.1365V67.9429H67.8213Z" fill="#8F845A"/>
<path d="M67.8428 88.6548V82.97H62.158V88.6548H67.8428Z" fill="#8F845A"/>
<path d="M67.8389 109.367V103.682H62.1541V109.367H67.8389Z" fill="#8F845A"/>
<path d="M88.5371 47.235V41.5503H82.8524V47.235H88.5371Z" fill="#8F845A"/>
<path d="M67.8408 5.687V0.0022583L62.1561 0.0022583V5.687L67.8408 5.687Z" fill="#8F845A"/>
<path d="M88.5537 5.69113V0.00640869L82.869 0.00640869V5.69113L88.5537 5.69113Z" fill="#8F845A"/>
<path d="M109.248 20.7194H103.563V26.4041H109.248V20.7194Z" fill="#8F845A"/>
<path d="M129.964 20.7194H124.279V26.4041H129.964V20.7194Z" fill="#8F845A"/>
<path d="M109.249 47.2389V41.5541H103.564V47.2389H109.249Z" fill="#8F845A"/>
<path d="M129.962 47.2427V41.558H124.277V47.2427H129.962Z" fill="#8F845A"/>
<path d="M109.266 5.69494V0.0101929L103.581 0.0101929V5.69494L109.266 5.69494Z" fill="#8F845A"/>
<path d="M129.978 5.69878V0.0140381L124.293 0.0140381V5.69878L129.978 5.69878Z" fill="#8F845A"/>
<path d="M150.681 20.7194H144.996V26.4041H150.681V20.7194Z" fill="#8F845A"/>
<path d="M171.397 20.7194H165.712V26.4041H171.397V20.7194Z" fill="#8F845A"/>
<path d="M150.674 47.2465V41.5618H144.989V47.2465H150.674Z" fill="#8F845A"/>
<path d="M171.386 47.2504V41.5657H165.701V47.2504H171.386Z" fill="#8F845A"/>
<path d="M150.689 5.70263V0.0178833L145.005 0.0178833V5.70263L150.689 5.70263Z" fill="#8F845A"/>
<path d="M171.402 5.70653V0.0217896L165.718 0.0217896V5.70653L171.402 5.70653Z" fill="#8F845A"/>
<path d="M192.087 20.7194H186.402V26.4041H192.087V20.7194Z" fill="#8F845A"/>
<path d="M212.803 20.7194H207.118V26.4041H212.803V20.7194Z" fill="#8F845A"/>
<path d="M192.098 47.2286V41.5439H186.413V47.2286H192.098Z" fill="#8F845A"/>
<path d="M212.81 47.2325V41.5477H207.125V47.2325H212.81Z" fill="#8F845A"/>
<path d="M192.114 5.68474V0L186.43 0V5.68474L192.114 5.68474Z" fill="#8F845A"/>
<path d="M212.826 5.68853V0.00378418L207.141 0.00378418V5.68853L212.826 5.68853Z" fill="#8F845A"/>
<path d="M233.519 20.7194H227.834V26.4041H233.519V20.7194Z" fill="#8F845A"/>
<path d="M254.235 20.7194H248.55V26.4041H254.235V20.7194Z" fill="#8F845A"/>
<path d="M233.522 47.2364V41.5516H227.838V47.2364H233.522Z" fill="#8F845A"/>
<path d="M233.538 5.69237V0.00762939L227.853 0.00762939V5.69237L233.538 5.69237Z" fill="#8F845A"/>
<path d="M254.25 5.69652V0.0117798L248.565 0.0117798V5.69652L254.25 5.69652Z" fill="#8F845A"/>
<path d="M274.95 20.7194H269.266V26.4041H274.95V20.7194Z" fill="#8F845A"/>
<path d="M295.667 20.7194H289.982V26.4041H295.667V20.7194Z" fill="#8F845A"/>
<path d="M274.963 5.70033V0.015625L269.278 0.015625V5.70033L274.963 5.70033Z" fill="#8F845A"/>
<path d="M295.675 5.70421V0.0194702L289.99 0.0194702V5.70421L295.675 5.70421Z" fill="#8F845A"/>
<path d="M316.387 5.708V0.0232544L310.702 0.0232544V5.708L316.387 5.708Z" fill="#8F845A"/>
<path d="M337.099 5.68633V0.00158691L331.414 0.00158691V5.68633L337.099 5.68633Z" fill="#8F845A"/>
</g>
</svg>
