<svg width="79" height="79" viewBox="0 0 79 79" fill="none" xmlns="http://www.w3.org/2000/svg">
<path d="M41.3173 68.651H35.3923C34.8393 68.651 34.4443 68.256 34.4443 67.703V63.121C34.4443 62.568 34.8393 62.173 35.3923 62.173H41.3173C41.8703 62.173 42.2653 62.568 42.2653 63.121V67.703C42.2653 68.256 41.8703 68.651 41.3173 68.651Z" fill="url(#paint0_linear_968_89)"/>
<path d="M73.7071 63.911C73.7861 66.676 71.6531 69.046 68.8881 69.204L66.5181 69.362L52.6141 70.152L46.4521 70.547C43.2131 70.942 41.2381 70.152 40.6061 68.256C40.6061 68.177 40.5271 68.098 40.5271 68.019C38.9471 62.884 43.1341 58.697 52.6141 55.379C57.5911 53.799 62.7261 53.325 68.0981 53.72C68.5721 53.72 69.1251 53.799 69.5991 53.878C71.8901 54.115 73.6281 56.09 73.6281 58.381V59.724L73.7071 63.911Z" fill="#EEECDB"/>
<path d="M67.4662 65.412C67.4662 66.834 67.0712 68.177 66.4392 69.362L52.5352 70.152C51.5872 68.809 51.0342 67.15 51.0342 65.412C51.0342 60.909 54.7472 57.196 59.2502 57.196C63.7532 57.196 67.4662 60.909 67.4662 65.412Z" fill="url(#paint1_linear_968_89)"/>
<path d="M34.5234 63.437C32.2324 61.304 27.0974 55.537 32.2324 45.504C32.7064 44.635 43.5294 24.174 38.4734 13.667C37.0514 10.744 34.5234 8.84801 31.0474 8.05801V11.297C33.1804 11.929 34.6814 13.193 35.6294 15.089C39.9744 24.095 29.5464 43.845 29.3884 44.082C21.0934 60.435 34.3654 67.308 34.4444 67.387V63.437H34.5234Z" fill="#EEECDB"/>
<path d="M62.6467 72.838C66.748 72.838 70.0727 69.5133 70.0727 65.412C70.0727 61.3107 66.748 57.986 62.6467 57.986C58.5454 57.986 55.2207 61.3107 55.2207 65.412C55.2207 69.5133 58.5454 72.838 62.6467 72.838Z" fill="#EEECDB"/>
<path d="M62.6469 68.098C61.1459 68.098 59.9609 66.913 59.9609 65.412C59.9609 63.911 61.1459 62.726 62.6469 62.726C64.1479 62.726 65.3329 63.911 65.3329 65.412C65.3329 66.913 64.0689 68.098 62.6469 68.098Z" fill="#EEECDB"/>
<path d="M70.0728 49.612C68.8088 50.955 68.0978 52.298 68.0188 53.799C62.6468 53.404 57.5118 53.878 52.5348 55.458C43.0548 58.776 38.8678 62.884 40.4478 68.019C40.4478 68.098 40.5268 68.177 40.5268 68.256C40.2898 67.861 36.6558 61.541 42.9758 55.932C42.9758 55.932 46.7678 51.745 56.9588 50.165C58.2228 50.007 59.6448 49.77 61.0668 49.691C62.3308 49.612 63.7528 49.533 65.2538 49.533H70.0728V49.612Z" fill="#EEECDB"/>
<path d="M63.2787 49.612C60.1977 49.77 57.3537 50.165 54.7467 50.56C54.8257 48.19 56.7217 46.294 59.0917 46.294C61.0667 46.294 62.8047 47.716 63.2787 49.612ZM21.1717 19.039V16.906C21.1717 13.825 23.6997 11.297 26.7807 11.218V8.05801C21.9617 8.13701 18.0117 12.008 18.0117 16.906V19.039H21.1717Z" fill="url(#paint2_linear_968_89)"/>
<path d="M21.2508 25.201H18.0908V64.385H21.2508V25.201Z" fill="#EEECDB"/>
<path d="M22.9895 63.595H16.3535L14.0625 68.493H25.2805L22.9895 63.595Z" fill="#EEECDB"/>
<path d="M31.758 69.915V73.154H7.58398V69.915C7.58398 69.125 8.21598 68.493 9.00598 68.493H30.415C31.126 68.493 31.758 69.125 31.758 69.915Z" fill="url(#paint3_linear_968_89)"/>
<path d="M30.4154 13.43H27.0974C26.7814 13.43 26.5444 13.193 26.5444 12.877V6.39898C26.5444 6.08298 26.7814 5.84598 27.0974 5.84598H30.4154C30.7314 5.84598 30.9684 6.08298 30.9684 6.39898V12.877C30.9684 13.193 30.7314 13.43 30.4154 13.43ZM23.0684 19.987V23.7C23.0684 24.411 22.5154 24.964 21.8044 24.964H17.5384C16.8274 24.964 16.2744 24.411 16.2744 23.7V19.987C16.2744 19.276 16.8274 18.723 17.5384 18.723H21.8044C22.5154 18.802 23.0684 19.355 23.0684 19.987Z" fill="url(#paint4_linear_968_89)"/>
<path d="M2.84404 72.285H1.58004C1.10604 72.285 0.790039 72.601 0.790039 73.075C0.790039 73.549 1.10604 73.865 1.58004 73.865H2.84404C3.31804 73.865 3.63404 73.549 3.63404 73.075C3.63404 72.601 3.31804 72.285 2.84404 72.285ZM77.42 72.285H75.366C74.892 72.285 74.576 72.601 74.576 73.075C74.576 73.549 74.892 73.865 75.366 73.865H77.42C77.894 73.865 78.21 73.549 78.21 73.075C78.21 72.601 77.815 72.285 77.42 72.285ZM69.441 69.994C72.364 69.52 74.576 66.992 74.418 63.911C74.418 63.437 74.023 63.121 73.628 63.121C73.154 63.121 72.838 63.516 72.838 63.911C72.917 65.728 71.89 67.308 70.31 68.019C70.547 67.229 70.705 66.36 70.705 65.412C70.705 60.909 66.992 57.196 62.489 57.196C57.986 57.196 54.273 60.909 54.273 65.412C54.273 66.755 54.589 68.098 55.221 69.204L46.136 69.757C41.949 70.31 41.317 68.572 41.08 68.019C41.08 68.019 41.08 68.019 41.08 67.94L41.001 67.782C39.184 61.857 46.768 58.223 52.614 56.169C57.986 54.431 63.674 54.115 69.283 54.747C71.179 54.984 72.601 56.564 72.601 58.46V59.171V59.961C72.601 60.356 72.996 60.751 73.391 60.751C73.865 60.751 74.181 60.356 74.181 59.961V59.25V58.46C74.181 55.695 72.127 53.404 69.441 53.167C69.204 53.167 68.967 53.088 68.73 53.088C68.967 52.061 69.52 51.113 70.468 50.165C70.705 49.928 70.784 49.612 70.626 49.296C70.468 48.98 70.231 48.822 69.915 48.822H65.096C64.622 48.822 64.148 48.822 63.674 48.822C62.963 46.847 61.067 45.504 58.855 45.504C56.248 45.504 54.115 47.479 53.799 49.928C45.899 51.666 42.66 54.984 42.265 55.379C39.974 57.354 38.947 59.487 38.552 61.383H35.234C34.76 61.383 34.286 61.62 33.97 61.936C30.02 57.591 29.546 52.14 32.785 45.899C33.259 45.03 44.319 24.174 39.105 13.351C37.683 10.349 35.155 8.37403 31.679 7.42603V6.39903C31.679 5.68803 31.047 5.05603 30.336 5.05603H27.018C26.307 5.05603 25.675 5.68803 25.675 6.39903V7.34703C20.856 7.90003 17.064 11.929 17.064 16.906V18.012C16.116 18.17 15.326 19.039 15.326 19.987V23.7C15.326 24.727 16.116 25.596 17.143 25.754V62.805H16.195C15.879 62.805 15.642 62.963 15.484 63.279L13.43 67.703H8.84804C7.66304 67.703 6.63604 68.651 6.63604 69.915V72.364H6.16204C5.68804 72.364 5.37204 72.68 5.37204 73.154C5.37204 73.628 5.68804 73.944 6.16204 73.944C64.701 73.944 19.671 73.944 72.206 73.944C72.68 73.944 72.996 73.628 72.996 73.154C72.996 72.68 72.68 72.364 72.206 72.364H67.071C68.019 71.732 68.888 70.863 69.441 69.994ZM55.616 49.612C56.09 48.19 57.433 47.084 59.013 47.084C60.356 47.084 61.462 47.795 62.094 48.901H62.015C61.699 48.901 61.304 48.901 60.988 48.98C59.566 49.059 58.144 49.217 56.801 49.454C56.485 49.533 56.169 49.533 55.853 49.612C55.774 49.533 55.695 49.533 55.616 49.612ZM43.45 56.564C43.529 56.485 43.529 56.485 43.45 56.564C43.529 56.485 47.005 52.772 56.011 51.192C58.144 50.876 60.277 50.639 62.41 50.481C63.99 50.402 64.385 50.402 68.335 50.402C67.782 51.192 67.466 52.061 67.229 52.93C64.306 52.772 61.225 52.851 58.381 53.246C56.169 53.562 53.957 54.115 52.219 54.668C52.14 54.668 52.061 54.747 52.061 54.747C47.874 56.169 42.344 58.697 40.211 62.568C40.132 62.647 40.053 62.805 40.053 62.884C40.132 60.988 41.001 58.697 43.45 56.564ZM35.234 63.121C35.234 63.042 35.313 62.963 35.392 62.963H38.473C38.394 65.096 39.026 66.913 39.421 67.861H35.392C35.313 67.861 35.234 67.782 35.234 67.703V63.121ZM31.837 9.08503C34.602 9.95403 36.577 11.613 37.762 14.062C42.66 24.174 31.995 44.319 31.521 45.188C27.887 52.377 28.598 58.776 33.654 63.753V65.965C30.652 63.753 23.779 57.117 30.099 44.477C30.573 43.687 40.843 24.095 36.34 14.773C35.392 12.877 33.891 11.534 31.837 10.823V9.08503ZM27.334 6.71503H30.178V12.64H27.334V6.71503ZM25.754 8.92703V10.507C22.673 10.981 20.303 13.667 20.303 16.906V18.012H18.723V16.906C18.802 12.877 21.883 9.48003 25.754 8.92703ZM17.064 23.7V19.987C17.064 19.75 17.301 19.513 17.538 19.513H21.804C22.041 19.513 22.278 19.75 22.278 19.987V23.7C22.278 23.937 22.041 24.174 21.804 24.174H17.538C17.301 24.174 17.064 24.016 17.064 23.7ZM18.881 25.991H20.461V62.884H18.881V25.991ZM16.827 64.385H22.515L24.016 67.703H15.326L16.827 64.385ZM8.37404 72.285V69.836C8.37404 69.52 8.61104 69.204 9.00604 69.204C17.933 69.204 21.251 69.204 30.415 69.204C30.731 69.204 31.047 69.441 31.047 69.836V72.285H8.37404ZM32.548 72.285V69.836C32.548 68.651 31.6 67.624 30.336 67.624H25.754L23.7 63.279C23.542 62.963 23.305 62.805 22.989 62.805H22.041V25.754C23.068 25.675 23.858 24.806 23.858 23.7V19.987C23.858 18.881 22.989 18.012 21.962 17.933V16.827C21.962 14.536 23.621 12.561 25.833 12.087V12.798C25.833 13.509 26.465 14.141 27.176 14.141H30.494C31.205 14.141 31.837 13.509 31.837 12.798V12.324C33.338 12.956 34.365 13.904 34.997 15.326C39.184 23.937 28.914 43.45 28.756 43.608C21.014 58.855 31.363 66.281 33.654 67.703C33.654 68.651 34.444 69.362 35.392 69.362H40.211C41.08 70.705 42.581 71.337 44.714 71.337C45.267 71.337 45.82 71.337 46.373 71.258L56.327 70.705C56.88 71.337 57.433 71.811 58.144 72.285H32.548ZM62.647 72.048C59.013 72.048 56.011 69.046 56.011 65.412C56.011 61.778 59.013 58.776 62.647 58.776C66.281 58.776 69.283 61.778 69.283 65.412C69.283 69.125 66.281 72.048 62.647 72.048Z" fill="#173649"/>
<path d="M62.6469 61.936C60.7509 61.936 59.1709 63.516 59.1709 65.412C59.1709 67.308 60.7509 68.888 62.6469 68.888C64.5429 68.888 66.1229 67.308 66.1229 65.412C66.1229 63.516 64.5429 61.936 62.6469 61.936ZM62.6469 67.308C61.6199 67.308 60.7509 66.439 60.7509 65.412C60.7509 64.385 61.6199 63.516 62.6469 63.516C63.6739 63.516 64.5429 64.385 64.5429 65.412C64.5429 66.439 63.6739 67.308 62.6469 67.308Z" fill="#173649"/>
<defs>
<linearGradient id="paint0_linear_968_89" x1="34.6252" y1="61.2771" x2="43.4021" y2="62.3504" gradientUnits="userSpaceOnUse">
<stop stop-color="#8F845A"/>
<stop offset="0.16" stop-color="#C6BC84"/>
<stop offset="0.665" stop-color="#EFE7A3"/>
<stop offset="1" stop-color="#A59A6A"/>
</linearGradient>
<linearGradient id="paint1_linear_968_89" x1="51.4141" y1="55.4042" x2="69.8264" y2="57.7695" gradientUnits="userSpaceOnUse">
<stop stop-color="#8F845A"/>
<stop offset="0.16" stop-color="#C6BC84"/>
<stop offset="0.665" stop-color="#EFE7A3"/>
<stop offset="1" stop-color="#A59A6A"/>
</linearGradient>
<linearGradient id="paint2_linear_968_89" x1="19.0584" y1="2.18008" x2="70.0245" y2="7.67827" gradientUnits="userSpaceOnUse">
<stop stop-color="#8F845A"/>
<stop offset="0.16" stop-color="#C6BC84"/>
<stop offset="0.665" stop-color="#EFE7A3"/>
<stop offset="1" stop-color="#A59A6A"/>
</linearGradient>
<linearGradient id="paint3_linear_968_89" x1="8.14292" y1="67.8484" x2="29.7219" y2="79.1845" gradientUnits="userSpaceOnUse">
<stop stop-color="#8F845A"/>
<stop offset="0.16" stop-color="#C6BC84"/>
<stop offset="0.665" stop-color="#EFE7A3"/>
<stop offset="1" stop-color="#A59A6A"/>
</linearGradient>
<linearGradient id="paint4_linear_968_89" x1="16.6142" y1="3.202" x2="33.2499" y2="4.4971" gradientUnits="userSpaceOnUse">
<stop stop-color="#8F845A"/>
<stop offset="0.16" stop-color="#C6BC84"/>
<stop offset="0.665" stop-color="#EFE7A3"/>
<stop offset="1" stop-color="#A59A6A"/>
</linearGradient>
</defs>
</svg>
