<svg width="115" height="19" viewBox="0 0 115 19" fill="none" xmlns="http://www.w3.org/2000/svg">
<g clip-path="url(#clip0_1618_12678)">
<path d="M0.69043 1.2981H3.02316V17.6098H0.69043V1.2981Z" fill="white"/>
<path d="M10.4992 1.29839H13.2478L5.83881 8.91242L13.801 17.6101H10.9226L3.02344 8.97536L10.4992 1.29839Z" fill="white"/>
<path d="M15.3193 1.29839H26.8329V3.20529H17.6508V8.24593H26.2948V10.1553H17.6508V15.7007H27.1933V17.6101H15.3193V1.29839Z" fill="white"/>
<path d="M29.6797 1.29839H32.3451L41.2651 14.4467V1.29839H43.599V17.6101H40.9324L32.0099 4.46298V17.6101H29.6797V1.29839Z" fill="white"/>
<path d="M102.881 15.7006H106.763C108.31 15.7006 109.618 15.0637 110.54 13.9616C111.464 12.8631 111.998 11.303 111.998 9.45659C111.998 7.60647 111.464 6.04515 110.54 4.94791C109.618 3.8445 108.31 3.20517 106.763 3.20517H102.881V15.7006ZM100.548 1.29827H106.881C109.39 1.29827 111.245 2.24246 112.468 3.73219C113.698 5.22068 114.298 7.26335 114.298 9.45659C114.298 11.6461 113.698 13.6876 112.468 15.1773C111.245 16.6707 109.39 17.61 106.881 17.61H100.548V1.29827Z" fill="white"/>
<path d="M58.8722 13.7486L63.9875 1.29885H66.3454L58.9756 18.7374L55.6863 11.5011L52.3883 18.7374L45.0234 1.29885H47.3813L52.4904 13.7486L55.6863 7.09978L58.8722 13.7486Z" fill="white"/>
<path d="M52.8984 1.29831H58.4649L55.6848 7.09924L52.8984 1.29831Z" fill="white"/>
<path d="M94.9128 14.0281C95.7962 12.7606 96.2197 11.0894 96.2197 9.45652C96.2197 7.82239 95.7962 6.14752 94.9128 4.88243C94.0218 3.6124 92.6683 2.75953 90.8057 2.75953C88.938 2.75953 87.5883 3.6124 86.6985 4.88243C85.8138 6.14752 85.3891 7.82239 85.3891 9.45652C85.3891 11.0894 85.8138 12.7606 86.6985 14.0281C87.5883 15.2932 88.938 16.1486 90.8057 16.1486C92.6683 16.1486 94.0218 15.2932 94.9128 14.0281ZM90.8057 18.1061C88.5561 18.1061 86.6431 17.2088 85.2934 15.6759C83.9386 14.1429 83.1484 11.9818 83.1484 9.45652C83.1484 6.9288 83.9386 4.76394 85.2934 3.23348C86.6431 1.70056 88.5561 0.798328 90.8057 0.798328C93.0514 0.798328 94.9645 1.70056 96.318 3.23348C97.6702 4.76394 98.4578 6.9288 98.4578 9.45652C98.4578 11.9818 97.6702 14.1429 96.318 15.6759C94.9645 17.2088 93.0514 18.1061 90.8057 18.1061Z" fill="white"/>
<path d="M77.7999 14.0281C78.6871 12.7606 79.108 11.0894 79.108 9.45652C79.108 7.82239 78.6871 6.14752 77.7999 4.88243C76.914 3.6124 75.5579 2.75953 73.6953 2.75953C71.8302 2.75953 70.4767 3.6124 69.5882 4.88243C68.701 6.14752 68.2788 7.82239 68.2788 9.45652C68.2788 11.0894 68.701 12.7606 69.5882 14.0281C70.4767 15.2932 71.8302 16.1486 73.6953 16.1486C75.5579 16.1486 76.914 15.2932 77.7999 14.0281ZM73.6953 18.1061C71.4508 18.1061 69.5327 17.2088 68.1805 15.6759C66.8283 14.1429 66.0381 11.9818 66.0381 9.45652C66.0381 6.9288 66.8283 4.76394 68.1805 3.23348C69.5327 1.70056 71.4508 0.798328 73.6953 0.798328C75.9411 0.798328 77.8579 1.70056 79.2076 3.23348C80.5573 4.76394 81.3525 6.9288 81.3525 9.45652C81.3525 11.9818 80.5573 14.1429 79.2076 15.6759C77.8579 17.2088 75.9411 18.1061 73.6953 18.1061Z" fill="white"/>
</g>
<defs>
<clipPath id="clip0_1618_12678">
<rect width="113.708" height="18" fill="white" transform="translate(0.643555 0.738037)"/>
</clipPath>
</defs>
</svg>
