<svg width="79" height="79" viewBox="0 0 79 79" fill="none" xmlns="http://www.w3.org/2000/svg">
<path d="M78.0578 19.353V58.903C78.0578 61.1684 76.2214 63.0048 73.956 63.0048H5.04421C2.77882 63.0048 0.942383 61.1684 0.942383 58.903V19.353C0.942383 17.0876 2.77882 15.2512 5.04421 15.2512H73.956C76.2214 15.2512 78.0578 17.0876 78.0578 19.353Z" fill="#EEECDB"/>
<path d="M8.65332 53.1603V25.0953C8.65332 24.1891 9.38793 23.4545 10.2941 23.4545H54.932C55.8382 23.4545 56.5728 24.1891 56.5728 25.0953V53.1603C56.5728 54.0665 55.8382 54.8011 54.932 54.8011H10.294C9.38793 54.8011 8.65332 54.0665 8.65332 53.1603Z" fill="#EEECDB"/>
<path d="M72.5412 13.7898V15.2502H6.45801V13.7898C6.45801 12.4306 7.55984 11.3286 8.9192 11.3286H70.08C71.4392 11.3286 72.5412 12.4304 72.5412 13.7898Z" fill="url(#paint0_linear_969_114)"/>
<path d="M13.711 63.0049L12.3012 67.6712H9.02813L7.61816 63.0049H13.711Z" fill="url(#paint1_linear_969_114)"/>
<path d="M71.3819 63.0049L69.972 67.6712H66.6989L65.2891 63.0049H71.3819Z" fill="url(#paint2_linear_969_114)"/>
<path d="M67.5556 50.9995C69.5673 50.9995 71.1981 49.3687 71.1981 47.357C71.1981 45.3453 69.5673 43.7145 67.5556 43.7145C65.5439 43.7145 63.9131 45.3453 63.9131 47.357C63.9131 49.3687 65.5439 50.9995 67.5556 50.9995Z" fill="url(#paint3_linear_969_114)"/>
<path d="M73.9561 14.4304H73.362V13.7895C73.362 11.9797 71.8899 10.5079 70.0804 10.5079H8.91992C7.11048 10.5079 5.63834 11.9796 5.63834 13.7895V14.4304H5.0443C2.33006 14.4304 0.12207 16.6384 0.12207 19.3527V58.9031C0.12207 61.6174 2.33006 63.8253 5.0443 63.8253H7.00911L8.24287 67.9088C8.34748 68.2549 8.66626 68.4921 9.02793 68.4921H12.301C12.6627 68.4921 12.9816 68.2549 13.0866 67.9088L14.32 63.8253H64.6802L65.9136 67.9088C66.0186 68.2549 66.3375 68.4921 66.6992 68.4921H69.9723C70.3339 68.4921 70.6529 68.2549 70.7573 67.9088L71.9911 63.8253H73.9559C76.6701 63.8253 78.8781 61.6174 78.8781 58.9031V19.3527C78.8783 16.6383 76.6703 14.4304 73.9561 14.4304ZM7.27913 13.7895C7.27913 12.885 8.01497 12.1487 8.91992 12.1487H70.0806C70.9855 12.1487 71.7214 12.885 71.7214 13.7895V14.4297H7.27913V13.7895ZM11.6919 66.8513H9.63725L8.72273 63.8253H12.6059L11.6919 66.8513ZM69.3631 66.8513H67.3085L66.3944 63.8253H70.2776L69.3631 66.8513ZM77.2376 58.9031C77.2376 60.7129 75.7655 62.1847 73.9561 62.1847C61.3809 62.1847 19.3569 62.1847 5.0443 62.1847C3.23486 62.1847 1.76271 60.713 1.76271 58.9031V19.3527C1.76271 17.5429 3.23486 16.0711 5.0443 16.0711H73.9561C75.7655 16.0711 77.2376 17.5428 77.2376 19.3527V58.9031Z" fill="#173649"/>
<path d="M54.932 22.6341H10.2942C8.937 22.6341 7.83301 23.7381 7.83301 25.0953V53.1603C7.83301 54.5175 8.937 55.6215 10.2942 55.6215H54.932C56.2892 55.6215 57.3932 54.5175 57.3932 53.1603V25.0953C57.3932 23.7381 56.2892 22.6341 54.932 22.6341ZM55.7524 53.1603C55.7524 53.613 55.3842 53.9807 54.932 53.9807H10.2942C9.84195 53.9807 9.4738 53.613 9.4738 53.1603V25.0953C9.4738 24.6426 9.84195 24.2749 10.2942 24.2749H54.932C55.3842 24.2749 55.7524 24.6426 55.7524 25.0953V53.1603Z" fill="#173649"/>
<path d="M50.7091 33.5699C50.2561 33.5699 49.8887 33.9368 49.8887 34.3903C49.8887 34.8438 50.2561 35.2107 50.7091 35.2107C51.6805 35.2107 52.4708 36.0007 52.4708 36.9724V41.2843C52.4708 42.256 51.6805 43.046 50.7091 43.046C50.2561 43.046 49.8887 43.4129 49.8887 43.8664C49.8887 44.3199 50.2561 44.6868 50.7091 44.6868C52.5853 44.6868 54.1116 43.1607 54.1116 41.2843V36.9724C54.1115 35.096 52.5853 33.5699 50.7091 33.5699ZM67.5552 42.8945C65.0945 42.8945 63.0923 44.8965 63.0923 47.3569C63.0923 49.8181 65.0943 51.8201 67.5552 51.8201C70.0161 51.8201 72.0181 49.8181 72.0181 47.3569C72.0181 44.8965 70.0159 42.8945 67.5552 42.8945ZM67.5552 50.1793C65.999 50.1793 64.7331 48.9135 64.7331 47.3569C64.7331 45.8012 65.999 44.5353 67.5552 44.5353C69.1114 44.5353 70.3773 45.8012 70.3773 47.3569C70.3773 48.9135 69.1114 50.1793 67.5552 50.1793ZM63.0483 53.9807H62.5989C62.1459 53.9807 61.7785 54.3477 61.7785 54.8011C61.7785 55.2546 62.1459 55.6215 62.5989 55.6215H63.0483C63.5014 55.6215 63.8687 55.2546 63.8687 54.8011C63.8687 54.3477 63.5014 53.9807 63.0483 53.9807ZM72.512 53.9807H72.0622C71.6092 53.9807 71.2418 54.3477 71.2418 54.8011C71.2418 55.2546 71.6092 55.6215 72.0622 55.6215H72.512C72.965 55.6215 73.3324 55.2546 73.3324 54.8011C73.3322 54.3477 72.965 53.9807 72.512 53.9807ZM62.4182 24.2749H63.2923C63.7453 24.2749 64.1127 23.908 64.1127 23.4545C64.1127 23.001 63.7453 22.6341 63.2923 22.6341H62.4182C61.9652 22.6341 61.5978 23.001 61.5978 23.4545C61.5978 23.908 61.9652 24.2749 62.4182 24.2749ZM67.1182 24.2749H67.9923C68.4453 24.2749 68.8127 23.908 68.8127 23.4545C68.8127 23.001 68.4453 22.6341 67.9923 22.6341H67.1182C66.6652 22.6341 66.2978 23.001 66.2978 23.4545C66.2978 23.908 66.6651 24.2749 67.1182 24.2749ZM72.6922 22.6341H71.8186C71.3656 22.6341 70.9982 23.001 70.9982 23.4545C70.9982 23.908 71.3656 24.2749 71.8186 24.2749H72.6922C73.1452 24.2749 73.5126 23.908 73.5126 23.4545C73.5126 23.001 73.1452 22.6341 72.6922 22.6341ZM62.4182 29.0362H63.2923C63.7453 29.0362 64.1127 28.6693 64.1127 28.2158C64.1127 27.7623 63.7453 27.3954 63.2923 27.3954H62.4182C61.9652 27.3954 61.5978 27.7623 61.5978 28.2158C61.5978 28.6693 61.9652 29.0362 62.4182 29.0362ZM67.1182 29.0362H67.9923C68.4453 29.0362 68.8127 28.6693 68.8127 28.2158C68.8127 27.7623 68.4453 27.3954 67.9923 27.3954H67.1182C66.6652 27.3954 66.2978 27.7623 66.2978 28.2158C66.2978 28.6693 66.6651 29.0362 67.1182 29.0362ZM72.6922 27.3954H71.8186C71.3656 27.3954 70.9982 27.7623 70.9982 28.2158C70.9982 28.6693 71.3656 29.0362 71.8186 29.0362H72.6922C73.1452 29.0362 73.5126 28.6693 73.5126 28.2158C73.5126 27.7623 73.1452 27.3954 72.6922 27.3954ZM62.4182 33.7965H63.2923C63.7453 33.7965 64.1127 33.4296 64.1127 32.9761C64.1127 32.5227 63.7453 32.1558 63.2923 32.1558H62.4182C61.9652 32.1558 61.5978 32.5227 61.5978 32.9761C61.5978 33.4296 61.9652 33.7965 62.4182 33.7965ZM67.1182 33.7965H67.9923C68.4453 33.7965 68.8127 33.4296 68.8127 32.9761C68.8127 32.5227 68.4453 32.1558 67.9923 32.1558H67.1182C66.6652 32.1558 66.2978 32.5227 66.2978 32.9761C66.2978 33.4296 66.6651 33.7965 67.1182 33.7965ZM72.6922 32.1558H71.8186C71.3656 32.1558 70.9982 32.5227 70.9982 32.9761C70.9982 33.4296 71.3656 33.7965 71.8186 33.7965H72.6922C73.1452 33.7965 73.5126 33.4296 73.5126 32.9761C73.5126 32.5227 73.1452 32.1558 72.6922 32.1558ZM62.4182 38.5578H63.2923C63.7453 38.5578 64.1127 38.1909 64.1127 37.7374C64.1127 37.284 63.7453 36.917 63.2923 36.917H62.4182C61.9652 36.917 61.5978 37.284 61.5978 37.7374C61.5978 38.1909 61.9652 38.5578 62.4182 38.5578ZM67.1182 38.5578H67.9923C68.4453 38.5578 68.8127 38.1909 68.8127 37.7374C68.8127 37.284 68.4453 36.917 67.9923 36.917H67.1182C66.6652 36.917 66.2978 37.284 66.2978 37.7374C66.2978 38.1909 66.6651 38.5578 67.1182 38.5578ZM72.6922 36.917H71.8186C71.3656 36.917 70.9982 37.284 70.9982 37.7374C70.9982 38.1909 71.3656 38.5578 71.8186 38.5578H72.6922C73.1452 38.5578 73.5126 38.1909 73.5126 37.7374C73.5126 37.284 73.1452 36.917 72.6922 36.917Z" fill="#173649"/>
<defs>
<linearGradient id="paint0_linear_969_114" x1="7.98594" y1="10.7863" x2="27.2201" y2="43.6159" gradientUnits="userSpaceOnUse">
<stop stop-color="#8F845A"/>
<stop offset="0.16" stop-color="#C6BC84"/>
<stop offset="0.665" stop-color="#EFE7A3"/>
<stop offset="1" stop-color="#A59A6A"/>
</linearGradient>
<linearGradient id="paint1_linear_969_114" x1="7.75904" y1="62.3596" x2="14.5795" y2="63.2617" gradientUnits="userSpaceOnUse">
<stop stop-color="#8F845A"/>
<stop offset="0.16" stop-color="#C6BC84"/>
<stop offset="0.665" stop-color="#EFE7A3"/>
<stop offset="1" stop-color="#A59A6A"/>
</linearGradient>
<linearGradient id="paint2_linear_969_114" x1="65.4299" y1="62.3596" x2="72.2504" y2="63.2617" gradientUnits="userSpaceOnUse">
<stop stop-color="#8F845A"/>
<stop offset="0.16" stop-color="#C6BC84"/>
<stop offset="0.665" stop-color="#EFE7A3"/>
<stop offset="1" stop-color="#A59A6A"/>
</linearGradient>
<linearGradient id="paint3_linear_969_114" x1="64.0815" y1="42.707" x2="72.2949" y2="43.5389" gradientUnits="userSpaceOnUse">
<stop stop-color="#8F845A"/>
<stop offset="0.16" stop-color="#C6BC84"/>
<stop offset="0.665" stop-color="#EFE7A3"/>
<stop offset="1" stop-color="#A59A6A"/>
</linearGradient>
</defs>
</svg>
