<svg width="81" height="19" viewBox="0 0 81 19" fill="none" xmlns="http://www.w3.org/2000/svg">
<path fill-rule="evenodd" clip-rule="evenodd" d="M0.693359 0.738037H7.71972C7.71972 0.738037 13.2468 8.45559 16.0097 12.2635V0.738037H21.1657V18.7335C19.7929 18.7437 14.4427 18.7335 14.4427 18.7335C14.4427 18.7335 8.57874 10.5442 5.69777 6.50069V18.7335H0.693359V0.738037ZM45.227 0.738037H50.7368C52.0847 5.11855 53.4326 9.49948 54.7806 13.8808L58.2181 0.738037H63.7279C61.9926 6.73599 60.2571 12.7345 58.5213 18.7335H51.0401C49.1026 12.7356 47.1649 6.73716 45.227 0.738037ZM67.5191 0.738037H74.3937C76.3313 6.73599 78.2691 12.7345 80.2069 18.7335H74.6465L73.8377 15.8017H68.0246L67.1653 18.7335H61.6554C63.6097 12.7356 65.5643 6.73716 67.5191 0.738037ZM70.9564 6.29842C70.4343 8.03377 69.912 9.7693 69.3894 11.505H72.5235L70.9564 6.29842Z" fill="white"/>
<path fill-rule="evenodd" clip-rule="evenodd" d="M28.4873 0.738037H39.0668C40.3385 0.738037 41.5581 1.24322 42.4574 2.14244C43.3566 3.04167 43.8618 4.26129 43.8618 5.53299V13.9385C43.8618 15.2102 43.3566 16.4299 42.4574 17.3291C41.5581 18.2283 40.3385 18.7335 39.0668 18.7335H28.4873C27.2156 18.7335 25.996 18.2283 25.0968 17.3291C24.1976 16.4299 23.6924 15.2102 23.6924 13.9385V5.53299C23.6924 4.26129 24.1976 3.04167 25.0968 2.14244C25.996 1.24322 27.2156 0.738037 28.4873 0.738037ZM30.6647 5.1764H36.8891C37.419 5.1764 37.9272 5.3869 38.3018 5.76157C38.6765 6.13625 38.887 6.64443 38.887 7.1743V12.2973C38.887 12.8272 38.6765 13.3354 38.3018 13.71C37.9272 14.0847 37.419 14.2952 36.8891 14.2952H30.6647C30.1348 14.2952 29.6267 14.0847 29.252 13.71C28.8773 13.3354 28.6668 12.8272 28.6668 12.2973V7.1743C28.6668 6.64443 28.8773 6.13625 29.252 5.76157C29.6267 5.3869 30.1348 5.1764 30.6647 5.1764Z" fill="white"/>
</svg>
