<svg width="65" height="64" viewBox="0 0 65 64" fill="none" xmlns="http://www.w3.org/2000/svg">
<symbol id="paymenticon" viewBox="0 0 65 64">
<path d="M21.8436 40.4239C21.8436 40.9469 21.4266 41.3639 20.9036 41.3639H5.83063C5.31763 41.3639 4.89062 40.9479 4.89062 40.4239C4.89062 39.9109 5.31663 39.4939 5.83063 39.4939H20.9046C21.4266 39.4939 21.8436 39.9109 21.8436 40.4239ZM18.5496 44.2799C18.5496 44.8029 18.1236 45.2199 17.6096 45.2199H5.83063C5.31763 45.2199 4.89062 44.8029 4.89062 44.2799C4.89062 43.7669 5.31663 43.3499 5.83063 43.3499H17.6106C18.1236 43.3499 18.5496 43.7659 18.5496 44.2799Z" fill="#173649"/>
<path d="M63.015 14.8979C62.598 14.3649 61.959 14.0549 61.271 14.0549H53.085C52.572 14.0549 52.145 14.4719 52.145 14.9949V16.8159H39.175C38.08 16.8159 37.015 16.9519 36.017 17.2129C33.324 17.9009 27.821 19.7799 20.972 24.6819H4.862C3.012 24.6819 1.5 26.1929 1.5 28.0529V46.5849C1.5 48.4349 3.011 49.9469 4.862 49.9469H39.369C41.219 49.9469 42.721 48.4359 42.721 46.5849V40.2779C43.825 39.3189 47.981 35.9959 52.147 36.3059V37.5849C52.147 38.0109 52.438 38.3789 52.844 38.4959L55.741 39.2809C55.935 39.3389 56.129 39.3579 56.322 39.3579C56.719 39.3579 57.107 39.2509 57.455 39.0479C57.978 38.7379 58.346 38.2439 58.482 37.6529L63.442 16.7859C63.597 16.1179 63.442 15.4309 63.015 14.8979ZM3.38 28.0529C3.38 27.2299 4.048 26.5609 4.862 26.5609H26.843C25.71 27.4039 24.741 28.3429 24.15 29.3799H3.38V28.0529ZM40.851 46.5849C40.851 47.3989 40.183 48.0669 39.369 48.0669H4.862C4.048 48.0669 3.38 47.3989 3.38 46.5849V36.6169H40.851V46.5849ZM40.851 34.7379H3.38V31.2599H23.578C23.568 31.9869 23.791 32.6939 24.276 33.2749C24.886 34.0109 25.768 34.4179 26.698 34.4179C26.834 34.4179 26.969 34.4079 27.115 34.3989C28.549 34.2049 30.06 33.5179 31.6 32.3649C32.22 31.8999 33.024 31.6969 33.818 31.8129C35.436 32.0549 38.168 32.2679 40.851 31.5509V34.7379ZM52.146 34.4079C48.329 34.1849 44.716 36.3749 42.72 37.8659V30.8809C44.783 29.9319 46.634 28.2749 47.68 25.4559C47.854 24.9719 47.612 24.4289 47.128 24.2549C46.634 24.0709 46.101 24.3229 45.917 24.8069C45.006 27.2479 43.35 28.6329 41.48 29.3889C41.432 29.3989 41.402 29.4179 41.364 29.4369C38.894 30.3859 36.065 30.2509 34.098 29.9599C32.81 29.7659 31.482 30.0959 30.465 30.8609C29.196 31.8199 27.975 32.3819 26.861 32.5269C26.425 32.5849 26.009 32.4109 25.718 32.0719C25.447 31.7429 25.369 31.3259 25.495 30.9289C26.657 27.4119 34.795 24.5349 37.837 23.7219C38.331 23.5859 38.631 23.0729 38.496 22.5689C38.37 22.0749 37.847 21.7749 37.353 21.9099C36.694 22.0839 33.265 23.0429 29.981 24.6799H24.294C29.845 21.0859 34.214 19.6039 36.481 19.0319C37.333 18.8089 38.244 18.6929 39.174 18.6929H52.145L52.146 34.4079ZM56.66 37.2179C56.631 37.3439 56.544 37.4019 56.495 37.4309C56.447 37.4599 56.35 37.4989 56.233 37.4699L54.024 36.8689V17.7559C54.024 17.7559 54.024 17.7559 54.024 17.7459V15.9339H61.27C61.415 15.9339 61.502 16.0119 61.541 16.0599C61.58 16.1079 61.638 16.2149 61.609 16.3509L56.66 37.2179Z" fill="#173649"/>
<path d="M36.1039 39.4651H33.5079C32.6259 39.4651 31.9189 40.1821 31.9189 41.0541V43.6601C31.9189 44.5321 32.6259 45.2491 33.5079 45.2491H36.1039C36.9859 45.2491 37.6929 44.5321 37.6929 43.6601V41.0541C37.6919 40.1821 36.9849 39.4651 36.1039 39.4651ZM35.8129 43.3691H33.7979V41.3441H35.8129V43.3691Z" fill="#173649"/>
</symbol>
</svg>
