<svg width="93" height="19" viewBox="0 0 93 19" fill="none" xmlns="http://www.w3.org/2000/svg">
<path d="M0.505558 18.738V0.798036H7.58345C8.94413 0.798036 10.1033 1.05791 11.0611 1.57765C12.0188 2.09156 12.7488 2.80694 13.251 3.7238C13.7591 4.63481 14.0131 5.68599 14.0131 6.87731C14.0131 8.06864 13.7562 9.11981 13.2423 10.0308C12.7284 10.9418 11.9838 11.6514 11.0085 12.1595C10.0391 12.6675 8.8653 12.9216 7.48709 12.9216H2.97581V9.88191H6.87391C7.60389 9.88191 8.20539 9.75636 8.67842 9.50524C9.15729 9.24829 9.51352 8.89498 9.74711 8.44531C9.98655 7.9898 10.1063 7.46714 10.1063 6.87731C10.1063 6.28165 9.98655 5.7619 9.74711 5.31807C9.51352 4.86841 9.15729 4.52094 8.67842 4.27566C8.19955 4.02455 7.59221 3.89899 6.85639 3.89899H4.29854V18.738H0.505558ZM16.4768 18.738V0.798036H20.2698V8.20004H27.9696V0.798036H31.7538V18.738H27.9696V11.3273H20.2698V18.738H16.4768ZM38.674 0.798036V18.738H34.8811V0.798036H38.674ZM41.7947 18.738V0.798036H45.5877V15.6108H53.2788V18.738H41.7947ZM59.5836 0.798036V18.738H55.7906V0.798036H59.5836ZM62.7043 18.738V0.798036H69.7822C71.1429 0.798036 72.3021 1.05791 73.2598 1.57765C74.2175 2.09156 74.9475 2.80694 75.4497 3.7238C75.9578 4.63481 76.2118 5.68599 76.2118 6.87731C76.2118 8.06864 75.9549 9.11981 75.441 10.0308C74.9271 10.9418 74.1825 11.6514 73.2072 12.1595C72.2378 12.6675 71.064 12.9216 69.6858 12.9216H65.1745V9.88191H69.0726C69.8026 9.88191 70.4041 9.75636 70.8771 9.50524C71.356 9.24829 71.7122 8.89498 71.9458 8.44531C72.1853 7.9898 72.305 7.46714 72.305 6.87731C72.305 6.28165 72.1853 5.7619 71.9458 5.31807C71.7122 4.86841 71.356 4.52094 70.8771 4.27566C70.3983 4.02455 69.7909 3.89899 69.0551 3.89899H66.4973V18.738H62.7043ZM88.4076 5.95754C88.3375 5.25092 88.0368 4.70197 87.5054 4.3107C86.9739 3.91943 86.2527 3.7238 85.3417 3.7238C84.7227 3.7238 84.2 3.81139 83.7737 3.98659C83.3474 4.15595 83.0204 4.39246 82.7926 4.69613C82.5707 4.9998 82.4597 5.34435 82.4597 5.72978C82.4481 6.05098 82.5152 6.33129 82.6612 6.57072C82.813 6.81016 83.0204 7.01747 83.2832 7.19267C83.5459 7.36202 83.8496 7.51094 84.1942 7.63941C84.5387 7.76205 84.9066 7.86717 85.2979 7.95476L86.9097 8.34019C87.6922 8.51539 88.4105 8.74898 89.0646 9.04098C89.7187 9.33297 90.2851 9.69212 90.764 10.1184C91.2429 10.5447 91.6137 11.047 91.8765 11.6251C92.1451 12.2033 92.2824 12.8661 92.2882 13.6136C92.2824 14.7115 92.002 15.6634 91.4473 16.4693C90.8983 17.2693 90.1041 17.8913 89.0646 18.3351C88.0309 18.7731 86.7841 18.9921 85.3242 18.9921C83.8759 18.9921 82.6145 18.7702 81.54 18.3263C80.4713 17.8825 79.6362 17.2255 79.0347 16.3554C78.439 15.4794 78.1266 14.3961 78.0974 13.1055H81.7677C81.8086 13.707 81.9809 14.2092 82.2845 14.6122C82.5941 15.0093 83.0058 15.31 83.5197 15.5144C84.0394 15.713 84.6263 15.8123 85.2804 15.8123C85.9228 15.8123 86.4805 15.7188 86.9535 15.532C87.4324 15.3451 87.8032 15.0852 88.066 14.7523C88.3288 14.4195 88.4602 14.037 88.4602 13.6048C88.4602 13.2019 88.3405 12.8632 88.101 12.5887C87.8674 12.3142 87.5229 12.0806 87.0674 11.8879C86.6177 11.6952 86.0658 11.52 85.4118 11.3623L83.4584 10.8718C81.9458 10.5039 80.7516 9.92863 79.8756 9.14609C78.9996 8.36355 78.5646 7.30946 78.5704 5.98382C78.5646 4.89761 78.8536 3.94863 79.4376 3.13689C80.0274 2.32516 80.8363 1.69153 81.8641 1.23602C82.8919 0.780516 84.0599 0.552762 85.368 0.552762C86.6995 0.552762 87.8616 0.780516 88.8544 1.23602C89.853 1.69153 90.6297 2.32516 91.1845 3.13689C91.7392 3.94863 92.0254 4.88885 92.0429 5.95754H88.4076Z" fill="white"/>
</svg>
