<svg width="26" height="26" viewBox="0 0 26 26" fill="none" xmlns="http://www.w3.org/2000/svg">
<symbol id="search" viewBox="0 0 26 26">
<path d="M17.8159 16.5366C19.2456 14.8059 20.1486 12.5861 20.1486 10.1406C20.1486 4.64752 15.6714 0.170288 10.1783 0.170288C4.68524 0.170288 0.208008 4.64752 0.208008 10.1406C0.208008 15.6337 4.68524 20.1109 10.1783 20.1109C12.5862 20.1109 14.8437 19.2455 16.5743 17.7782L24.3248 25.5287C24.513 25.7168 24.7387 25.7921 24.9645 25.7921C25.1902 25.7921 25.4159 25.7168 25.6041 25.5287C25.9427 25.1901 25.9427 24.5881 25.6041 24.2495L17.8159 16.5366ZM10.1407 18.3049C5.62583 18.3049 1.97633 14.6554 1.97633 10.1406C1.97633 5.62573 5.62583 1.97623 10.1407 1.97623C14.6555 1.97623 18.305 5.62573 18.305 10.1406C18.305 14.6554 14.6555 18.3049 10.1407 18.3049Z" fill="#173649"/>
</symbol>
</svg>
