<svg width="115" height="19" viewBox="0 0 115 19" fill="none" xmlns="http://www.w3.org/2000/svg">
<path fill-rule="evenodd" clip-rule="evenodd" d="M49.6397 16.3373C51.1282 18.4217 52.7161 18.4713 54.85 18.4713H56.3388V0.95501H53.0141V13.7076L45.3721 3.03938C44.6775 2.09632 43.536 0.95501 41.0551 0.95501H39.1198V18.4713H42.4445V6.31422L49.6397 16.3373ZM86.2852 18.738C88.0652 18.738 89.8053 18.2102 91.2854 17.2213C92.7654 16.2323 93.919 14.8267 94.6001 13.1821C95.2813 11.5376 95.4595 9.72798 95.1122 7.98214C94.765 6.23631 93.9078 4.63266 92.6491 3.374C91.3904 2.11534 89.7867 1.25819 88.0409 0.910945C86.295 0.563704 84.4854 0.741969 82.8409 1.42319C81.1964 2.10442 79.7908 3.25801 78.8019 4.73808C77.813 6.21815 77.2852 7.95823 77.2852 9.73827C77.2853 12.1252 78.2335 14.4143 79.9214 16.102C81.6092 17.7898 83.8983 18.738 86.2852 18.738ZM58.8692 9.68842C58.8692 17.6773 62.69 18.4713 64.9726 18.4713H76.1374V15.2954H68.1484C66.6598 15.2954 64.5259 15.4444 64.5259 9.68842C64.4764 3.53537 66.4115 4.13083 67.9001 4.13083H76.0384L74.4006 0.95501H64.2778C61.9953 0.95501 58.8691 1.69946 58.8691 9.68842H58.8692ZM19.3703 9.68842C19.3703 17.6773 23.1913 18.4713 25.4738 18.4713H36.6387V15.2954H28.6496C27.1611 15.2954 25.0272 15.4444 25.0272 9.68842C24.9777 3.53537 26.9129 4.13083 28.4017 4.13083H36.5396L34.9022 0.95501H24.7791C22.4965 0.95501 19.3703 1.69946 19.3703 9.68842ZM28.4512 11.2761L26.615 7.75338H35.944V11.2761H28.4512ZM106.283 8.79626C106.902 8.79626 107.495 8.55043 107.933 8.11285C108.37 7.67528 108.616 7.0818 108.616 6.46297C108.616 5.84414 108.37 5.25066 107.933 4.81308C107.495 4.3755 106.902 4.12967 106.283 4.12967H101.692V18.4713H97.3751V0.95501H109.632C112.212 0.95501 113.602 3.68424 113.602 5.37105C113.602 7.05786 113.006 9.83694 109.483 10.5308L114.694 18.4704H110.128L103.777 8.79545L106.283 8.79626ZM12.7582 18.4541C15.71 18.4541 17.5561 16.0617 17.5561 13.1105C17.5561 10.1593 15.7096 7.76698 12.7582 7.76698H7.78388C7.29999 7.76698 6.83591 7.57475 6.49375 7.23259C6.15158 6.89042 5.95936 6.42635 5.95936 5.94246C5.95936 5.45856 6.15158 4.99449 6.49375 4.65232C6.83591 4.31016 7.29999 4.11794 7.78388 4.11794L17.3857 4.13119L15.7479 0.95501L5.25279 0.959425C2.50102 0.959425 0.66732 3.19069 0.66732 5.94211C0.66732 8.69353 2.50102 10.9243 5.25279 10.9243L9.92972 10.9096C11.1174 10.9096 12.0803 11.9221 12.0803 13.11C12.0803 14.2979 11.1174 15.3101 9.92972 15.3101H0.613281V18.4466L12.7582 18.4541Z" fill="white"/>
</svg>
