<svg width="70" height="42" viewBox="0 0 70 42" fill="none" xmlns="http://www.w3.org/2000/svg">
<symbol id="sendicon" viewBox="0 0 70 42">

<g clip-path="url(#clip0_1200_6165)">
<path d="M69.2585 21.1485L61.2085 10.7985C61.1014 10.6593 60.9638 10.5465 60.8063 10.4688C60.6488 10.3911 60.4756 10.3504 60.3 10.35H49.95V5.75C49.95 4.225 49.3442 2.76247 48.2659 1.68414C47.1875 0.605802 45.725 0 44.2 0H6.25C4.72501 0 3.26247 0.605802 2.18414 1.68414C1.1058 2.76247 0.5 4.225 0.5 5.75V29.9C0.5 31.425 1.1058 32.8875 2.18414 33.9659C3.26247 35.0442 4.72501 35.65 6.25 35.65C6.555 35.65 6.84751 35.5288 7.06317 35.3132C7.27884 35.0975 7.4 34.805 7.4 34.5C7.4 34.195 7.27884 33.9025 7.06317 33.6868C6.84751 33.4712 6.555 33.35 6.25 33.35C5.335 33.35 4.45748 32.9865 3.81048 32.3395C3.16348 31.6925 2.8 30.815 2.8 29.9V25.3H47.65V33.35H24.5465C24.2581 31.6441 23.3395 30.1087 21.9725 29.0483C20.6055 27.9877 18.89 27.4795 17.166 27.6242C15.4419 27.7688 13.8352 28.5559 12.6641 29.8294C11.493 31.1029 10.843 32.7699 10.843 34.5C10.843 36.2301 11.493 37.8971 12.6641 39.1706C13.8352 40.4441 15.4419 41.2311 17.166 41.3758C18.89 41.5205 20.6055 41.0122 21.9725 39.9517C23.3395 38.8912 24.2581 37.3559 24.5465 35.65H51.2035C51.4836 37.2492 52.3187 38.6983 53.5618 39.7426C54.8049 40.7869 56.3765 41.3594 58 41.3594C59.6235 41.3594 61.1951 40.7869 62.4382 39.7426C63.6813 38.6983 64.5163 37.2492 64.7965 35.65H68.35C68.655 35.65 68.9475 35.5288 69.1632 35.3132C69.3788 35.0975 69.5 34.805 69.5 34.5V21.85C69.4992 21.5959 69.4143 21.3492 69.2585 21.1485ZM2.8 23V5.75C2.8 4.835 3.16348 3.95748 3.81048 3.31048C4.45748 2.66348 5.335 2.3 6.25 2.3H44.2C45.115 2.3 45.9925 2.66348 46.6395 3.31048C47.2865 3.95748 47.65 4.835 47.65 5.75V23H2.8ZM17.75 39.1C16.8402 39.1 15.9508 38.8302 15.1944 38.3248C14.4379 37.8193 13.8483 37.1009 13.5002 36.2603C13.152 35.4198 13.0609 34.4949 13.2384 33.6026C13.4159 32.7103 13.854 31.8906 14.4973 31.2473C15.1406 30.604 15.9603 30.1659 16.8526 29.9884C17.7449 29.8109 18.6698 29.902 19.5103 30.2501C20.3509 30.5983 21.0693 31.1879 21.5748 31.9444C22.0802 32.7008 22.35 33.5902 22.35 34.5C22.35 35.72 21.8654 36.89 21.0027 37.7527C20.14 38.6153 18.97 39.1 17.75 39.1ZM58 39.1C57.0902 39.1 56.2008 38.8302 55.4444 38.3248C54.6879 37.8193 54.0983 37.1009 53.7502 36.2603C53.402 35.4198 53.3109 34.4949 53.4884 33.6026C53.6659 32.7103 54.104 31.8906 54.7473 31.2473C55.3906 30.604 56.2103 30.1659 57.1026 29.9884C57.9949 29.8109 58.9198 29.902 59.7603 30.2501C60.6009 30.5983 61.3193 31.1879 61.8248 31.9444C62.3302 32.7008 62.6 33.5902 62.6 34.5C62.6 35.72 62.1154 36.89 61.2527 37.7527C60.39 38.6153 59.22 39.1 58 39.1ZM67.2 33.35H64.7965C64.5163 31.7508 63.6813 30.3016 62.4382 29.2574C61.1951 28.2131 59.6235 27.6406 58 27.6406C56.3765 27.6406 54.8049 28.2131 53.5618 29.2574C52.3187 30.3016 51.4836 31.7508 51.2035 33.35H49.95V12.65H59.7365L67.2 22.241V33.35Z" fill="#173649"/>
<path d="M58.0004 14.9499H53.4004C53.0954 14.9499 52.8029 15.0711 52.5872 15.2867C52.3716 15.5024 52.2504 15.7949 52.2504 16.0999V22.9999C52.2504 23.3049 52.3716 23.5974 52.5872 23.8131C52.8029 24.0287 53.0954 24.1499 53.4004 24.1499H63.7504C63.9691 24.1503 64.1834 24.0882 64.3681 23.9711C64.5528 23.854 64.7003 23.6866 64.7932 23.4887C64.8862 23.2907 64.9208 23.0703 64.8929 22.8534C64.865 22.6364 64.7759 22.432 64.6359 22.2639L58.8859 15.3639C58.7778 15.2341 58.6424 15.1297 58.4893 15.0581C58.3363 14.9866 58.1693 14.9496 58.0004 14.9499ZM54.5504 21.8499V17.2499H57.4599L61.2894 21.8499H54.5504ZM24.6504 10.9249C24.6504 9.85741 24.2263 8.83363 23.4715 8.0788C22.7167 7.32396 21.6929 6.8999 20.6254 6.8999H17.7504C17.4454 6.8999 17.1529 7.02106 16.9372 7.23673C16.7216 7.4524 16.6004 7.7449 16.6004 8.0499V17.2499C16.6004 17.5549 16.7216 17.8474 16.9372 18.0631C17.1529 18.2787 17.4454 18.3999 17.7504 18.3999C18.0554 18.3999 18.3479 18.2787 18.5636 18.0631C18.7792 17.8474 18.9004 17.5549 18.9004 17.2499V14.9499H20.5794L22.5459 17.8824C22.6501 18.0406 22.7917 18.1706 22.9582 18.2609C23.1247 18.3512 23.311 18.3989 23.5004 18.3999C23.7265 18.4025 23.9477 18.3341 24.1329 18.2044C24.385 18.0358 24.5603 17.7744 24.6206 17.4772C24.6809 17.18 24.6213 16.8709 24.4549 16.6174L22.8794 14.2484C23.4239 13.8815 23.8701 13.3867 24.1789 12.8073C24.4877 12.2278 24.6496 11.5815 24.6504 10.9249ZM18.9004 9.1999H20.6254C21.0829 9.1999 21.5217 9.38164 21.8452 9.70514C22.1687 10.0286 22.3504 10.4674 22.3504 10.9249C22.3504 11.3824 22.1687 11.8212 21.8452 12.1447C21.5217 12.4682 21.0829 12.6499 20.6254 12.6499H18.9004V9.1999ZM13.1504 9.1999C13.4554 9.1999 13.7479 9.07874 13.9636 8.86308C14.1792 8.64741 14.3004 8.3549 14.3004 8.0499C14.3004 7.7449 14.1792 7.4524 13.9636 7.23673C13.7479 7.02106 13.4554 6.8999 13.1504 6.8999H8.55039C8.24539 6.8999 7.95288 7.02106 7.73722 7.23673C7.52155 7.4524 7.40039 7.7449 7.40039 8.0499V17.2499C7.40039 17.5549 7.52155 17.8474 7.73722 18.0631C7.95288 18.2787 8.24539 18.3999 8.55039 18.3999C8.85539 18.3999 9.1479 18.2787 9.36356 18.0631C9.57923 17.8474 9.70039 17.5549 9.70039 17.2499V13.7999H13.1504C13.4554 13.7999 13.7479 13.6787 13.9636 13.4631C14.1792 13.2474 14.3004 12.9549 14.3004 12.6499C14.3004 12.3449 14.1792 12.0524 13.9636 11.8367C13.7479 11.6211 13.4554 11.4999 13.1504 11.4999H9.70039V9.1999H13.1504ZM32.7004 9.1999C33.0054 9.1999 33.2979 9.07874 33.5136 8.86308C33.7292 8.64741 33.8504 8.3549 33.8504 8.0499C33.8504 7.7449 33.7292 7.4524 33.5136 7.23673C33.2979 7.02106 33.0054 6.8999 32.7004 6.8999H28.1004C27.7954 6.8999 27.5029 7.02106 27.2872 7.23673C27.0716 7.4524 26.9504 7.7449 26.9504 8.0499V17.2499C26.9504 17.5549 27.0716 17.8474 27.2872 18.0631C27.5029 18.2787 27.7954 18.3999 28.1004 18.3999H32.7004C33.0054 18.3999 33.2979 18.2787 33.5136 18.0631C33.7292 17.8474 33.8504 17.5549 33.8504 17.2499C33.8504 16.9449 33.7292 16.6524 33.5136 16.4367C33.2979 16.2211 33.0054 16.0999 32.7004 16.0999H29.2504V13.7999H32.7004C33.0054 13.7999 33.2979 13.6787 33.5136 13.4631C33.7292 13.2474 33.8504 12.9549 33.8504 12.6499C33.8504 12.3449 33.7292 12.0524 33.5136 11.8367C33.2979 11.6211 33.0054 11.4999 32.7004 11.4999H29.2504V9.1999H32.7004ZM41.9004 9.1999C42.2054 9.1999 42.4979 9.07874 42.7136 8.86308C42.9292 8.64741 43.0504 8.3549 43.0504 8.0499C43.0504 7.7449 42.9292 7.4524 42.7136 7.23673C42.4979 7.02106 42.2054 6.8999 41.9004 6.8999H37.3004C36.9954 6.8999 36.7029 7.02106 36.4872 7.23673C36.2716 7.4524 36.1504 7.7449 36.1504 8.0499V17.2499C36.1504 17.5549 36.2716 17.8474 36.4872 18.0631C36.7029 18.2787 36.9954 18.3999 37.3004 18.3999H41.9004C42.2054 18.3999 42.4979 18.2787 42.7136 18.0631C42.9292 17.8474 43.0504 17.5549 43.0504 17.2499C43.0504 16.9449 42.9292 16.6524 42.7136 16.4367C42.4979 16.2211 42.2054 16.0999 41.9004 16.0999H38.4504V13.7999H41.9004C42.2054 13.7999 42.4979 13.6787 42.7136 13.4631C42.9292 13.2474 43.0504 12.9549 43.0504 12.6499C43.0504 12.3449 42.9292 12.0524 42.7136 11.8367C42.4979 11.6211 42.2054 11.4999 41.9004 11.4999H38.4504V9.1999H41.9004Z" fill="#173649"/>
</g>
<defs>
<clipPath id="clip0_1200_6165">
<rect width="69" height="41.4" fill="white" transform="translate(0.5)"/>
</clipPath>
</defs>
</symbol>
</svg>
