<svg width="19" height="19" viewBox="0 0 19 19" fill="none" xmlns="http://www.w3.org/2000/svg">
<path fill-rule="evenodd" clip-rule="evenodd" d="M9.5 1C4.80558 1 1 4.80558 1 9.5C1 14.1944 4.80558 18 9.5 18C9.7761 18 10 18.2239 10 18.5C10 18.7761 9.7761 19 9.5 19C4.25329 19 0 14.7467 0 9.5C0 4.25329 4.25329 0 9.5 0C14.7467 0 19 4.25329 19 9.5C19 12.7942 17.3228 15.6966 14.7781 17.4C14.5594 17.5463 14.2647 17.4982 14.104 17.2898L9.104 10.8053C9.0366 10.7178 9 10.6105 9 10.5V4.5C9 4.22386 9.2239 4 9.5 4C9.7761 4 10 4.22386 10 4.5V10.3296L14.6026 16.2987C16.6666 14.7471 18 12.2792 18 9.5C18 4.80558 14.1944 1 9.5 1Z" fill="#737373"/>
</svg>
