<svg width="17" height="16" viewBox="0 0 17 16" fill="none" xmlns="http://www.w3.org/2000/svg">
<path d="M16.8884 4.35377C16.7871 4.21877 16.6251 4.13777 16.4564 4.13777H4.15108L3.20608 0.405002C3.14533 0.162001 2.92933 0 2.67958 0H1.59957C1.30257 0 1.05957 0.243001 1.05957 0.540002C1.05957 0.837003 1.30257 1.08 1.59957 1.08H2.26108L4.81934 11.1848V11.1915C4.82609 11.2185 4.83959 11.2523 4.84634 11.2793C4.85984 11.3063 4.87334 11.3333 4.88684 11.3535C4.88684 11.3535 4.88684 11.3535 4.89359 11.3603C4.90709 11.3805 4.92734 11.4075 4.94759 11.4278C4.94759 11.4278 4.94759 11.4278 4.95434 11.4345C4.97459 11.4548 4.99484 11.475 5.01509 11.4885C5.01509 11.4885 5.01509 11.4885 5.02184 11.4885C5.04209 11.502 5.06909 11.5223 5.08934 11.5358C5.11634 11.5493 5.13659 11.5628 5.16359 11.5695C5.16359 11.5695 5.16359 11.5695 5.17034 11.5695C5.19734 11.5763 5.22434 11.583 5.25134 11.5898C5.25134 11.5898 5.25134 11.5898 5.25809 11.5898C5.28509 11.5965 5.31209 11.5965 5.33909 11.5965C5.33909 11.5965 5.33909 11.5965 5.34584 11.5965H14.5664C14.8026 11.5965 15.0186 11.4413 15.0861 11.2118L16.9829 4.82627C17.0234 4.66427 16.9896 4.48877 16.8884 4.35377ZM14.1614 10.5233H5.76434L4.43458 5.21777H15.7341L14.1614 10.5233ZM12.3119 12.1028C11.3736 12.1028 10.6041 12.8656 10.6041 13.8106C10.6041 14.7556 11.3669 15.5183 12.3119 15.5183C13.2569 15.5183 14.0196 14.7556 14.0196 13.8106C14.0196 12.8656 13.2569 12.1028 12.3119 12.1028ZM12.3119 14.4316C11.9676 14.4316 11.6841 14.1481 11.6841 13.8038C11.6841 13.4596 11.9676 13.1761 12.3119 13.1761C12.6561 13.1761 12.9396 13.4596 12.9396 13.8038C12.9396 14.1481 12.6561 14.4316 12.3119 14.4316ZM7.37085 12.1028C6.43259 12.1028 5.66309 12.8656 5.66309 13.8106C5.66309 14.7556 6.42584 15.5183 7.37085 15.5183C8.3091 15.5183 9.0786 14.7556 9.0786 13.8106C9.0786 12.8656 8.3091 12.1028 7.37085 12.1028ZM7.37085 14.4316C7.0266 14.4316 6.74309 14.1481 6.74309 13.8038C6.74309 13.4596 7.0266 13.1761 7.37085 13.1761C7.7151 13.1761 7.9986 13.4596 7.9986 13.8038C7.99185 14.1481 7.7151 14.4316 7.37085 14.4316Z" fill="#173649" fill-opacity="0.37"/>
<path d="M15.8356 4.35377C15.7343 4.21877 15.5723 4.13777 15.4036 4.13777H3.09151L2.14651 0.405002C2.08576 0.162001 1.86976 0 1.62001 0H0.540002C0.243001 0 0 0.243001 0 0.540002C0 0.837003 0.243001 1.08 0.540002 1.08H1.2015L3.75301 11.1983V11.205C3.75976 11.232 3.77327 11.2658 3.78002 11.2928C3.79352 11.3198 3.80702 11.3468 3.82052 11.367C3.82052 11.367 3.82052 11.367 3.82727 11.3738C3.84077 11.394 3.86102 11.421 3.88127 11.4413C3.88127 11.4413 3.88127 11.4413 3.88802 11.448C3.90827 11.4683 3.92852 11.4885 3.94877 11.502C3.94877 11.502 3.94877 11.502 3.95552 11.502C3.97577 11.5155 4.00277 11.5358 4.02302 11.5493C4.05002 11.5628 4.07027 11.5763 4.09727 11.583C4.09727 11.583 4.09727 11.583 4.10402 11.583C4.13102 11.5898 4.15802 11.5965 4.18502 11.6033C4.18502 11.6033 4.18502 11.6033 4.19177 11.6033C4.21877 11.61 4.24577 11.61 4.27277 11.61C4.27277 11.61 4.27277 11.61 4.27952 11.61H13.5001C13.7363 11.61 13.9523 11.4548 14.0198 11.2253L15.9166 4.83977C15.9706 4.66427 15.9368 4.48877 15.8356 4.35377ZM13.1086 10.5233H4.71152L3.38176 5.21777H14.6813L13.1086 10.5233Z" fill="white"/>
<path d="M11.2595 12.1028C10.3213 12.1028 9.55176 12.8655 9.55176 13.8105C9.55176 14.7555 10.3145 15.5183 11.2595 15.5183C12.2045 15.5183 12.9673 14.7555 12.9673 13.8105C12.9673 12.8655 12.1978 12.1028 11.2595 12.1028ZM11.2595 14.4315C10.9153 14.4315 10.6318 14.148 10.6318 13.8038C10.6318 13.4595 10.9153 13.176 11.2595 13.176C11.6038 13.176 11.8873 13.4595 11.8873 13.8038C11.8805 14.148 11.6038 14.4315 11.2595 14.4315Z" fill="white"/>
<path d="M6.31127 12.1028C5.37302 12.1028 4.60352 12.8655 4.60352 13.8105C4.60352 14.7555 5.36627 15.5183 6.31127 15.5183C7.25628 15.5183 8.01903 14.7555 8.01903 13.8105C8.01903 12.8655 7.25628 12.1028 6.31127 12.1028ZM6.31127 14.4315C5.96702 14.4315 5.68352 14.148 5.68352 13.8038C5.68352 13.4595 5.96702 13.176 6.31127 13.176C6.65552 13.176 6.93903 13.4595 6.93903 13.8038C6.93903 14.148 6.65552 14.4315 6.31127 14.4315Z" fill="white"/>
</svg>
