<svg width="26" height="26" viewBox="0 0 26 26" fill="none" xmlns="http://www.w3.org/2000/svg">
<symbol id="shoppingcart" viewBox="0 0 26 26">
<path d="M25.8261 7.73933C25.6632 7.52218 25.4026 7.3919 25.1312 7.3919H5.33875L3.81876 1.38794C3.72105 0.997081 3.37362 0.736511 2.97191 0.736511H1.23478C0.757066 0.736511 0.366211 1.12737 0.366211 1.60508C0.366211 2.08279 0.757066 2.47364 1.23478 2.47364H2.29877L6.4136 18.7267V18.7375C6.42446 18.781 6.44617 18.8353 6.45703 18.8787C6.47874 18.9221 6.50046 18.9655 6.52217 18.9981C6.52217 18.9981 6.52217 18.9981 6.53303 19.009C6.55475 19.0415 6.58732 19.085 6.61989 19.1175C6.61989 19.1175 6.61989 19.1175 6.63074 19.1284C6.66332 19.161 6.69589 19.1935 6.72846 19.2153C6.72846 19.2153 6.72846 19.2153 6.73932 19.2153C6.77189 19.237 6.81531 19.2695 6.84789 19.2913C6.89131 19.313 6.92389 19.3347 6.96731 19.3455C6.96731 19.3455 6.96731 19.3455 6.97817 19.3455C7.0216 19.3564 7.06503 19.3673 7.10846 19.3781C7.10846 19.3781 7.10846 19.3781 7.11931 19.3781C7.16274 19.389 7.20617 19.389 7.2496 19.389C7.2496 19.389 7.2496 19.389 7.26046 19.389H22.0912C22.4712 19.389 22.8186 19.1393 22.9272 18.7701L25.9781 8.49932C26.0432 8.23875 25.9889 7.95647 25.8261 7.73933ZM21.4398 17.6627H7.93359L5.79475 9.12903H23.9695L21.4398 17.6627ZM18.465 20.2032C16.9558 20.2032 15.7181 21.4301 15.7181 22.9501C15.7181 24.4701 16.945 25.6969 18.465 25.6969C19.9849 25.6969 21.2118 24.4701 21.2118 22.9501C21.2118 21.4301 19.9849 20.2032 18.465 20.2032ZM18.465 23.9489C17.9112 23.9489 17.4553 23.4929 17.4553 22.9392C17.4553 22.3855 17.9112 21.9295 18.465 21.9295C19.0187 21.9295 19.4747 22.3855 19.4747 22.9392C19.4747 23.4929 19.0187 23.9489 18.465 23.9489ZM10.5176 20.2032C9.00844 20.2032 7.77074 21.4301 7.77074 22.9501C7.77074 24.4701 8.99759 25.6969 10.5176 25.6969C12.0267 25.6969 13.2644 24.4701 13.2644 22.9501C13.2644 21.4301 12.0267 20.2032 10.5176 20.2032ZM10.5176 23.9489C9.96387 23.9489 9.50787 23.4929 9.50787 22.9392C9.50787 22.3855 9.96387 21.9295 10.5176 21.9295C11.0713 21.9295 11.5273 22.3855 11.5273 22.9392C11.5164 23.4929 11.0713 23.9489 10.5176 23.9489Z" fill="#ffffff" fill-opacity=""/>
</symbol>
</svg>
