<svg width="146" height="19" viewBox="0 0 146 19" fill="none" xmlns="http://www.w3.org/2000/svg">
<path fill-rule="evenodd" clip-rule="evenodd" d="M144.969 6.42788H141.026L139.656 18.4239H135.683L137.053 6.42788H132.708L133.384 4.08941H145.644L144.969 6.42788ZM130.243 6.95691C129.972 6.82765 129.693 6.71653 129.407 6.62426C129.123 6.53288 128.846 6.45807 128.575 6.39983C128.321 6.344 128.065 6.30157 127.807 6.2727C127.593 6.24813 127.377 6.23502 127.161 6.23342C126.873 6.23064 126.585 6.26354 126.305 6.33137C126.071 6.3861 125.849 6.4822 125.649 6.61513C125.476 6.73244 125.332 6.88812 125.229 7.07009C125.126 7.25397 125.074 7.46149 125.077 7.67191C125.072 7.94412 125.157 8.21038 125.318 8.43018C125.493 8.66417 125.707 8.86747 125.949 9.03184C126.233 9.22868 126.53 9.40546 126.839 9.56087C127.172 9.73069 127.513 9.90848 127.862 10.0942C128.213 10.2816 128.554 10.4873 128.884 10.7106C129.213 10.9325 129.512 11.1955 129.775 11.4934C130.041 11.7998 130.255 12.1487 130.406 12.5257C130.573 12.9591 130.655 13.4211 130.646 13.8858C130.653 14.5467 130.5 15.1996 130.201 15.7888C129.896 16.3761 129.463 16.8877 128.934 17.286C128.339 17.7307 127.667 18.0638 126.953 18.2694C126.116 18.5133 125.247 18.6321 124.375 18.622C124.048 18.622 123.696 18.606 123.318 18.574C122.94 18.5419 122.551 18.4897 122.153 18.4173C121.748 18.3438 121.346 18.2491 120.95 18.1336C120.545 18.0161 120.149 17.8689 119.766 17.6934L120.608 15.1885L120.823 15.0905C121.188 15.2668 121.531 15.4266 121.85 15.57C122.17 15.7134 122.478 15.839 122.775 15.9468C123.06 16.0511 123.353 16.1345 123.651 16.1962C123.937 16.2549 124.229 16.2844 124.521 16.2844C124.803 16.2842 125.083 16.2547 125.358 16.1962C125.621 16.143 125.873 16.0489 126.106 15.9174C126.321 15.7972 126.505 15.6299 126.645 15.4281C126.786 15.2154 126.858 14.9642 126.85 14.709C126.856 14.4276 126.771 14.1517 126.61 13.9214C126.435 13.6812 126.221 13.4714 125.979 13.3C125.696 13.0978 125.398 12.9179 125.088 12.7618C124.755 12.5922 124.416 12.4144 124.071 12.2285C123.725 12.0425 123.386 11.8387 123.053 11.617C122.723 11.3979 122.424 11.1364 122.162 10.839C121.897 10.5353 121.684 10.1899 121.531 9.81657C121.364 9.38996 121.282 8.93437 121.291 8.47604C121.283 7.82945 121.434 7.19088 121.731 6.61641C122.032 6.04692 122.457 5.55209 122.974 5.16831C123.554 4.74046 124.207 4.42131 124.901 4.22631C125.713 3.99621 126.553 3.88418 127.396 3.89366C127.625 3.89366 127.894 3.90184 128.204 3.91819C128.513 3.93454 128.839 3.96222 129.181 4.00123C129.523 4.04056 129.874 4.09111 130.233 4.15289C130.592 4.21466 130.938 4.29134 131.27 4.38294L130.419 6.87804L130.243 6.95691ZM113.414 6.42788L113.003 9.97078H117.572L116.966 12.1129H112.758L112.308 16.0854H118.081L117.406 18.4239H108.071L109.705 4.08941H119.382L118.707 6.42788H113.414ZM104.935 10.1021C104.619 10.4509 104.27 10.7687 103.893 11.0511C103.515 11.3349 103.156 11.5876 102.817 11.8094L106.016 18.4239H101.427L99.5879 13.2577H98.042L97.4548 18.4239H93.4823L95.1163 4.08941H100.625C101.449 4.07403 102.27 4.17281 103.067 4.38294C103.669 4.54081 104.237 4.80599 104.745 5.16574C105.153 5.45817 105.485 5.844 105.713 6.29098C105.919 6.701 106.026 7.15319 106.027 7.61179C106.03 8.07819 105.925 8.53899 105.718 8.95729C105.512 9.3733 105.248 9.75858 104.935 10.1021ZM101.956 7.65107C101.876 7.41211 101.748 7.1922 101.579 7.00517C101.407 6.81842 101.194 6.67294 100.958 6.57954C100.68 6.47312 100.384 6.42162 100.087 6.42788H98.8247L98.2865 11.1148H100.518C100.713 11.0106 100.895 10.8842 101.061 10.738C101.254 10.5696 101.424 10.3754 101.565 10.1609C101.72 9.92486 101.845 9.67008 101.937 9.40264C102.038 9.10317 102.087 8.78881 102.083 8.47283C102.086 8.19375 102.043 7.91608 101.956 7.65107ZM91.4921 4.48121C90.8909 4.17038 90.2517 3.93924 89.5907 3.79363C89.0409 3.6703 88.4798 3.60417 87.9164 3.59629C87.0978 3.58758 86.2866 3.75265 85.5365 4.08059C84.8219 4.39557 84.1821 4.85814 83.6589 5.43795C83.1172 6.0463 82.7007 6.75547 82.4332 7.5249C82.1332 8.38776 81.9855 9.2962 81.9967 10.2097C81.9842 10.9914 82.1034 11.7696 82.3493 12.5117C82.5642 13.1523 82.9197 13.7366 83.3898 14.222C83.8664 14.6998 84.4449 15.0637 85.082 15.2863C85.8244 15.5414 86.6057 15.6648 87.3905 15.651C87.7343 15.6524 88.0777 15.6325 88.4189 15.5912C88.7231 15.5541 89.0246 15.4982 89.3218 15.4238C89.5971 15.3544 89.8686 15.2705 90.1351 15.1726C90.3942 15.0771 90.6513 14.9774 90.9065 14.8736V16.8469C90.4897 17.1493 90.0452 17.4116 89.579 17.6302C89.0731 17.8699 88.5493 18.0698 88.0124 18.2282C87.4558 18.393 86.8883 18.5189 86.3142 18.6049C85.7443 18.6917 85.1686 18.7357 84.5921 18.7365C83.5256 18.7494 82.4657 18.567 81.4648 18.1983C80.5542 17.8615 79.7264 17.3333 79.0371 16.6496C78.3483 15.9528 77.8126 15.1198 77.4645 14.204C77.0764 13.1724 76.8857 12.077 76.9024 10.975C76.8932 9.95027 77.0487 8.93074 77.3628 7.95534C77.9412 6.16725 79.033 4.58888 80.5021 3.41689C81.2238 2.83739 82.0103 2.34373 82.846 1.94587C83.6842 1.5469 84.5648 1.24402 85.4711 1.04299C86.368 0.841595 87.2844 0.739446 88.2036 0.738392C88.4827 0.738392 88.8076 0.748332 89.1783 0.768211C89.5491 0.78809 89.9378 0.82197 90.3445 0.86985C90.7506 0.91773 91.1631 0.979559 91.5821 1.05533C92.001 1.13111 92.4018 1.22077 92.7844 1.32433L91.744 4.3863L91.4921 4.48121ZM71.9125 10.1021C71.5963 10.4509 71.2473 10.7687 70.8705 11.0511C70.4922 11.3349 70.1334 11.5876 69.7942 11.8094L72.9938 18.4239H68.4047L66.5653 13.2577H65.0193L64.4322 18.4239H60.4597L62.0937 4.08941H67.6025C68.4259 4.07407 69.2475 4.17285 70.0438 4.38294C70.6456 4.54081 71.2141 4.80599 71.7218 5.16574C72.1299 5.45812 72.4621 5.84395 72.6905 6.29098C72.8957 6.7053 73.0028 7.16124 73.0037 7.62357C73.0045 8.0859 72.899 8.54223 72.6953 8.95729C72.4888 9.37334 72.2253 9.75863 71.9125 10.1021ZM68.9331 7.65107C68.8535 7.41206 68.7252 7.19213 68.5564 7.00517C68.384 6.81839 68.1716 6.67291 67.9352 6.57954C67.6575 6.47312 67.3617 6.42162 67.0644 6.42788H65.8021L65.2639 11.1148H67.4948C67.6898 11.0106 67.8721 10.8842 68.0379 10.738C68.2314 10.5695 68.4009 10.3754 68.5418 10.1609C68.6972 9.92485 68.8221 9.67007 68.9136 9.40264C69.0146 9.1032 69.0642 8.78883 69.0604 8.47283C69.0637 8.19375 69.0207 7.91607 68.9331 7.65107ZM53.219 6.42788L52.8079 9.97078H57.3769L56.7702 12.1137H52.5633L52.1133 16.0862H57.8863L57.2111 18.4247H47.8766L49.5106 4.09021H59.1876L58.5125 6.42869H53.219V6.42788ZM36.7807 18.4239L33.9823 4.08941H38.1799L39.5987 13.2772L39.8231 15.3711H40.0187L40.7135 13.2772L44.2065 4.08941H47.4551L41.369 18.4239H36.7807ZM31.9862 18.4239H23.2386L24.8727 4.08941H28.8452L27.4754 16.0854H32.6613L31.9862 18.4239ZM15.939 18.4239L17.573 4.08941H21.5456L19.9126 18.4239H15.9401H15.939ZM13.0149 4.48121C12.6834 4.32325 12.3418 4.18743 11.9924 4.07465C11.6457 3.96308 11.3068 3.87138 10.9759 3.79956C10.6659 3.73138 10.3525 3.67947 10.0371 3.64405C9.77498 3.61409 9.51148 3.59804 9.24769 3.59596C8.8953 3.59245 8.54384 3.63263 8.20133 3.71556C7.91563 3.78248 7.64417 3.89991 7.39977 4.06231C7.18794 4.20577 7.01198 4.39606 6.88549 4.61843C6.7605 4.8432 6.6966 5.0968 6.70017 5.35395C6.69429 5.68655 6.79719 6.01196 6.99322 6.28072C7.20806 6.56673 7.46872 6.81525 7.76464 7.01623C8.11192 7.25651 8.47554 7.47228 8.85284 7.66197C9.25897 7.86941 9.67578 8.08669 10.1033 8.3138C10.533 8.54282 10.9504 8.79433 11.3537 9.06727C11.7558 9.3384 12.1215 9.65993 12.4419 10.024C12.7679 10.3984 13.0287 10.8249 13.2133 11.2857C13.418 11.8155 13.5175 12.3801 13.5064 12.9479C13.5151 13.7558 13.3284 14.5538 12.9621 15.2739C12.589 15.9918 12.0599 16.6171 11.4135 17.1037C10.6855 17.6474 9.86502 18.0548 8.99183 18.3061C7.96814 18.6044 6.90597 18.7497 5.83977 18.7373C5.44102 18.7373 5.01047 18.7174 4.54813 18.6775C4.08579 18.6376 3.61143 18.5738 3.12504 18.4861C2.62901 18.3962 2.138 18.2804 1.65401 18.1393C1.15914 17.9957 0.67551 17.8158 0.207031 17.6012L1.2356 14.5392L1.49867 14.4196C1.94509 14.6348 2.36366 14.8301 2.7544 15.0056C3.14513 15.1811 3.52187 15.3345 3.8846 15.466C4.23342 15.5935 4.59112 15.6954 4.95484 15.7706C5.30507 15.8423 5.66166 15.8784 6.01916 15.8783C6.36281 15.8782 6.7055 15.8421 7.04163 15.7706C7.36257 15.7056 7.6713 15.5906 7.95653 15.4297C8.21808 15.2828 8.44282 15.0783 8.61382 14.8318C8.78629 14.5717 8.87404 14.2647 8.86502 13.9528C8.87181 13.6092 8.76918 13.2724 8.57197 12.9909C8.35791 12.6975 8.09734 12.4409 7.80055 12.2315C7.45534 11.9846 7.09152 11.7649 6.71235 11.5742C6.30622 11.3671 5.89166 11.1499 5.46865 10.9226C5.04563 10.6952 4.63107 10.4461 4.22494 10.175C3.82202 9.90732 3.45614 9.58768 3.13674 9.22437C2.81243 8.85293 2.55177 8.43042 2.36532 7.97393C2.16048 7.45249 2.06088 6.89566 2.07227 6.33554C2.06296 5.54549 2.24776 4.76523 2.61044 4.06328C2.97814 3.36728 3.49712 2.76251 4.12924 2.29342C4.83903 1.77161 5.63744 1.38262 6.48583 1.14527C7.47758 0.864055 8.50466 0.727131 9.53545 0.738715C9.81439 0.738715 10.1432 0.748655 10.522 0.768534C10.9008 0.788413 11.2994 0.822292 11.7179 0.870172C12.1366 0.917732 12.565 0.979288 13.0032 1.05485C13.4414 1.13041 13.8639 1.22409 14.2709 1.33588L13.2305 4.38534L13.0149 4.48121Z" fill="white"/>
</svg>
