<svg width="24" height="25" viewBox="0 0 24 25" fill="none" xmlns="http://www.w3.org/2000/svg">
<symbol id="user" viewBox="0 0 24 25">
<path d="M12 13.5C15.3137 13.5 18 10.8137 18 7.5C18 4.18629 15.3137 1.5 12 1.5C8.68629 1.5 6 4.18629 6 7.5C6 10.8137 8.68629 13.5 12 13.5Z" fill="white"/>
<path d="M20.54 16.75C17.9064 15.3476 14.9827 14.5773 12 14.5C9.01733 14.5773 6.09357 15.3476 3.46 16.75C2.72144 17.1256 2.10093 17.6979 1.66687 18.4037C1.2328 19.1095 1.00203 19.9214 1 20.75V21.5C1 22.0304 1.21071 22.5391 1.58579 22.9142C1.96086 23.2893 2.46957 23.5 3 23.5H21C21.5304 23.5 22.0391 23.2893 22.4142 22.9142C22.7893 22.5391 23 22.0304 23 21.5V20.77C23.0017 19.938 22.7726 19.1219 22.3384 18.4122C21.9041 17.7025 21.2816 17.1272 20.54 16.75Z" fill="white"/>

</symbol>
</svg>
